G04 MADE WITH FRITZING*
G04 WWW.FRITZING.ORG*
G04 DOUBLE SIDED*
G04 HOLES PLATED*
G04 CONTOUR ON CENTER OF CONTOUR VECTOR*
%ASAXBY*%
%FSLAX23Y23*%
%MOIN*%
%OFA0B0*%
%SFA1.0B1.0*%
%ADD10C,0.078000*%
%ADD11C,0.039370*%
%ADD12C,0.070866*%
%ADD13C,0.099055*%
%ADD14R,0.078000X0.078000*%
%ADD15C,0.024000*%
%ADD16C,0.008000*%
%LNCOPPER1*%
G90*
G70*
G54D10*
X1399Y981D03*
G54D11*
X1578Y780D03*
X1341Y702D03*
X1200Y1242D03*
X700Y1081D03*
G54D12*
X1499Y1480D03*
X1399Y1480D03*
X1299Y1480D03*
X1100Y1479D03*
X1000Y1479D03*
X900Y1479D03*
X800Y1479D03*
X600Y1480D03*
X500Y1480D03*
X400Y1480D03*
X300Y1480D03*
X200Y1480D03*
X1500Y880D03*
X1400Y880D03*
X1300Y880D03*
X1200Y880D03*
X1100Y880D03*
X1000Y880D03*
X900Y880D03*
X800Y880D03*
X700Y880D03*
X600Y880D03*
X500Y880D03*
X400Y880D03*
X300Y880D03*
X200Y880D03*
G54D11*
X249Y1578D03*
G54D10*
X1050Y200D03*
X650Y200D03*
G54D12*
X350Y1675D03*
X450Y1675D03*
X550Y1675D03*
X650Y1675D03*
X750Y1675D03*
X850Y1675D03*
X950Y1675D03*
X1050Y1675D03*
X1150Y1675D03*
X1250Y1675D03*
X1350Y1675D03*
X350Y1675D03*
X450Y1675D03*
X550Y1675D03*
X650Y1675D03*
X750Y1675D03*
X850Y1675D03*
X950Y1675D03*
X1050Y1675D03*
X1150Y1675D03*
X1250Y1675D03*
X1350Y1675D03*
G54D10*
X800Y750D03*
X800Y650D03*
X1150Y580D03*
X1250Y580D03*
X1150Y280D03*
X1150Y380D03*
X1150Y480D03*
X750Y500D03*
X850Y500D03*
X950Y500D03*
G54D13*
X650Y350D03*
X1050Y350D03*
X1050Y100D03*
X650Y100D03*
G54D14*
X750Y500D03*
G54D15*
X1400Y780D02*
X1400Y850D01*
D02*
X1559Y780D02*
X1400Y780D01*
D02*
X1646Y702D02*
X1646Y981D01*
D02*
X1646Y981D02*
X1429Y981D01*
D02*
X1360Y702D02*
X1646Y702D01*
D02*
X1200Y1599D02*
X1200Y1261D01*
D02*
X700Y1556D02*
X700Y1100D01*
G54D16*
D02*
X1050Y1429D02*
X1082Y1462D01*
D02*
X950Y1430D02*
X982Y1462D01*
G54D15*
D02*
X1200Y1599D02*
X550Y1599D01*
D02*
X550Y1599D02*
X550Y1644D01*
D02*
X700Y1556D02*
X350Y1556D01*
D02*
X350Y1556D02*
X350Y1644D01*
G54D16*
D02*
X950Y831D02*
X822Y762D01*
D02*
X1050Y796D02*
X821Y663D01*
D02*
X1050Y1429D02*
X1050Y796D01*
D02*
X950Y1430D02*
X950Y831D01*
D02*
X249Y930D02*
X249Y1565D01*
D02*
X218Y898D02*
X249Y930D01*
G04 End of Copper1*
M02*