; NON-PLATED HOLES START AT T1
; THROUGH (PLATED) HOLES START AT T100
M48
INCH
T100C0.039370
T101C0.015748
T102C0.038000
%
T100
X004495Y016746
X009495Y016746
X007495Y016746
X005495Y016746
X003495Y016746
X008495Y016746
X006495Y016746
X013992Y014801
X002998Y008803
X004998Y008803
X012992Y014801
X014992Y014801
X001998Y008803
X003998Y008803
X005998Y008803
X007998Y008803
X009998Y008803
X006998Y008803
X008998Y008803
X012495Y016746
X010495Y016746
X013495Y016746
X011495Y016746
X009000Y014793
X010998Y008803
X012998Y008803
X014998Y008803
X008000Y014793
X011998Y008803
X013998Y008803
X002000Y014801
X004000Y014801
X006000Y014801
X003000Y014801
X005000Y014801
X010000Y014793
X011000Y014793
T101
X015777Y007796
X006998Y010814
X011998Y012422
X013411Y007018
X002492Y015783
T102
X008500Y005000
X008000Y006504
X009500Y005000
X011500Y005804
X012500Y005804
X006496Y001998
X008000Y007504
X011500Y002797
X011500Y003797
X010501Y001004
X011500Y004797
X010500Y002004
X007500Y005000
X006504Y001000
X013992Y009807
X010499Y003500
X006504Y003500
T00
M30
