; NON-PLATED HOLES START AT T1
; THROUGH (PLATED) HOLES START AT T100
M48
INCH
T100C0.039370
T101C0.015748
T102C0.038000
%
T100
X013992Y014792
X012992Y014792
X014992Y014792
X004495Y016746
X009495Y016746
X007495Y016746
X005495Y016746
X003495Y016746
X008495Y016746
X006495Y016746
X002998Y008803
X004998Y008803
X001998Y008803
X003998Y008803
X005998Y008803
X007998Y008803
X009998Y008803
X006998Y008803
X008998Y008803
X012495Y016746
X010495Y016746
X013495Y016746
X011495Y016746
X010998Y008803
X012998Y008803
X014998Y008803
X002993Y014793
X004993Y014793
X006993Y014793
X011998Y008803
X013998Y008803
X001993Y014793
X003993Y014793
X005993Y014793
X007993Y014793
X009993Y014793
X008993Y014793
T101
X012495Y010777
X009998Y011958
X007998Y012333
X007998Y013833
X008998Y011222
X005998Y013472
X006998Y013111
X013495Y010333
X011495Y011222
X010998Y013787
X008998Y012750
T102
X008500Y005000
X008000Y006504
X009500Y005000
X011500Y005804
X012500Y005804
X006496Y001998
X008000Y007504
X011500Y002797
X011500Y003797
X010501Y001004
X011500Y004797
X010500Y002004
X007500Y005000
X006504Y001000
X010499Y003500
X006504Y003500
T00
M30
