<?xml version="1.0" encoding="utf-8" standalone="no"?>
<svg xmlns="http://www.w3.org/2000/svg" version="1.1" x="0in" y="0in" width="1.7in" height="1.75in" viewBox="0 0 170 175">
<g id="board"><polygon id="boardoutline" fill="#FFFFFF" fill-opacity="0.5" points="0 20 20 20 20 0 150 0 150 20 170 20 170 155 150 155 150 175 20 175 20 155 0 155"/></g>
<g id="silkscreen"><polygon fill="none" stroke="#444444" points="0 20 20 20 20 0 150 0 150 20 170 20 170 155 150 155 150 175 20 175 20 155 0 155"/></g>
<g id="silkscreen0"><polygon fill="none" stroke="#111111" points="0 20 20 20 20 0 150 0 150 20 170 20 170 155 150 155 150 175 20 175 20 155 0 155"/></g>
</svg>