G04 MADE WITH FRITZING*
G04 WWW.FRITZING.ORG*
G04 DOUBLE SIDED*
G04 HOLES PLATED*
G04 CONTOUR ON CENTER OF CONTOUR VECTOR*
%ASAXBY*%
%FSLAX23Y23*%
%MOIN*%
%OFA0B0*%
%SFA1.0B1.0*%
%ADD10C,0.039370*%
%ADD11C,0.070866*%
%ADD12C,0.078000*%
%ADD13R,0.078000X0.078000*%
%ADD14C,0.008000*%
%ADD15C,0.024000*%
%ADD16C,0.012000*%
%LNCOPPER0*%
G90*
G70*
G54D10*
X1150Y1122D03*
X1250Y1078D03*
X1350Y1033D03*
X800Y1383D03*
X600Y1347D03*
X700Y1311D03*
X900Y1275D03*
X1000Y1196D03*
X800Y1233D03*
X900Y1122D03*
X1100Y1379D03*
G54D11*
X1499Y1479D03*
X1399Y1479D03*
X1299Y1479D03*
X999Y1479D03*
X899Y1479D03*
X799Y1479D03*
X699Y1479D03*
X599Y1479D03*
X499Y1479D03*
X399Y1479D03*
X299Y1479D03*
X199Y1479D03*
X1500Y880D03*
X1400Y880D03*
X1300Y880D03*
X1200Y880D03*
X1100Y880D03*
X1000Y880D03*
X900Y880D03*
X800Y880D03*
X700Y880D03*
X600Y880D03*
X500Y880D03*
X400Y880D03*
X300Y880D03*
X200Y880D03*
G54D12*
X1050Y100D03*
X650Y100D03*
X650Y350D03*
X1050Y200D03*
X1050Y350D03*
X650Y200D03*
G54D11*
X350Y1675D03*
X450Y1675D03*
X550Y1675D03*
X650Y1675D03*
X750Y1675D03*
X850Y1675D03*
X950Y1675D03*
X1050Y1675D03*
X1150Y1675D03*
X1250Y1675D03*
X1350Y1675D03*
X350Y1675D03*
X450Y1675D03*
X550Y1675D03*
X650Y1675D03*
X750Y1675D03*
X850Y1675D03*
X950Y1675D03*
X1050Y1675D03*
X1150Y1675D03*
X1250Y1675D03*
X1350Y1675D03*
G54D12*
X800Y750D03*
X800Y650D03*
X1150Y580D03*
X1250Y580D03*
X1150Y280D03*
X1150Y380D03*
X1150Y480D03*
X750Y500D03*
X850Y500D03*
X950Y500D03*
G54D13*
X750Y500D03*
G54D14*
X650Y1600D02*
X650Y1649D01*
D02*
X500Y1417D02*
X249Y1417D01*
D02*
X249Y1417D02*
X249Y1600D01*
D02*
X249Y1600D02*
X650Y1600D01*
D02*
X400Y1554D02*
X850Y1554D01*
D02*
X850Y1554D02*
X850Y1649D01*
D02*
X300Y1577D02*
X750Y1577D01*
D02*
X750Y1577D02*
X750Y1649D01*
G54D15*
D02*
X1500Y982D02*
X1100Y982D01*
D02*
X1500Y911D02*
X1500Y982D01*
G54D14*
D02*
X1350Y1047D02*
X1350Y1649D01*
D02*
X1250Y1091D02*
X1250Y1649D01*
D02*
X1150Y1136D02*
X1150Y1649D01*
D02*
X1050Y1122D02*
X1050Y1649D01*
D02*
X950Y1233D02*
X950Y1649D01*
G54D16*
D02*
X35Y1383D02*
X786Y1383D01*
D02*
X35Y271D02*
X35Y1383D01*
D02*
X462Y271D02*
X35Y271D01*
D02*
X462Y100D02*
X462Y271D01*
D02*
X626Y100D02*
X462Y100D01*
D02*
X586Y1347D02*
X61Y1347D01*
D02*
X61Y1347D02*
X61Y297D01*
D02*
X61Y297D02*
X510Y297D01*
D02*
X510Y297D02*
X510Y200D01*
D02*
X510Y200D02*
X625Y200D01*
D02*
X686Y1311D02*
X88Y1311D01*
D02*
X88Y1311D02*
X88Y324D01*
D02*
X556Y275D02*
X1050Y275D01*
D02*
X556Y324D02*
X556Y275D01*
D02*
X88Y324D02*
X556Y324D01*
D02*
X1050Y275D02*
X1050Y225D01*
D02*
X886Y1275D02*
X114Y1275D01*
D02*
X114Y1275D02*
X114Y350D01*
D02*
X114Y350D02*
X626Y350D01*
D02*
X986Y1196D02*
X140Y1196D01*
D02*
X140Y1196D02*
X140Y425D01*
D02*
X140Y425D02*
X1050Y425D01*
D02*
X1050Y425D02*
X1050Y375D01*
G54D14*
D02*
X913Y1122D02*
X1050Y1122D01*
D02*
X813Y1233D02*
X950Y1233D01*
G54D15*
D02*
X1100Y1360D02*
X1100Y982D01*
G54D14*
D02*
X500Y1417D02*
X500Y1455D01*
D02*
X299Y1504D02*
X300Y1577D01*
D02*
X400Y1554D02*
X400Y1504D01*
G54D15*
D02*
X1500Y280D02*
X1180Y280D01*
D02*
X1500Y850D02*
X1500Y280D01*
D02*
X1400Y850D02*
X1400Y380D01*
D02*
X1400Y380D02*
X1180Y380D01*
D02*
X1341Y668D02*
X1341Y480D01*
D02*
X1300Y668D02*
X1341Y668D01*
D02*
X1300Y850D02*
X1300Y668D01*
D02*
X1341Y480D02*
X1180Y480D01*
D02*
X1192Y667D02*
X952Y667D01*
D02*
X952Y667D02*
X866Y526D01*
D02*
X1233Y606D02*
X1192Y667D01*
D02*
X1004Y581D02*
X967Y525D01*
D02*
X1120Y580D02*
X1004Y581D01*
G54D16*
D02*
X700Y650D02*
X700Y855D01*
D02*
X775Y650D02*
X700Y650D01*
G04 End of Copper0*
M02*