; NON-PLATED HOLES START AT T1
; THROUGH (PLATED) HOLES START AT T100
M48
INCH
T100C0.039370
T101C0.038000
T102C0.015748
%
T100
X008495Y016746
X006495Y016746
X004495Y016746
X001998Y014795
X003998Y014795
X009495Y016746
X007495Y016746
X005495Y016746
X002998Y014795
X004998Y014795
X006998Y014795
X008998Y014795
X001998Y008803
X003998Y008803
X005998Y014795
X007998Y014795
X009998Y014795
X002998Y008803
X004998Y008803
X006998Y008803
X008998Y008803
X005998Y008803
X007998Y008803
X009998Y008803
X013495Y016746
X011495Y016746
X012495Y016746
X010495Y016746
X011998Y014795
X013998Y014795
X010998Y014795
X012998Y014795
X014998Y014795
X011998Y008803
X013998Y008803
X010998Y008803
X012998Y008803
X014998Y008803
X003495Y016746
T101
X009500Y005000
X011500Y005804
X012500Y005804
X006496Y001998
X010499Y003500
X008000Y006504
X011500Y002797
X008000Y007504
X011500Y003797
X010501Y001004
X011500Y004797
X010500Y002004
X006504Y001000
X007500Y005000
X006504Y003500
X008500Y005000
T102
X002492Y015783
T00
M30
