G04 MADE WITH FRITZING*
G04 WWW.FRITZING.ORG*
G04 DOUBLE SIDED*
G04 HOLES PLATED*
G04 CONTOUR ON CENTER OF CONTOUR VECTOR*
%ASAXBY*%
%FSLAX23Y23*%
%MOIN*%
%OFA0B0*%
%SFA1.0B1.0*%
%ADD10C,0.010000*%
%ADD11C,0.005000*%
%ADD12R,0.001000X0.001000*%
%LNSILK1*%
G90*
G70*
G54D10*
X1550Y930D02*
X150Y930D01*
D02*
X150Y930D02*
X150Y830D01*
D02*
X150Y830D02*
X1550Y830D01*
D02*
X1550Y830D02*
X1550Y930D01*
G54D11*
D02*
X1515Y930D02*
X1550Y895D01*
G54D10*
D02*
X1550Y1530D02*
X150Y1530D01*
D02*
X150Y1530D02*
X150Y1430D01*
D02*
X150Y1430D02*
X1550Y1430D01*
D02*
X1550Y1430D02*
X1550Y1530D01*
G54D11*
D02*
X1515Y1530D02*
X1550Y1495D01*
G54D10*
D02*
X1000Y150D02*
X1000Y50D01*
D02*
X1000Y50D02*
X1100Y50D01*
D02*
X1100Y50D02*
X1100Y150D01*
D02*
X1100Y150D02*
X1000Y150D01*
G54D11*
D02*
X1000Y115D02*
X1035Y150D01*
G54D10*
D02*
X600Y150D02*
X600Y50D01*
D02*
X600Y50D02*
X700Y50D01*
D02*
X700Y50D02*
X700Y150D01*
D02*
X700Y150D02*
X600Y150D01*
G54D11*
D02*
X600Y115D02*
X635Y150D01*
G54D10*
D02*
X600Y400D02*
X600Y300D01*
D02*
X600Y300D02*
X700Y300D01*
D02*
X700Y300D02*
X700Y400D01*
D02*
X700Y400D02*
X600Y400D01*
G54D11*
D02*
X600Y365D02*
X635Y400D01*
G54D10*
D02*
X1000Y250D02*
X1000Y150D01*
D02*
X1000Y150D02*
X1100Y150D01*
D02*
X1100Y150D02*
X1100Y250D01*
D02*
X1100Y250D02*
X1000Y250D01*
G54D11*
D02*
X1000Y215D02*
X1035Y250D01*
G54D10*
D02*
X1000Y400D02*
X1000Y300D01*
D02*
X1000Y300D02*
X1100Y300D01*
D02*
X1100Y300D02*
X1100Y400D01*
D02*
X1100Y400D02*
X1000Y400D01*
G54D11*
D02*
X1000Y365D02*
X1035Y400D01*
G54D10*
D02*
X600Y250D02*
X600Y150D01*
D02*
X600Y150D02*
X700Y150D01*
D02*
X700Y150D02*
X700Y250D01*
D02*
X700Y250D02*
X600Y250D01*
G54D11*
D02*
X600Y215D02*
X635Y250D01*
G54D10*
D02*
X750Y800D02*
X750Y600D01*
D02*
X750Y600D02*
X850Y600D01*
D02*
X850Y600D02*
X850Y800D01*
D02*
X850Y800D02*
X750Y800D01*
G54D11*
D02*
X750Y765D02*
X785Y800D01*
G54D10*
D02*
X1100Y530D02*
X1300Y530D01*
D02*
X1300Y530D02*
X1300Y630D01*
D02*
X1300Y630D02*
X1100Y630D01*
D02*
X1100Y630D02*
X1100Y530D01*
G54D11*
D02*
X1135Y530D02*
X1100Y565D01*
G54D10*
D02*
X1200Y230D02*
X1200Y530D01*
D02*
X1200Y530D02*
X1100Y530D01*
D02*
X1100Y530D02*
X1100Y230D01*
D02*
X1100Y230D02*
X1200Y230D01*
G54D11*
D02*
X1200Y265D02*
X1165Y230D01*
G54D10*
D02*
X700Y450D02*
X1000Y450D01*
X1000Y450D02*
X1000Y550D01*
X1000Y550D02*
X700Y550D01*
X700Y550D02*
X700Y450D01*
G36*
X55Y575D02*
X55Y565D01*
X95Y565D01*
X95Y575D01*
X55Y575D01*
G37*
D02*
G36*
X232Y575D02*
X232Y565D01*
X242Y565D01*
X242Y575D01*
X232Y575D01*
G37*
D02*
G36*
X272Y575D02*
X272Y565D01*
X262Y565D01*
X262Y555D01*
X272Y555D01*
X272Y526D01*
X282Y526D01*
X282Y555D01*
X291Y555D01*
X291Y565D01*
X282Y565D01*
X282Y575D01*
X272Y575D01*
G37*
D02*
G36*
X370Y575D02*
X370Y526D01*
X380Y526D01*
X380Y575D01*
X370Y575D01*
G37*
D02*
G36*
X478Y575D02*
X478Y565D01*
X469Y565D01*
X469Y555D01*
X478Y555D01*
X478Y526D01*
X488Y526D01*
X488Y555D01*
X498Y555D01*
X498Y565D01*
X488Y565D01*
X488Y575D01*
X478Y575D01*
G37*
D02*
G36*
X606Y575D02*
X606Y565D01*
X646Y565D01*
X646Y575D01*
X606Y575D01*
G37*
D02*
G36*
X45Y565D02*
X45Y555D01*
X55Y555D01*
X55Y565D01*
X45Y565D01*
G37*
D02*
G36*
X114Y565D02*
X114Y506D01*
X124Y506D01*
X124Y526D01*
X154Y526D01*
X154Y536D01*
X124Y536D01*
X124Y555D01*
X154Y555D01*
X154Y565D01*
X114Y565D01*
G37*
D02*
G36*
X183Y565D02*
X183Y555D01*
X213Y555D01*
X213Y565D01*
X183Y565D01*
G37*
D02*
G36*
X321Y565D02*
X321Y555D01*
X350Y555D01*
X350Y565D01*
X321Y565D01*
G37*
D02*
G36*
X419Y565D02*
X419Y555D01*
X449Y555D01*
X449Y565D01*
X419Y565D01*
G37*
D02*
G36*
X537Y565D02*
X537Y545D01*
X547Y545D01*
X547Y565D01*
X537Y565D01*
G37*
D02*
G36*
X577Y565D02*
X577Y545D01*
X587Y545D01*
X587Y565D01*
X577Y565D01*
G37*
D02*
G36*
X597Y565D02*
X597Y555D01*
X606Y555D01*
X606Y565D01*
X597Y565D01*
G37*
D02*
G36*
X646Y565D02*
X646Y545D01*
X656Y545D01*
X656Y565D01*
X646Y565D01*
G37*
D02*
G36*
X55Y555D02*
X55Y545D01*
X95Y545D01*
X95Y555D01*
X55Y555D01*
G37*
D02*
G36*
X154Y555D02*
X154Y536D01*
X163Y536D01*
X163Y555D01*
X154Y555D01*
G37*
D02*
G36*
X173Y555D02*
X173Y516D01*
X183Y516D01*
X183Y555D01*
X173Y555D01*
G37*
D02*
G36*
X223Y555D02*
X223Y545D01*
X232Y545D01*
X232Y526D01*
X223Y526D01*
X223Y516D01*
X252Y516D01*
X252Y526D01*
X242Y526D01*
X242Y555D01*
X223Y555D01*
G37*
D02*
G36*
X311Y555D02*
X311Y526D01*
X321Y526D01*
X321Y536D01*
X350Y536D01*
X350Y545D01*
X321Y545D01*
X321Y555D01*
X311Y555D01*
G37*
D02*
G36*
X350Y555D02*
X350Y545D01*
X360Y545D01*
X360Y555D01*
X350Y555D01*
G37*
D02*
G36*
X410Y555D02*
X410Y526D01*
X419Y526D01*
X419Y536D01*
X449Y536D01*
X449Y545D01*
X419Y545D01*
X419Y555D01*
X410Y555D01*
G37*
D02*
G36*
X449Y555D02*
X449Y545D01*
X459Y545D01*
X459Y555D01*
X449Y555D01*
G37*
D02*
G36*
X95Y545D02*
X95Y526D01*
X104Y526D01*
X104Y545D01*
X95Y545D01*
G37*
D02*
G36*
X547Y545D02*
X547Y526D01*
X557Y526D01*
X557Y545D01*
X547Y545D01*
G37*
D02*
G36*
X567Y545D02*
X567Y526D01*
X577Y526D01*
X577Y545D01*
X567Y545D01*
G37*
D02*
G36*
X606Y545D02*
X606Y536D01*
X646Y536D01*
X646Y545D01*
X606Y545D01*
G37*
D02*
G36*
X45Y536D02*
X45Y526D01*
X55Y526D01*
X55Y536D01*
X45Y536D01*
G37*
D02*
G36*
X597Y536D02*
X597Y516D01*
X656Y516D01*
X656Y526D01*
X606Y526D01*
X606Y536D01*
X597Y536D01*
G37*
D02*
G36*
X55Y526D02*
X55Y516D01*
X95Y516D01*
X95Y526D01*
X55Y526D01*
G37*
D02*
G36*
X282Y526D02*
X282Y516D01*
X301Y516D01*
X301Y526D01*
X282Y526D01*
G37*
D02*
G36*
X321Y526D02*
X321Y516D01*
X360Y516D01*
X360Y526D01*
X321Y526D01*
G37*
D02*
G36*
X380Y526D02*
X380Y516D01*
X400Y516D01*
X400Y526D01*
X380Y526D01*
G37*
D02*
G36*
X419Y526D02*
X419Y516D01*
X459Y516D01*
X459Y526D01*
X419Y526D01*
G37*
D02*
G36*
X488Y526D02*
X488Y516D01*
X508Y516D01*
X508Y526D01*
X488Y526D01*
G37*
D02*
G36*
X557Y526D02*
X557Y516D01*
X567Y516D01*
X567Y526D01*
X557Y526D01*
G37*
D02*
G36*
X129Y496D02*
X129Y491D01*
X134Y491D01*
X134Y496D01*
X129Y496D01*
G37*
D02*
G36*
X208Y496D02*
X208Y491D01*
X203Y491D01*
X203Y486D01*
X208Y486D01*
X208Y472D01*
X213Y472D01*
X213Y486D01*
X218Y486D01*
X218Y491D01*
X213Y491D01*
X213Y496D01*
X208Y496D01*
G37*
D02*
G36*
X562Y496D02*
X562Y491D01*
X557Y491D01*
X557Y486D01*
X562Y486D01*
X562Y472D01*
X567Y472D01*
X567Y486D01*
X572Y486D01*
X572Y491D01*
X567Y491D01*
X567Y496D01*
X562Y496D01*
G37*
D02*
G36*
X159Y491D02*
X159Y467D01*
X163Y467D01*
X163Y486D01*
X178Y486D01*
X178Y491D01*
X159Y491D01*
G37*
D02*
G36*
X242Y491D02*
X242Y486D01*
X257Y486D01*
X257Y491D01*
X242Y491D01*
G37*
D02*
G36*
X287Y491D02*
X287Y486D01*
X301Y486D01*
X301Y491D01*
X287Y491D01*
G37*
D02*
G36*
X326Y491D02*
X326Y486D01*
X341Y486D01*
X341Y491D01*
X326Y491D01*
G37*
D02*
G36*
X360Y491D02*
X360Y486D01*
X375Y486D01*
X375Y491D01*
X360Y491D01*
G37*
D02*
G36*
X395Y491D02*
X395Y467D01*
X400Y467D01*
X400Y486D01*
X414Y486D01*
X414Y491D01*
X395Y491D01*
G37*
D02*
G36*
X434Y491D02*
X434Y467D01*
X439Y467D01*
X439Y486D01*
X454Y486D01*
X454Y491D01*
X434Y491D01*
G37*
D02*
G36*
X478Y491D02*
X478Y486D01*
X493Y486D01*
X493Y491D01*
X478Y491D01*
G37*
D02*
G36*
X523Y491D02*
X523Y486D01*
X537Y486D01*
X537Y491D01*
X523Y491D01*
G37*
D02*
G36*
X124Y486D02*
X124Y482D01*
X129Y482D01*
X129Y472D01*
X124Y472D01*
X124Y467D01*
X139Y467D01*
X139Y472D01*
X134Y472D01*
X134Y486D01*
X124Y486D01*
G37*
D02*
G36*
X178Y486D02*
X178Y467D01*
X183Y467D01*
X183Y486D01*
X178Y486D01*
G37*
D02*
G36*
X237Y486D02*
X237Y472D01*
X242Y472D01*
X242Y477D01*
X257Y477D01*
X257Y482D01*
X242Y482D01*
X242Y486D01*
X237Y486D01*
G37*
D02*
G36*
X257Y486D02*
X257Y482D01*
X262Y482D01*
X262Y486D01*
X257Y486D01*
G37*
D02*
G36*
X282Y486D02*
X282Y467D01*
X287Y467D01*
X287Y486D01*
X282Y486D01*
G37*
D02*
G36*
X321Y486D02*
X321Y472D01*
X326Y472D01*
X326Y486D01*
X321Y486D01*
G37*
D02*
G36*
X355Y486D02*
X355Y472D01*
X360Y472D01*
X360Y486D01*
X355Y486D01*
G37*
D02*
G36*
X375Y486D02*
X375Y472D01*
X380Y472D01*
X380Y486D01*
X375Y486D01*
G37*
D02*
G36*
X414Y486D02*
X414Y467D01*
X419Y467D01*
X419Y486D01*
X414Y486D01*
G37*
D02*
G36*
X454Y486D02*
X454Y467D01*
X459Y467D01*
X459Y486D01*
X454Y486D01*
G37*
D02*
G36*
X474Y486D02*
X474Y472D01*
X478Y472D01*
X478Y477D01*
X493Y477D01*
X493Y482D01*
X478Y482D01*
X478Y486D01*
X474Y486D01*
G37*
D02*
G36*
X493Y486D02*
X493Y482D01*
X498Y482D01*
X498Y486D01*
X493Y486D01*
G37*
D02*
G36*
X518Y486D02*
X518Y472D01*
X523Y472D01*
X523Y486D01*
X518Y486D01*
G37*
D02*
G36*
X213Y472D02*
X213Y467D01*
X223Y467D01*
X223Y472D01*
X213Y472D01*
G37*
D02*
G36*
X242Y472D02*
X242Y467D01*
X262Y467D01*
X262Y472D01*
X242Y472D01*
G37*
D02*
G36*
X326Y472D02*
X326Y467D01*
X341Y467D01*
X341Y472D01*
X326Y472D01*
G37*
D02*
G36*
X360Y472D02*
X360Y467D01*
X375Y467D01*
X375Y472D01*
X360Y472D01*
G37*
D02*
G36*
X478Y472D02*
X478Y467D01*
X498Y467D01*
X498Y472D01*
X478Y472D01*
G37*
D02*
G36*
X523Y472D02*
X523Y467D01*
X537Y467D01*
X537Y472D01*
X523Y472D01*
G37*
D02*
G36*
X567Y472D02*
X567Y467D01*
X577Y467D01*
X577Y472D01*
X567Y472D01*
G37*
D02*
G36*
X45Y452D02*
X45Y422D01*
X50Y422D01*
X50Y432D01*
X55Y432D01*
X55Y442D01*
X50Y442D01*
X50Y452D01*
X45Y452D01*
G37*
D02*
G36*
X208Y452D02*
X208Y447D01*
X203Y447D01*
X203Y442D01*
X208Y442D01*
X208Y427D01*
X213Y427D01*
X213Y442D01*
X218Y442D01*
X218Y447D01*
X213Y447D01*
X213Y452D01*
X208Y452D01*
G37*
D02*
G36*
X247Y452D02*
X247Y447D01*
X252Y447D01*
X252Y452D01*
X247Y452D01*
G37*
D02*
G36*
X360Y452D02*
X360Y422D01*
X365Y422D01*
X365Y432D01*
X370Y432D01*
X370Y442D01*
X365Y442D01*
X365Y452D01*
X360Y452D01*
G37*
D02*
G36*
X55Y447D02*
X55Y442D01*
X60Y442D01*
X60Y447D01*
X55Y447D01*
G37*
D02*
G36*
X90Y447D02*
X90Y442D01*
X104Y442D01*
X104Y447D01*
X90Y447D01*
G37*
D02*
G36*
X124Y447D02*
X124Y442D01*
X139Y442D01*
X139Y447D01*
X124Y447D01*
G37*
D02*
G36*
X163Y447D02*
X163Y442D01*
X178Y442D01*
X178Y447D01*
X163Y447D01*
G37*
D02*
G36*
X277Y447D02*
X277Y437D01*
X282Y437D01*
X282Y447D01*
X277Y447D01*
G37*
D02*
G36*
X296Y447D02*
X296Y437D01*
X301Y437D01*
X301Y447D01*
X296Y447D01*
G37*
D02*
G36*
X321Y447D02*
X321Y442D01*
X336Y442D01*
X336Y447D01*
X321Y447D01*
G37*
D02*
G36*
X370Y447D02*
X370Y442D01*
X375Y442D01*
X375Y447D01*
X370Y447D01*
G37*
D02*
G36*
X400Y447D02*
X400Y442D01*
X414Y442D01*
X414Y447D01*
X400Y447D01*
G37*
D02*
G36*
X444Y447D02*
X444Y442D01*
X459Y442D01*
X459Y447D01*
X444Y447D01*
G37*
D02*
G36*
X474Y447D02*
X474Y418D01*
X478Y418D01*
X478Y427D01*
X493Y427D01*
X493Y432D01*
X478Y432D01*
X478Y442D01*
X493Y442D01*
X493Y447D01*
X474Y447D01*
G37*
D02*
G36*
X562Y447D02*
X562Y442D01*
X577Y442D01*
X577Y447D01*
X562Y447D01*
G37*
D02*
G36*
X597Y447D02*
X597Y442D01*
X611Y442D01*
X611Y447D01*
X597Y447D01*
G37*
D02*
G36*
X631Y447D02*
X631Y422D01*
X636Y422D01*
X636Y442D01*
X641Y442D01*
X641Y447D01*
X631Y447D01*
G37*
D02*
G36*
X646Y447D02*
X646Y442D01*
X651Y442D01*
X651Y447D01*
X646Y447D01*
G37*
D02*
G36*
X85Y442D02*
X85Y422D01*
X90Y422D01*
X90Y442D01*
X85Y442D01*
G37*
D02*
G36*
X119Y442D02*
X119Y427D01*
X124Y427D01*
X124Y432D01*
X139Y432D01*
X139Y437D01*
X124Y437D01*
X124Y442D01*
X119Y442D01*
G37*
D02*
G36*
X139Y442D02*
X139Y437D01*
X144Y437D01*
X144Y442D01*
X139Y442D01*
G37*
D02*
G36*
X178Y442D02*
X178Y437D01*
X163Y437D01*
X163Y432D01*
X178Y432D01*
X178Y427D01*
X163Y427D01*
X163Y422D01*
X183Y422D01*
X183Y442D01*
X178Y442D01*
G37*
D02*
G36*
X242Y442D02*
X242Y437D01*
X247Y437D01*
X247Y427D01*
X242Y427D01*
X242Y422D01*
X257Y422D01*
X257Y427D01*
X252Y427D01*
X252Y442D01*
X242Y442D01*
G37*
D02*
G36*
X316Y442D02*
X316Y427D01*
X321Y427D01*
X321Y432D01*
X336Y432D01*
X336Y437D01*
X321Y437D01*
X321Y442D01*
X316Y442D01*
G37*
D02*
G36*
X336Y442D02*
X336Y437D01*
X341Y437D01*
X341Y442D01*
X336Y442D01*
G37*
D02*
G36*
X395Y442D02*
X395Y427D01*
X400Y427D01*
X400Y442D01*
X395Y442D01*
G37*
D02*
G36*
X414Y442D02*
X414Y427D01*
X419Y427D01*
X419Y442D01*
X414Y442D01*
G37*
D02*
G36*
X439Y442D02*
X439Y422D01*
X444Y422D01*
X444Y442D01*
X439Y442D01*
G37*
D02*
G36*
X493Y442D02*
X493Y432D01*
X498Y432D01*
X498Y442D01*
X493Y442D01*
G37*
D02*
G36*
X557Y442D02*
X557Y427D01*
X562Y427D01*
X562Y442D01*
X557Y442D01*
G37*
D02*
G36*
X592Y442D02*
X592Y427D01*
X597Y427D01*
X597Y442D01*
X592Y442D01*
G37*
D02*
G36*
X611Y442D02*
X611Y427D01*
X616Y427D01*
X616Y442D01*
X611Y442D01*
G37*
D02*
G36*
X641Y442D02*
X641Y422D01*
X646Y422D01*
X646Y442D01*
X641Y442D01*
G37*
D02*
G36*
X651Y442D02*
X651Y422D01*
X656Y422D01*
X656Y442D01*
X651Y442D01*
G37*
D02*
G36*
X282Y437D02*
X282Y427D01*
X287Y427D01*
X287Y437D01*
X282Y437D01*
G37*
D02*
G36*
X291Y437D02*
X291Y427D01*
X296Y427D01*
X296Y437D01*
X291Y437D01*
G37*
D02*
G36*
X55Y432D02*
X55Y427D01*
X60Y427D01*
X60Y432D01*
X55Y432D01*
G37*
D02*
G36*
X159Y432D02*
X159Y427D01*
X163Y427D01*
X163Y432D01*
X159Y432D01*
G37*
D02*
G36*
X370Y432D02*
X370Y427D01*
X375Y427D01*
X375Y432D01*
X370Y432D01*
G37*
D02*
G36*
X523Y432D02*
X523Y422D01*
X533Y422D01*
X533Y432D01*
X523Y432D01*
G37*
D02*
G36*
X60Y427D02*
X60Y422D01*
X65Y422D01*
X65Y427D01*
X60Y427D01*
G37*
D02*
G36*
X124Y427D02*
X124Y422D01*
X144Y422D01*
X144Y427D01*
X124Y427D01*
G37*
D02*
G36*
X213Y427D02*
X213Y422D01*
X223Y422D01*
X223Y427D01*
X213Y427D01*
G37*
D02*
G36*
X287Y427D02*
X287Y422D01*
X291Y422D01*
X291Y427D01*
X287Y427D01*
G37*
D02*
G36*
X321Y427D02*
X321Y422D01*
X341Y422D01*
X341Y427D01*
X321Y427D01*
G37*
D02*
G36*
X375Y427D02*
X375Y422D01*
X380Y422D01*
X380Y427D01*
X375Y427D01*
G37*
D02*
G36*
X400Y427D02*
X400Y422D01*
X414Y422D01*
X414Y427D01*
X400Y427D01*
G37*
D02*
G36*
X562Y427D02*
X562Y422D01*
X577Y422D01*
X577Y427D01*
X562Y427D01*
G37*
D02*
G36*
X597Y427D02*
X597Y422D01*
X611Y422D01*
X611Y427D01*
X597Y427D01*
G37*
D02*
X398Y132D02*
X386Y120D01*
X356Y149D01*
X356Y122D01*
X339Y121D01*
X339Y194D01*
X356Y194D01*
X356Y167D01*
X385Y195D01*
X397Y183D01*
X372Y158D01*
X398Y132D01*
D02*
X431Y85D02*
X456Y60D01*
X444Y48D01*
X415Y77D01*
X415Y50D01*
X398Y50D01*
X398Y121D01*
X415Y121D01*
X415Y94D01*
X443Y122D01*
X455Y110D01*
X431Y85D01*
D02*
G54D12*
X195Y1750D02*
X1504Y1750D01*
X195Y1749D02*
X1504Y1749D01*
X195Y1748D02*
X1504Y1748D01*
X195Y1747D02*
X1504Y1747D01*
X195Y1746D02*
X1504Y1746D01*
X195Y1745D02*
X204Y1745D01*
X1495Y1745D02*
X1504Y1745D01*
X195Y1744D02*
X204Y1744D01*
X1495Y1744D02*
X1504Y1744D01*
X195Y1743D02*
X204Y1743D01*
X1495Y1743D02*
X1504Y1743D01*
X195Y1742D02*
X204Y1742D01*
X1495Y1742D02*
X1504Y1742D01*
X195Y1741D02*
X204Y1741D01*
X1495Y1741D02*
X1504Y1741D01*
X195Y1740D02*
X204Y1740D01*
X1495Y1740D02*
X1504Y1740D01*
X195Y1739D02*
X204Y1739D01*
X1495Y1739D02*
X1504Y1739D01*
X195Y1738D02*
X204Y1738D01*
X1495Y1738D02*
X1504Y1738D01*
X195Y1737D02*
X204Y1737D01*
X1495Y1737D02*
X1504Y1737D01*
X195Y1736D02*
X204Y1736D01*
X1495Y1736D02*
X1504Y1736D01*
X195Y1735D02*
X204Y1735D01*
X1495Y1735D02*
X1504Y1735D01*
X195Y1734D02*
X204Y1734D01*
X1495Y1734D02*
X1504Y1734D01*
X195Y1733D02*
X204Y1733D01*
X1495Y1733D02*
X1504Y1733D01*
X195Y1732D02*
X204Y1732D01*
X1495Y1732D02*
X1504Y1732D01*
X195Y1731D02*
X204Y1731D01*
X1495Y1731D02*
X1504Y1731D01*
X195Y1730D02*
X204Y1730D01*
X1495Y1730D02*
X1504Y1730D01*
X195Y1729D02*
X204Y1729D01*
X1495Y1729D02*
X1504Y1729D01*
X195Y1728D02*
X204Y1728D01*
X1495Y1728D02*
X1504Y1728D01*
X195Y1727D02*
X204Y1727D01*
X1495Y1727D02*
X1504Y1727D01*
X195Y1726D02*
X204Y1726D01*
X1495Y1726D02*
X1504Y1726D01*
X195Y1725D02*
X204Y1725D01*
X1495Y1725D02*
X1504Y1725D01*
X195Y1724D02*
X204Y1724D01*
X1495Y1724D02*
X1504Y1724D01*
X195Y1723D02*
X204Y1723D01*
X1495Y1723D02*
X1504Y1723D01*
X195Y1722D02*
X204Y1722D01*
X1495Y1722D02*
X1504Y1722D01*
X195Y1721D02*
X204Y1721D01*
X1495Y1721D02*
X1504Y1721D01*
X195Y1720D02*
X204Y1720D01*
X1495Y1720D02*
X1504Y1720D01*
X195Y1719D02*
X204Y1719D01*
X1495Y1719D02*
X1504Y1719D01*
X195Y1718D02*
X204Y1718D01*
X1495Y1718D02*
X1504Y1718D01*
X195Y1717D02*
X204Y1717D01*
X1495Y1717D02*
X1504Y1717D01*
X195Y1716D02*
X204Y1716D01*
X1495Y1716D02*
X1504Y1716D01*
X195Y1715D02*
X204Y1715D01*
X1495Y1715D02*
X1504Y1715D01*
X195Y1714D02*
X204Y1714D01*
X1495Y1714D02*
X1504Y1714D01*
X195Y1713D02*
X204Y1713D01*
X1495Y1713D02*
X1504Y1713D01*
X195Y1712D02*
X204Y1712D01*
X1495Y1712D02*
X1504Y1712D01*
X195Y1711D02*
X204Y1711D01*
X1495Y1711D02*
X1504Y1711D01*
X195Y1710D02*
X204Y1710D01*
X1495Y1710D02*
X1504Y1710D01*
X195Y1709D02*
X204Y1709D01*
X1495Y1709D02*
X1504Y1709D01*
X195Y1708D02*
X204Y1708D01*
X1495Y1708D02*
X1504Y1708D01*
X195Y1707D02*
X204Y1707D01*
X1495Y1707D02*
X1504Y1707D01*
X195Y1706D02*
X204Y1706D01*
X1495Y1706D02*
X1504Y1706D01*
X195Y1705D02*
X204Y1705D01*
X1495Y1705D02*
X1504Y1705D01*
X195Y1704D02*
X204Y1704D01*
X1495Y1704D02*
X1504Y1704D01*
X195Y1703D02*
X204Y1703D01*
X1495Y1703D02*
X1504Y1703D01*
X195Y1702D02*
X204Y1702D01*
X1495Y1702D02*
X1504Y1702D01*
X195Y1701D02*
X204Y1701D01*
X1495Y1701D02*
X1504Y1701D01*
X195Y1700D02*
X204Y1700D01*
X1495Y1700D02*
X1504Y1700D01*
X195Y1699D02*
X204Y1699D01*
X1495Y1699D02*
X1504Y1699D01*
X195Y1698D02*
X204Y1698D01*
X1495Y1698D02*
X1504Y1698D01*
X195Y1697D02*
X204Y1697D01*
X1495Y1697D02*
X1504Y1697D01*
X195Y1696D02*
X204Y1696D01*
X1495Y1696D02*
X1504Y1696D01*
X195Y1695D02*
X204Y1695D01*
X1495Y1695D02*
X1504Y1695D01*
X195Y1694D02*
X204Y1694D01*
X1495Y1694D02*
X1504Y1694D01*
X195Y1693D02*
X204Y1693D01*
X1495Y1693D02*
X1504Y1693D01*
X195Y1692D02*
X204Y1692D01*
X1495Y1692D02*
X1504Y1692D01*
X195Y1691D02*
X204Y1691D01*
X1495Y1691D02*
X1504Y1691D01*
X195Y1690D02*
X204Y1690D01*
X1495Y1690D02*
X1504Y1690D01*
X195Y1689D02*
X204Y1689D01*
X1495Y1689D02*
X1504Y1689D01*
X195Y1688D02*
X204Y1688D01*
X1495Y1688D02*
X1504Y1688D01*
X195Y1687D02*
X204Y1687D01*
X1495Y1687D02*
X1504Y1687D01*
X195Y1686D02*
X204Y1686D01*
X1495Y1686D02*
X1504Y1686D01*
X195Y1685D02*
X204Y1685D01*
X1495Y1685D02*
X1504Y1685D01*
X195Y1684D02*
X204Y1684D01*
X1495Y1684D02*
X1504Y1684D01*
X195Y1683D02*
X204Y1683D01*
X1495Y1683D02*
X1504Y1683D01*
X195Y1682D02*
X204Y1682D01*
X1495Y1682D02*
X1504Y1682D01*
X195Y1681D02*
X204Y1681D01*
X1495Y1681D02*
X1504Y1681D01*
X195Y1680D02*
X204Y1680D01*
X1495Y1680D02*
X1504Y1680D01*
X195Y1679D02*
X204Y1679D01*
X1495Y1679D02*
X1504Y1679D01*
X195Y1678D02*
X204Y1678D01*
X1495Y1678D02*
X1504Y1678D01*
X195Y1677D02*
X204Y1677D01*
X1495Y1677D02*
X1504Y1677D01*
X195Y1676D02*
X204Y1676D01*
X1495Y1676D02*
X1504Y1676D01*
X195Y1675D02*
X204Y1675D01*
X1495Y1675D02*
X1504Y1675D01*
X195Y1674D02*
X204Y1674D01*
X1495Y1674D02*
X1504Y1674D01*
X195Y1673D02*
X204Y1673D01*
X1495Y1673D02*
X1504Y1673D01*
X195Y1672D02*
X204Y1672D01*
X1495Y1672D02*
X1504Y1672D01*
X195Y1671D02*
X204Y1671D01*
X1495Y1671D02*
X1504Y1671D01*
X195Y1670D02*
X204Y1670D01*
X1495Y1670D02*
X1504Y1670D01*
X195Y1669D02*
X204Y1669D01*
X1495Y1669D02*
X1504Y1669D01*
X195Y1668D02*
X204Y1668D01*
X1495Y1668D02*
X1504Y1668D01*
X195Y1667D02*
X204Y1667D01*
X1495Y1667D02*
X1504Y1667D01*
X195Y1666D02*
X204Y1666D01*
X1495Y1666D02*
X1504Y1666D01*
X195Y1665D02*
X204Y1665D01*
X1495Y1665D02*
X1504Y1665D01*
X195Y1664D02*
X204Y1664D01*
X1495Y1664D02*
X1504Y1664D01*
X195Y1663D02*
X204Y1663D01*
X1495Y1663D02*
X1504Y1663D01*
X195Y1662D02*
X204Y1662D01*
X1495Y1662D02*
X1504Y1662D01*
X195Y1661D02*
X204Y1661D01*
X1495Y1661D02*
X1504Y1661D01*
X195Y1660D02*
X204Y1660D01*
X1495Y1660D02*
X1504Y1660D01*
X195Y1659D02*
X204Y1659D01*
X1495Y1659D02*
X1504Y1659D01*
X195Y1658D02*
X204Y1658D01*
X1495Y1658D02*
X1504Y1658D01*
X195Y1657D02*
X204Y1657D01*
X1495Y1657D02*
X1504Y1657D01*
X195Y1656D02*
X204Y1656D01*
X1495Y1656D02*
X1504Y1656D01*
X195Y1655D02*
X204Y1655D01*
X1495Y1655D02*
X1504Y1655D01*
X195Y1654D02*
X204Y1654D01*
X1495Y1654D02*
X1504Y1654D01*
X195Y1653D02*
X204Y1653D01*
X1495Y1653D02*
X1504Y1653D01*
X195Y1652D02*
X204Y1652D01*
X1495Y1652D02*
X1504Y1652D01*
X195Y1651D02*
X204Y1651D01*
X1495Y1651D02*
X1504Y1651D01*
X195Y1650D02*
X204Y1650D01*
X1495Y1650D02*
X1504Y1650D01*
X195Y1649D02*
X204Y1649D01*
X1495Y1649D02*
X1504Y1649D01*
X195Y1648D02*
X204Y1648D01*
X1495Y1648D02*
X1504Y1648D01*
X195Y1647D02*
X204Y1647D01*
X1495Y1647D02*
X1504Y1647D01*
X195Y1646D02*
X204Y1646D01*
X1495Y1646D02*
X1504Y1646D01*
X195Y1645D02*
X204Y1645D01*
X1495Y1645D02*
X1504Y1645D01*
X195Y1644D02*
X204Y1644D01*
X1495Y1644D02*
X1504Y1644D01*
X195Y1643D02*
X204Y1643D01*
X1495Y1643D02*
X1504Y1643D01*
X195Y1642D02*
X204Y1642D01*
X1495Y1642D02*
X1504Y1642D01*
X195Y1641D02*
X204Y1641D01*
X1495Y1641D02*
X1504Y1641D01*
X195Y1640D02*
X204Y1640D01*
X1495Y1640D02*
X1504Y1640D01*
X195Y1639D02*
X204Y1639D01*
X1495Y1639D02*
X1504Y1639D01*
X195Y1638D02*
X204Y1638D01*
X1495Y1638D02*
X1504Y1638D01*
X195Y1637D02*
X204Y1637D01*
X1495Y1637D02*
X1504Y1637D01*
X195Y1636D02*
X204Y1636D01*
X1495Y1636D02*
X1504Y1636D01*
X195Y1635D02*
X204Y1635D01*
X1495Y1635D02*
X1504Y1635D01*
X195Y1634D02*
X204Y1634D01*
X1495Y1634D02*
X1504Y1634D01*
X195Y1633D02*
X204Y1633D01*
X1495Y1633D02*
X1504Y1633D01*
X195Y1632D02*
X204Y1632D01*
X1495Y1632D02*
X1504Y1632D01*
X195Y1631D02*
X204Y1631D01*
X1495Y1631D02*
X1504Y1631D01*
X195Y1630D02*
X204Y1630D01*
X1495Y1630D02*
X1504Y1630D01*
X195Y1629D02*
X204Y1629D01*
X1495Y1629D02*
X1504Y1629D01*
X195Y1628D02*
X204Y1628D01*
X1495Y1628D02*
X1504Y1628D01*
X195Y1627D02*
X204Y1627D01*
X1495Y1627D02*
X1504Y1627D01*
X195Y1626D02*
X204Y1626D01*
X1495Y1626D02*
X1504Y1626D01*
X195Y1625D02*
X204Y1625D01*
X1495Y1625D02*
X1504Y1625D01*
X195Y1624D02*
X204Y1624D01*
X1495Y1624D02*
X1504Y1624D01*
X195Y1623D02*
X204Y1623D01*
X1495Y1623D02*
X1504Y1623D01*
X195Y1622D02*
X204Y1622D01*
X1495Y1622D02*
X1504Y1622D01*
X195Y1621D02*
X204Y1621D01*
X1495Y1621D02*
X1504Y1621D01*
X195Y1620D02*
X204Y1620D01*
X1495Y1620D02*
X1504Y1620D01*
X195Y1619D02*
X204Y1619D01*
X1495Y1619D02*
X1504Y1619D01*
X195Y1618D02*
X204Y1618D01*
X1495Y1618D02*
X1504Y1618D01*
X195Y1617D02*
X204Y1617D01*
X1495Y1617D02*
X1504Y1617D01*
X195Y1616D02*
X204Y1616D01*
X1495Y1616D02*
X1504Y1616D01*
X195Y1615D02*
X204Y1615D01*
X1495Y1615D02*
X1504Y1615D01*
X195Y1614D02*
X204Y1614D01*
X1495Y1614D02*
X1504Y1614D01*
X195Y1613D02*
X204Y1613D01*
X1495Y1613D02*
X1504Y1613D01*
X195Y1612D02*
X204Y1612D01*
X1495Y1612D02*
X1504Y1612D01*
X195Y1611D02*
X204Y1611D01*
X1495Y1611D02*
X1504Y1611D01*
X195Y1610D02*
X204Y1610D01*
X1495Y1610D02*
X1504Y1610D01*
X195Y1609D02*
X204Y1609D01*
X1495Y1609D02*
X1504Y1609D01*
X195Y1608D02*
X204Y1608D01*
X1495Y1608D02*
X1504Y1608D01*
X195Y1607D02*
X204Y1607D01*
X1495Y1607D02*
X1504Y1607D01*
X195Y1606D02*
X204Y1606D01*
X1495Y1606D02*
X1504Y1606D01*
X195Y1605D02*
X204Y1605D01*
X1495Y1605D02*
X1504Y1605D01*
X195Y1604D02*
X204Y1604D01*
X1495Y1604D02*
X1504Y1604D01*
X195Y1603D02*
X204Y1603D01*
X1495Y1603D02*
X1504Y1603D01*
X195Y1602D02*
X204Y1602D01*
X1495Y1602D02*
X1504Y1602D01*
X195Y1601D02*
X204Y1601D01*
X1495Y1601D02*
X1504Y1601D01*
X195Y1600D02*
X204Y1600D01*
X1495Y1600D02*
X1504Y1600D01*
X195Y1599D02*
X204Y1599D01*
X1495Y1599D02*
X1504Y1599D01*
X195Y1598D02*
X204Y1598D01*
X1495Y1598D02*
X1504Y1598D01*
X195Y1597D02*
X204Y1597D01*
X1495Y1597D02*
X1504Y1597D01*
X195Y1596D02*
X204Y1596D01*
X1495Y1596D02*
X1504Y1596D01*
X195Y1595D02*
X204Y1595D01*
X1495Y1595D02*
X1504Y1595D01*
X195Y1594D02*
X204Y1594D01*
X1495Y1594D02*
X1504Y1594D01*
X195Y1593D02*
X204Y1593D01*
X1495Y1593D02*
X1504Y1593D01*
X195Y1592D02*
X204Y1592D01*
X1495Y1592D02*
X1504Y1592D01*
X195Y1591D02*
X204Y1591D01*
X1495Y1591D02*
X1504Y1591D01*
X195Y1590D02*
X204Y1590D01*
X1495Y1590D02*
X1504Y1590D01*
X195Y1589D02*
X204Y1589D01*
X1495Y1589D02*
X1504Y1589D01*
X195Y1588D02*
X204Y1588D01*
X1495Y1588D02*
X1504Y1588D01*
X195Y1587D02*
X204Y1587D01*
X1495Y1587D02*
X1504Y1587D01*
X195Y1586D02*
X204Y1586D01*
X1495Y1586D02*
X1504Y1586D01*
X195Y1585D02*
X204Y1585D01*
X1495Y1585D02*
X1504Y1585D01*
X195Y1584D02*
X204Y1584D01*
X1495Y1584D02*
X1504Y1584D01*
X195Y1583D02*
X204Y1583D01*
X1495Y1583D02*
X1504Y1583D01*
X195Y1582D02*
X204Y1582D01*
X1495Y1582D02*
X1504Y1582D01*
X195Y1581D02*
X204Y1581D01*
X1495Y1581D02*
X1504Y1581D01*
X195Y1580D02*
X204Y1580D01*
X1495Y1580D02*
X1504Y1580D01*
X195Y1579D02*
X204Y1579D01*
X1495Y1579D02*
X1504Y1579D01*
X195Y1578D02*
X204Y1578D01*
X1495Y1578D02*
X1504Y1578D01*
X195Y1577D02*
X204Y1577D01*
X1495Y1577D02*
X1504Y1577D01*
X195Y1576D02*
X204Y1576D01*
X1495Y1576D02*
X1504Y1576D01*
X195Y1575D02*
X204Y1575D01*
X1495Y1575D02*
X1504Y1575D01*
X195Y1574D02*
X204Y1574D01*
X1495Y1574D02*
X1504Y1574D01*
X195Y1573D02*
X204Y1573D01*
X1495Y1573D02*
X1504Y1573D01*
X195Y1572D02*
X204Y1572D01*
X1495Y1572D02*
X1504Y1572D01*
X195Y1571D02*
X204Y1571D01*
X1495Y1571D02*
X1504Y1571D01*
X195Y1570D02*
X204Y1570D01*
X1495Y1570D02*
X1504Y1570D01*
X195Y1569D02*
X204Y1569D01*
X1495Y1569D02*
X1504Y1569D01*
X195Y1568D02*
X204Y1568D01*
X1495Y1568D02*
X1504Y1568D01*
X195Y1567D02*
X204Y1567D01*
X1495Y1567D02*
X1504Y1567D01*
X195Y1566D02*
X204Y1566D01*
X1495Y1566D02*
X1504Y1566D01*
X195Y1565D02*
X204Y1565D01*
X1495Y1565D02*
X1504Y1565D01*
X195Y1564D02*
X204Y1564D01*
X1495Y1564D02*
X1504Y1564D01*
X195Y1563D02*
X204Y1563D01*
X1495Y1563D02*
X1504Y1563D01*
X195Y1562D02*
X204Y1562D01*
X1495Y1562D02*
X1504Y1562D01*
X195Y1561D02*
X204Y1561D01*
X1495Y1561D02*
X1504Y1561D01*
X195Y1560D02*
X204Y1560D01*
X1495Y1560D02*
X1504Y1560D01*
X195Y1559D02*
X204Y1559D01*
X1495Y1559D02*
X1504Y1559D01*
X195Y1558D02*
X204Y1558D01*
X1495Y1558D02*
X1504Y1558D01*
X195Y1557D02*
X204Y1557D01*
X1495Y1557D02*
X1504Y1557D01*
X195Y1556D02*
X204Y1556D01*
X1495Y1556D02*
X1504Y1556D01*
X0Y1555D02*
X204Y1555D01*
X0Y1554D02*
X204Y1554D01*
X0Y1553D02*
X204Y1553D01*
X0Y1552D02*
X204Y1552D01*
X0Y1551D02*
X204Y1551D01*
X0Y1550D02*
X204Y1550D01*
X0Y1549D02*
X204Y1549D01*
X0Y1548D02*
X204Y1548D01*
X0Y1547D02*
X204Y1547D01*
X0Y1546D02*
X204Y1546D01*
X0Y1545D02*
X4Y1545D01*
X0Y1544D02*
X4Y1544D01*
X0Y1543D02*
X4Y1543D01*
X0Y1542D02*
X4Y1542D01*
X0Y1541D02*
X4Y1541D01*
X0Y1540D02*
X4Y1540D01*
X0Y1539D02*
X4Y1539D01*
X0Y1538D02*
X4Y1538D01*
X0Y1537D02*
X4Y1537D01*
X0Y1536D02*
X4Y1536D01*
X0Y1535D02*
X4Y1535D01*
X0Y1534D02*
X4Y1534D01*
X0Y1533D02*
X4Y1533D01*
X0Y1532D02*
X4Y1532D01*
X0Y1531D02*
X4Y1531D01*
X0Y1530D02*
X4Y1530D01*
X0Y1529D02*
X4Y1529D01*
X0Y1528D02*
X4Y1528D01*
X0Y1527D02*
X4Y1527D01*
X0Y1526D02*
X4Y1526D01*
X0Y1525D02*
X4Y1525D01*
X0Y1524D02*
X4Y1524D01*
X0Y1523D02*
X4Y1523D01*
X0Y1522D02*
X4Y1522D01*
X0Y1521D02*
X4Y1521D01*
X0Y1520D02*
X4Y1520D01*
X0Y1519D02*
X4Y1519D01*
X0Y1518D02*
X4Y1518D01*
X0Y1517D02*
X4Y1517D01*
X0Y1516D02*
X4Y1516D01*
X0Y1515D02*
X4Y1515D01*
X0Y1514D02*
X4Y1514D01*
X0Y1513D02*
X4Y1513D01*
X0Y1512D02*
X4Y1512D01*
X0Y1511D02*
X4Y1511D01*
X0Y1510D02*
X4Y1510D01*
X0Y1509D02*
X4Y1509D01*
X0Y1508D02*
X4Y1508D01*
X0Y1507D02*
X4Y1507D01*
X0Y1506D02*
X4Y1506D01*
X0Y1505D02*
X4Y1505D01*
X0Y1504D02*
X4Y1504D01*
X0Y1503D02*
X4Y1503D01*
X0Y1502D02*
X4Y1502D01*
X0Y1501D02*
X4Y1501D01*
X0Y1500D02*
X4Y1500D01*
X0Y1499D02*
X4Y1499D01*
X0Y1498D02*
X4Y1498D01*
X0Y1497D02*
X4Y1497D01*
X0Y1496D02*
X4Y1496D01*
X0Y1495D02*
X4Y1495D01*
X0Y1494D02*
X4Y1494D01*
X0Y1493D02*
X4Y1493D01*
X0Y1492D02*
X4Y1492D01*
X0Y1491D02*
X4Y1491D01*
X0Y1490D02*
X4Y1490D01*
X0Y1489D02*
X4Y1489D01*
X0Y1488D02*
X4Y1488D01*
X0Y1487D02*
X4Y1487D01*
X0Y1486D02*
X4Y1486D01*
X0Y1485D02*
X4Y1485D01*
X0Y1484D02*
X4Y1484D01*
X0Y1483D02*
X4Y1483D01*
X0Y1482D02*
X4Y1482D01*
X0Y1481D02*
X4Y1481D01*
X0Y1480D02*
X4Y1480D01*
X0Y1479D02*
X4Y1479D01*
X0Y1478D02*
X4Y1478D01*
X0Y1477D02*
X4Y1477D01*
X0Y1476D02*
X4Y1476D01*
X0Y1475D02*
X4Y1475D01*
X0Y1474D02*
X4Y1474D01*
X0Y1473D02*
X4Y1473D01*
X0Y1472D02*
X4Y1472D01*
X0Y1471D02*
X4Y1471D01*
X0Y1470D02*
X4Y1470D01*
X0Y1469D02*
X4Y1469D01*
X0Y1468D02*
X4Y1468D01*
X0Y1467D02*
X4Y1467D01*
X0Y1466D02*
X4Y1466D01*
X0Y1465D02*
X4Y1465D01*
X0Y1464D02*
X4Y1464D01*
X0Y1463D02*
X4Y1463D01*
X0Y1462D02*
X4Y1462D01*
X0Y1461D02*
X4Y1461D01*
X0Y1460D02*
X4Y1460D01*
X0Y1459D02*
X4Y1459D01*
X0Y1458D02*
X4Y1458D01*
X0Y1457D02*
X4Y1457D01*
X0Y1456D02*
X4Y1456D01*
X0Y1455D02*
X4Y1455D01*
X0Y1454D02*
X4Y1454D01*
X0Y1453D02*
X4Y1453D01*
X0Y1452D02*
X4Y1452D01*
X0Y1451D02*
X4Y1451D01*
X0Y1450D02*
X4Y1450D01*
X0Y1449D02*
X4Y1449D01*
X0Y1448D02*
X4Y1448D01*
X0Y1447D02*
X4Y1447D01*
X0Y1446D02*
X4Y1446D01*
X0Y1445D02*
X4Y1445D01*
X0Y1444D02*
X4Y1444D01*
X0Y1443D02*
X4Y1443D01*
X0Y1442D02*
X4Y1442D01*
X0Y1441D02*
X4Y1441D01*
X0Y1440D02*
X4Y1440D01*
X0Y1439D02*
X4Y1439D01*
X0Y1438D02*
X4Y1438D01*
X0Y1437D02*
X4Y1437D01*
X0Y1436D02*
X4Y1436D01*
X0Y1435D02*
X4Y1435D01*
X0Y1434D02*
X4Y1434D01*
X0Y1433D02*
X4Y1433D01*
X0Y1432D02*
X4Y1432D01*
X0Y1431D02*
X4Y1431D01*
X0Y1430D02*
X4Y1430D01*
X0Y1429D02*
X4Y1429D01*
X0Y1428D02*
X4Y1428D01*
X0Y1427D02*
X4Y1427D01*
X0Y1426D02*
X4Y1426D01*
X0Y1425D02*
X4Y1425D01*
X0Y1424D02*
X4Y1424D01*
X0Y1423D02*
X4Y1423D01*
X0Y1422D02*
X4Y1422D01*
X0Y1421D02*
X4Y1421D01*
X0Y1420D02*
X4Y1420D01*
X0Y1419D02*
X4Y1419D01*
X0Y1418D02*
X4Y1418D01*
X0Y1417D02*
X4Y1417D01*
X0Y1416D02*
X4Y1416D01*
X0Y1415D02*
X4Y1415D01*
X0Y1414D02*
X4Y1414D01*
X0Y1413D02*
X4Y1413D01*
X0Y1412D02*
X4Y1412D01*
X0Y1411D02*
X4Y1411D01*
X0Y1410D02*
X4Y1410D01*
X0Y1409D02*
X4Y1409D01*
X0Y1408D02*
X4Y1408D01*
X0Y1407D02*
X4Y1407D01*
X0Y1406D02*
X4Y1406D01*
X0Y1405D02*
X4Y1405D01*
X0Y1404D02*
X4Y1404D01*
X0Y1403D02*
X4Y1403D01*
X0Y1402D02*
X4Y1402D01*
X0Y1401D02*
X4Y1401D01*
X0Y1400D02*
X4Y1400D01*
X0Y1399D02*
X4Y1399D01*
X0Y1398D02*
X4Y1398D01*
X0Y1397D02*
X4Y1397D01*
X0Y1396D02*
X4Y1396D01*
X0Y1395D02*
X4Y1395D01*
X0Y1394D02*
X4Y1394D01*
X0Y1393D02*
X4Y1393D01*
X0Y1392D02*
X4Y1392D01*
X0Y1391D02*
X4Y1391D01*
X0Y1390D02*
X4Y1390D01*
X0Y1389D02*
X4Y1389D01*
X0Y1388D02*
X4Y1388D01*
X0Y1387D02*
X4Y1387D01*
X0Y1386D02*
X4Y1386D01*
X0Y1385D02*
X4Y1385D01*
X0Y1384D02*
X4Y1384D01*
X0Y1383D02*
X4Y1383D01*
X0Y1382D02*
X4Y1382D01*
X0Y1381D02*
X4Y1381D01*
X0Y1380D02*
X4Y1380D01*
X0Y1379D02*
X4Y1379D01*
X0Y1378D02*
X4Y1378D01*
X0Y1377D02*
X4Y1377D01*
X0Y1376D02*
X4Y1376D01*
X0Y1375D02*
X4Y1375D01*
X0Y1374D02*
X4Y1374D01*
X0Y1373D02*
X4Y1373D01*
X0Y1372D02*
X4Y1372D01*
X0Y1371D02*
X4Y1371D01*
X0Y1370D02*
X4Y1370D01*
X0Y1369D02*
X4Y1369D01*
X0Y1368D02*
X4Y1368D01*
X0Y1367D02*
X4Y1367D01*
X0Y1366D02*
X4Y1366D01*
X0Y1365D02*
X4Y1365D01*
X0Y1364D02*
X4Y1364D01*
X0Y1363D02*
X4Y1363D01*
X0Y1362D02*
X4Y1362D01*
X0Y1361D02*
X4Y1361D01*
X0Y1360D02*
X4Y1360D01*
X0Y1359D02*
X4Y1359D01*
X0Y1358D02*
X4Y1358D01*
X0Y1357D02*
X4Y1357D01*
X0Y1356D02*
X4Y1356D01*
X0Y1355D02*
X4Y1355D01*
X0Y1354D02*
X4Y1354D01*
X0Y1353D02*
X4Y1353D01*
X0Y1352D02*
X4Y1352D01*
X0Y1351D02*
X4Y1351D01*
X0Y1350D02*
X4Y1350D01*
X0Y1349D02*
X4Y1349D01*
X1404Y1349D02*
X1413Y1349D01*
X1425Y1349D02*
X1426Y1349D01*
X0Y1348D02*
X4Y1348D01*
X270Y1348D02*
X315Y1348D01*
X1401Y1348D02*
X1415Y1348D01*
X1424Y1348D02*
X1427Y1348D01*
X0Y1347D02*
X4Y1347D01*
X269Y1347D02*
X315Y1347D01*
X1400Y1347D02*
X1415Y1347D01*
X1423Y1347D02*
X1428Y1347D01*
X0Y1346D02*
X4Y1346D01*
X269Y1346D02*
X315Y1346D01*
X1399Y1346D02*
X1415Y1346D01*
X1423Y1346D02*
X1428Y1346D01*
X0Y1345D02*
X4Y1345D01*
X269Y1345D02*
X315Y1345D01*
X1398Y1345D02*
X1415Y1345D01*
X1423Y1345D02*
X1428Y1345D01*
X0Y1344D02*
X4Y1344D01*
X270Y1344D02*
X315Y1344D01*
X1397Y1344D02*
X1415Y1344D01*
X1423Y1344D02*
X1428Y1344D01*
X0Y1343D02*
X4Y1343D01*
X271Y1343D02*
X315Y1343D01*
X1396Y1343D02*
X1405Y1343D01*
X1410Y1343D02*
X1415Y1343D01*
X1423Y1343D02*
X1428Y1343D01*
X0Y1342D02*
X4Y1342D01*
X287Y1342D02*
X292Y1342D01*
X310Y1342D02*
X315Y1342D01*
X1396Y1342D02*
X1402Y1342D01*
X1410Y1342D02*
X1415Y1342D01*
X1423Y1342D02*
X1428Y1342D01*
X0Y1341D02*
X4Y1341D01*
X287Y1341D02*
X292Y1341D01*
X310Y1341D02*
X315Y1341D01*
X1395Y1341D02*
X1401Y1341D01*
X1410Y1341D02*
X1415Y1341D01*
X1423Y1341D02*
X1428Y1341D01*
X0Y1340D02*
X4Y1340D01*
X287Y1340D02*
X292Y1340D01*
X310Y1340D02*
X315Y1340D01*
X1395Y1340D02*
X1401Y1340D01*
X1410Y1340D02*
X1415Y1340D01*
X1423Y1340D02*
X1428Y1340D01*
X0Y1339D02*
X4Y1339D01*
X287Y1339D02*
X292Y1339D01*
X310Y1339D02*
X315Y1339D01*
X1395Y1339D02*
X1400Y1339D01*
X1410Y1339D02*
X1415Y1339D01*
X1423Y1339D02*
X1428Y1339D01*
X0Y1338D02*
X4Y1338D01*
X287Y1338D02*
X292Y1338D01*
X310Y1338D02*
X315Y1338D01*
X1395Y1338D02*
X1400Y1338D01*
X1410Y1338D02*
X1415Y1338D01*
X1423Y1338D02*
X1428Y1338D01*
X0Y1337D02*
X4Y1337D01*
X287Y1337D02*
X292Y1337D01*
X310Y1337D02*
X315Y1337D01*
X1395Y1337D02*
X1400Y1337D01*
X1410Y1337D02*
X1415Y1337D01*
X1423Y1337D02*
X1428Y1337D01*
X0Y1336D02*
X4Y1336D01*
X287Y1336D02*
X292Y1336D01*
X310Y1336D02*
X315Y1336D01*
X1395Y1336D02*
X1400Y1336D01*
X1410Y1336D02*
X1415Y1336D01*
X1423Y1336D02*
X1428Y1336D01*
X0Y1335D02*
X4Y1335D01*
X287Y1335D02*
X292Y1335D01*
X310Y1335D02*
X315Y1335D01*
X1395Y1335D02*
X1400Y1335D01*
X1410Y1335D02*
X1415Y1335D01*
X1423Y1335D02*
X1428Y1335D01*
X0Y1334D02*
X4Y1334D01*
X287Y1334D02*
X292Y1334D01*
X310Y1334D02*
X315Y1334D01*
X1395Y1334D02*
X1400Y1334D01*
X1410Y1334D02*
X1415Y1334D01*
X1423Y1334D02*
X1428Y1334D01*
X0Y1333D02*
X4Y1333D01*
X287Y1333D02*
X292Y1333D01*
X310Y1333D02*
X315Y1333D01*
X1395Y1333D02*
X1400Y1333D01*
X1410Y1333D02*
X1415Y1333D01*
X1423Y1333D02*
X1428Y1333D01*
X0Y1332D02*
X4Y1332D01*
X287Y1332D02*
X292Y1332D01*
X310Y1332D02*
X315Y1332D01*
X1395Y1332D02*
X1400Y1332D01*
X1410Y1332D02*
X1415Y1332D01*
X1423Y1332D02*
X1428Y1332D01*
X0Y1331D02*
X4Y1331D01*
X287Y1331D02*
X292Y1331D01*
X310Y1331D02*
X315Y1331D01*
X1395Y1331D02*
X1400Y1331D01*
X1410Y1331D02*
X1415Y1331D01*
X1423Y1331D02*
X1428Y1331D01*
X0Y1330D02*
X4Y1330D01*
X287Y1330D02*
X292Y1330D01*
X310Y1330D02*
X315Y1330D01*
X1395Y1330D02*
X1400Y1330D01*
X1410Y1330D02*
X1415Y1330D01*
X1423Y1330D02*
X1428Y1330D01*
X0Y1329D02*
X4Y1329D01*
X287Y1329D02*
X292Y1329D01*
X310Y1329D02*
X315Y1329D01*
X1395Y1329D02*
X1400Y1329D01*
X1410Y1329D02*
X1415Y1329D01*
X1423Y1329D02*
X1428Y1329D01*
X0Y1328D02*
X4Y1328D01*
X287Y1328D02*
X292Y1328D01*
X310Y1328D02*
X315Y1328D01*
X1395Y1328D02*
X1401Y1328D01*
X1410Y1328D02*
X1415Y1328D01*
X1422Y1328D02*
X1428Y1328D01*
X0Y1327D02*
X4Y1327D01*
X287Y1327D02*
X292Y1327D01*
X310Y1327D02*
X315Y1327D01*
X1395Y1327D02*
X1402Y1327D01*
X1410Y1327D02*
X1415Y1327D01*
X1421Y1327D02*
X1428Y1327D01*
X0Y1326D02*
X4Y1326D01*
X287Y1326D02*
X293Y1326D01*
X310Y1326D02*
X315Y1326D01*
X1396Y1326D02*
X1403Y1326D01*
X1410Y1326D02*
X1415Y1326D01*
X1420Y1326D02*
X1427Y1326D01*
X0Y1325D02*
X4Y1325D01*
X287Y1325D02*
X294Y1325D01*
X308Y1325D02*
X315Y1325D01*
X1396Y1325D02*
X1426Y1325D01*
X0Y1324D02*
X4Y1324D01*
X288Y1324D02*
X314Y1324D01*
X1397Y1324D02*
X1426Y1324D01*
X0Y1323D02*
X4Y1323D01*
X288Y1323D02*
X314Y1323D01*
X1398Y1323D02*
X1425Y1323D01*
X0Y1322D02*
X4Y1322D01*
X289Y1322D02*
X313Y1322D01*
X1399Y1322D02*
X1424Y1322D01*
X0Y1321D02*
X4Y1321D01*
X290Y1321D02*
X312Y1321D01*
X1400Y1321D02*
X1423Y1321D01*
X0Y1320D02*
X4Y1320D01*
X291Y1320D02*
X311Y1320D01*
X1402Y1320D02*
X1421Y1320D01*
X0Y1319D02*
X4Y1319D01*
X293Y1319D02*
X309Y1319D01*
X1406Y1319D02*
X1417Y1319D01*
X0Y1318D02*
X4Y1318D01*
X0Y1317D02*
X4Y1317D01*
X0Y1316D02*
X4Y1316D01*
X0Y1315D02*
X4Y1315D01*
X0Y1314D02*
X4Y1314D01*
X0Y1313D02*
X4Y1313D01*
X0Y1312D02*
X4Y1312D01*
X0Y1311D02*
X4Y1311D01*
X0Y1310D02*
X4Y1310D01*
X0Y1309D02*
X4Y1309D01*
X0Y1308D02*
X4Y1308D01*
X0Y1307D02*
X4Y1307D01*
X0Y1306D02*
X4Y1306D01*
X0Y1305D02*
X4Y1305D01*
X1384Y1305D02*
X1426Y1305D01*
X0Y1304D02*
X4Y1304D01*
X1383Y1304D02*
X1428Y1304D01*
X0Y1303D02*
X4Y1303D01*
X1382Y1303D02*
X1428Y1303D01*
X0Y1302D02*
X4Y1302D01*
X1382Y1302D02*
X1428Y1302D01*
X0Y1301D02*
X4Y1301D01*
X270Y1301D02*
X273Y1301D01*
X298Y1301D02*
X301Y1301D01*
X1382Y1301D02*
X1428Y1301D01*
X0Y1300D02*
X4Y1300D01*
X269Y1300D02*
X274Y1300D01*
X298Y1300D02*
X302Y1300D01*
X1383Y1300D02*
X1427Y1300D01*
X0Y1299D02*
X4Y1299D01*
X269Y1299D02*
X274Y1299D01*
X297Y1299D02*
X302Y1299D01*
X1398Y1299D02*
X1406Y1299D01*
X1417Y1299D02*
X1425Y1299D01*
X0Y1298D02*
X4Y1298D01*
X269Y1298D02*
X274Y1298D01*
X297Y1298D02*
X302Y1298D01*
X1398Y1298D02*
X1405Y1298D01*
X1418Y1298D02*
X1425Y1298D01*
X0Y1297D02*
X4Y1297D01*
X269Y1297D02*
X274Y1297D01*
X297Y1297D02*
X302Y1297D01*
X1397Y1297D02*
X1404Y1297D01*
X1419Y1297D02*
X1426Y1297D01*
X0Y1296D02*
X4Y1296D01*
X269Y1296D02*
X274Y1296D01*
X297Y1296D02*
X302Y1296D01*
X1396Y1296D02*
X1403Y1296D01*
X1420Y1296D02*
X1427Y1296D01*
X0Y1295D02*
X4Y1295D01*
X269Y1295D02*
X274Y1295D01*
X297Y1295D02*
X302Y1295D01*
X311Y1295D02*
X317Y1295D01*
X1396Y1295D02*
X1402Y1295D01*
X1421Y1295D02*
X1427Y1295D01*
X0Y1294D02*
X4Y1294D01*
X269Y1294D02*
X274Y1294D01*
X297Y1294D02*
X302Y1294D01*
X310Y1294D02*
X317Y1294D01*
X1395Y1294D02*
X1402Y1294D01*
X1421Y1294D02*
X1428Y1294D01*
X0Y1293D02*
X4Y1293D01*
X269Y1293D02*
X274Y1293D01*
X297Y1293D02*
X302Y1293D01*
X310Y1293D02*
X318Y1293D01*
X1395Y1293D02*
X1401Y1293D01*
X1422Y1293D02*
X1428Y1293D01*
X0Y1292D02*
X4Y1292D01*
X269Y1292D02*
X302Y1292D01*
X310Y1292D02*
X318Y1292D01*
X1395Y1292D02*
X1400Y1292D01*
X1423Y1292D02*
X1428Y1292D01*
X0Y1291D02*
X4Y1291D01*
X269Y1291D02*
X302Y1291D01*
X310Y1291D02*
X318Y1291D01*
X1395Y1291D02*
X1400Y1291D01*
X1423Y1291D02*
X1428Y1291D01*
X0Y1290D02*
X4Y1290D01*
X269Y1290D02*
X302Y1290D01*
X310Y1290D02*
X318Y1290D01*
X1395Y1290D02*
X1400Y1290D01*
X1423Y1290D02*
X1428Y1290D01*
X0Y1289D02*
X4Y1289D01*
X269Y1289D02*
X302Y1289D01*
X310Y1289D02*
X318Y1289D01*
X1395Y1289D02*
X1400Y1289D01*
X1423Y1289D02*
X1428Y1289D01*
X0Y1288D02*
X4Y1288D01*
X269Y1288D02*
X302Y1288D01*
X311Y1288D02*
X317Y1288D01*
X1395Y1288D02*
X1400Y1288D01*
X1423Y1288D02*
X1428Y1288D01*
X0Y1287D02*
X4Y1287D01*
X269Y1287D02*
X300Y1287D01*
X312Y1287D02*
X316Y1287D01*
X1395Y1287D02*
X1400Y1287D01*
X1423Y1287D02*
X1428Y1287D01*
X0Y1286D02*
X4Y1286D01*
X269Y1286D02*
X274Y1286D01*
X1395Y1286D02*
X1400Y1286D01*
X1423Y1286D02*
X1428Y1286D01*
X0Y1285D02*
X4Y1285D01*
X269Y1285D02*
X274Y1285D01*
X1395Y1285D02*
X1400Y1285D01*
X1423Y1285D02*
X1428Y1285D01*
X0Y1284D02*
X4Y1284D01*
X269Y1284D02*
X274Y1284D01*
X1395Y1284D02*
X1401Y1284D01*
X1422Y1284D02*
X1428Y1284D01*
X0Y1283D02*
X4Y1283D01*
X269Y1283D02*
X274Y1283D01*
X1395Y1283D02*
X1402Y1283D01*
X1421Y1283D02*
X1427Y1283D01*
X0Y1282D02*
X4Y1282D01*
X269Y1282D02*
X274Y1282D01*
X1396Y1282D02*
X1403Y1282D01*
X1420Y1282D02*
X1427Y1282D01*
X0Y1281D02*
X4Y1281D01*
X269Y1281D02*
X274Y1281D01*
X1397Y1281D02*
X1426Y1281D01*
X0Y1280D02*
X4Y1280D01*
X269Y1280D02*
X274Y1280D01*
X1397Y1280D02*
X1426Y1280D01*
X0Y1279D02*
X4Y1279D01*
X270Y1279D02*
X273Y1279D01*
X1398Y1279D02*
X1425Y1279D01*
X0Y1278D02*
X4Y1278D01*
X271Y1278D02*
X272Y1278D01*
X1399Y1278D02*
X1424Y1278D01*
X0Y1277D02*
X4Y1277D01*
X1400Y1277D02*
X1423Y1277D01*
X0Y1276D02*
X4Y1276D01*
X1402Y1276D02*
X1421Y1276D01*
X0Y1275D02*
X4Y1275D01*
X0Y1274D02*
X4Y1274D01*
X0Y1273D02*
X4Y1273D01*
X0Y1272D02*
X4Y1272D01*
X0Y1271D02*
X4Y1271D01*
X0Y1270D02*
X4Y1270D01*
X0Y1269D02*
X4Y1269D01*
X0Y1268D02*
X4Y1268D01*
X0Y1267D02*
X4Y1267D01*
X0Y1266D02*
X4Y1266D01*
X0Y1265D02*
X4Y1265D01*
X0Y1264D02*
X4Y1264D01*
X0Y1263D02*
X4Y1263D01*
X0Y1262D02*
X4Y1262D01*
X0Y1261D02*
X4Y1261D01*
X272Y1261D02*
X300Y1261D01*
X0Y1260D02*
X4Y1260D01*
X270Y1260D02*
X302Y1260D01*
X0Y1259D02*
X4Y1259D01*
X269Y1259D02*
X302Y1259D01*
X0Y1258D02*
X4Y1258D01*
X269Y1258D02*
X302Y1258D01*
X1424Y1258D02*
X1427Y1258D01*
X0Y1257D02*
X4Y1257D01*
X269Y1257D02*
X302Y1257D01*
X1424Y1257D02*
X1428Y1257D01*
X0Y1256D02*
X4Y1256D01*
X270Y1256D02*
X302Y1256D01*
X1423Y1256D02*
X1428Y1256D01*
X0Y1255D02*
X4Y1255D01*
X272Y1255D02*
X300Y1255D01*
X1423Y1255D02*
X1428Y1255D01*
X0Y1254D02*
X4Y1254D01*
X292Y1254D02*
X298Y1254D01*
X1423Y1254D02*
X1428Y1254D01*
X0Y1253D02*
X4Y1253D01*
X292Y1253D02*
X298Y1253D01*
X1423Y1253D02*
X1428Y1253D01*
X0Y1252D02*
X4Y1252D01*
X293Y1252D02*
X299Y1252D01*
X1423Y1252D02*
X1428Y1252D01*
X0Y1251D02*
X4Y1251D01*
X293Y1251D02*
X300Y1251D01*
X1423Y1251D02*
X1428Y1251D01*
X0Y1250D02*
X4Y1250D01*
X294Y1250D02*
X300Y1250D01*
X1423Y1250D02*
X1428Y1250D01*
X0Y1249D02*
X4Y1249D01*
X295Y1249D02*
X301Y1249D01*
X1381Y1249D02*
X1386Y1249D01*
X1396Y1249D02*
X1428Y1249D01*
X0Y1248D02*
X4Y1248D01*
X295Y1248D02*
X301Y1248D01*
X1380Y1248D02*
X1387Y1248D01*
X1395Y1248D02*
X1428Y1248D01*
X0Y1247D02*
X4Y1247D01*
X296Y1247D02*
X302Y1247D01*
X1379Y1247D02*
X1387Y1247D01*
X1395Y1247D02*
X1428Y1247D01*
X0Y1246D02*
X4Y1246D01*
X297Y1246D02*
X302Y1246D01*
X1379Y1246D02*
X1387Y1246D01*
X1395Y1246D02*
X1428Y1246D01*
X0Y1245D02*
X4Y1245D01*
X297Y1245D02*
X302Y1245D01*
X1379Y1245D02*
X1387Y1245D01*
X1395Y1245D02*
X1428Y1245D01*
X0Y1244D02*
X4Y1244D01*
X297Y1244D02*
X302Y1244D01*
X1379Y1244D02*
X1387Y1244D01*
X1395Y1244D02*
X1428Y1244D01*
X0Y1243D02*
X4Y1243D01*
X297Y1243D02*
X302Y1243D01*
X1379Y1243D02*
X1387Y1243D01*
X1395Y1243D02*
X1400Y1243D01*
X1423Y1243D02*
X1428Y1243D01*
X0Y1242D02*
X4Y1242D01*
X297Y1242D02*
X302Y1242D01*
X1380Y1242D02*
X1387Y1242D01*
X1395Y1242D02*
X1400Y1242D01*
X1423Y1242D02*
X1428Y1242D01*
X0Y1241D02*
X4Y1241D01*
X297Y1241D02*
X302Y1241D01*
X1381Y1241D02*
X1386Y1241D01*
X1395Y1241D02*
X1400Y1241D01*
X1423Y1241D02*
X1428Y1241D01*
X0Y1240D02*
X4Y1240D01*
X297Y1240D02*
X302Y1240D01*
X1395Y1240D02*
X1400Y1240D01*
X1423Y1240D02*
X1428Y1240D01*
X0Y1239D02*
X4Y1239D01*
X297Y1239D02*
X302Y1239D01*
X1395Y1239D02*
X1400Y1239D01*
X1423Y1239D02*
X1428Y1239D01*
X0Y1238D02*
X4Y1238D01*
X295Y1238D02*
X302Y1238D01*
X1395Y1238D02*
X1400Y1238D01*
X1423Y1238D02*
X1428Y1238D01*
X0Y1237D02*
X4Y1237D01*
X272Y1237D02*
X302Y1237D01*
X1395Y1237D02*
X1400Y1237D01*
X1423Y1237D02*
X1428Y1237D01*
X0Y1236D02*
X4Y1236D01*
X270Y1236D02*
X301Y1236D01*
X1395Y1236D02*
X1399Y1236D01*
X1423Y1236D02*
X1428Y1236D01*
X0Y1235D02*
X4Y1235D01*
X269Y1235D02*
X300Y1235D01*
X1396Y1235D02*
X1399Y1235D01*
X1424Y1235D02*
X1427Y1235D01*
X0Y1234D02*
X4Y1234D01*
X269Y1234D02*
X299Y1234D01*
X0Y1233D02*
X4Y1233D01*
X269Y1233D02*
X298Y1233D01*
X0Y1232D02*
X4Y1232D01*
X270Y1232D02*
X296Y1232D01*
X0Y1231D02*
X4Y1231D01*
X272Y1231D02*
X273Y1231D01*
X0Y1230D02*
X4Y1230D01*
X0Y1229D02*
X4Y1229D01*
X0Y1228D02*
X4Y1228D01*
X0Y1227D02*
X4Y1227D01*
X0Y1226D02*
X4Y1226D01*
X0Y1225D02*
X4Y1225D01*
X0Y1224D02*
X4Y1224D01*
X0Y1223D02*
X4Y1223D01*
X0Y1222D02*
X4Y1222D01*
X0Y1221D02*
X4Y1221D01*
X0Y1220D02*
X4Y1220D01*
X0Y1219D02*
X4Y1219D01*
X0Y1218D02*
X4Y1218D01*
X0Y1217D02*
X4Y1217D01*
X1387Y1217D02*
X1391Y1217D01*
X1419Y1217D02*
X1424Y1217D01*
X0Y1216D02*
X4Y1216D01*
X1385Y1216D02*
X1392Y1216D01*
X1418Y1216D02*
X1426Y1216D01*
X0Y1215D02*
X4Y1215D01*
X1384Y1215D02*
X1392Y1215D01*
X1416Y1215D02*
X1427Y1215D01*
X0Y1214D02*
X4Y1214D01*
X1383Y1214D02*
X1392Y1214D01*
X1415Y1214D02*
X1427Y1214D01*
X0Y1213D02*
X4Y1213D01*
X1383Y1213D02*
X1392Y1213D01*
X1414Y1213D02*
X1428Y1213D01*
X0Y1212D02*
X4Y1212D01*
X1382Y1212D02*
X1390Y1212D01*
X1413Y1212D02*
X1428Y1212D01*
X0Y1211D02*
X4Y1211D01*
X1382Y1211D02*
X1388Y1211D01*
X1411Y1211D02*
X1420Y1211D01*
X1423Y1211D02*
X1428Y1211D01*
X0Y1210D02*
X4Y1210D01*
X1382Y1210D02*
X1387Y1210D01*
X1410Y1210D02*
X1419Y1210D01*
X1423Y1210D02*
X1428Y1210D01*
X0Y1209D02*
X4Y1209D01*
X1382Y1209D02*
X1387Y1209D01*
X1409Y1209D02*
X1418Y1209D01*
X1423Y1209D02*
X1428Y1209D01*
X0Y1208D02*
X4Y1208D01*
X1382Y1208D02*
X1387Y1208D01*
X1407Y1208D02*
X1417Y1208D01*
X1423Y1208D02*
X1428Y1208D01*
X0Y1207D02*
X4Y1207D01*
X1382Y1207D02*
X1387Y1207D01*
X1406Y1207D02*
X1415Y1207D01*
X1423Y1207D02*
X1428Y1207D01*
X0Y1206D02*
X4Y1206D01*
X1382Y1206D02*
X1387Y1206D01*
X1405Y1206D02*
X1414Y1206D01*
X1423Y1206D02*
X1428Y1206D01*
X0Y1205D02*
X4Y1205D01*
X1382Y1205D02*
X1387Y1205D01*
X1404Y1205D02*
X1413Y1205D01*
X1423Y1205D02*
X1428Y1205D01*
X0Y1204D02*
X4Y1204D01*
X1382Y1204D02*
X1387Y1204D01*
X1402Y1204D02*
X1411Y1204D01*
X1423Y1204D02*
X1428Y1204D01*
X0Y1203D02*
X4Y1203D01*
X1382Y1203D02*
X1387Y1203D01*
X1401Y1203D02*
X1410Y1203D01*
X1423Y1203D02*
X1428Y1203D01*
X0Y1202D02*
X4Y1202D01*
X1382Y1202D02*
X1387Y1202D01*
X1400Y1202D02*
X1409Y1202D01*
X1423Y1202D02*
X1428Y1202D01*
X0Y1201D02*
X4Y1201D01*
X1382Y1201D02*
X1387Y1201D01*
X1398Y1201D02*
X1408Y1201D01*
X1423Y1201D02*
X1428Y1201D01*
X0Y1200D02*
X4Y1200D01*
X1382Y1200D02*
X1387Y1200D01*
X1397Y1200D02*
X1406Y1200D01*
X1423Y1200D02*
X1428Y1200D01*
X0Y1199D02*
X4Y1199D01*
X1382Y1199D02*
X1387Y1199D01*
X1396Y1199D02*
X1405Y1199D01*
X1423Y1199D02*
X1428Y1199D01*
X0Y1198D02*
X4Y1198D01*
X1382Y1198D02*
X1387Y1198D01*
X1395Y1198D02*
X1404Y1198D01*
X1423Y1198D02*
X1428Y1198D01*
X0Y1197D02*
X4Y1197D01*
X1382Y1197D02*
X1387Y1197D01*
X1393Y1197D02*
X1402Y1197D01*
X1423Y1197D02*
X1428Y1197D01*
X0Y1196D02*
X4Y1196D01*
X1382Y1196D02*
X1387Y1196D01*
X1392Y1196D02*
X1401Y1196D01*
X1423Y1196D02*
X1428Y1196D01*
X0Y1195D02*
X4Y1195D01*
X1382Y1195D02*
X1387Y1195D01*
X1391Y1195D02*
X1400Y1195D01*
X1423Y1195D02*
X1428Y1195D01*
X0Y1194D02*
X4Y1194D01*
X1382Y1194D02*
X1387Y1194D01*
X1389Y1194D02*
X1399Y1194D01*
X1422Y1194D02*
X1428Y1194D01*
X0Y1193D02*
X4Y1193D01*
X1382Y1193D02*
X1397Y1193D01*
X1419Y1193D02*
X1428Y1193D01*
X0Y1192D02*
X4Y1192D01*
X1382Y1192D02*
X1396Y1192D01*
X1418Y1192D02*
X1427Y1192D01*
X0Y1191D02*
X4Y1191D01*
X1383Y1191D02*
X1395Y1191D01*
X1418Y1191D02*
X1427Y1191D01*
X0Y1190D02*
X4Y1190D01*
X1384Y1190D02*
X1393Y1190D01*
X1418Y1190D02*
X1426Y1190D01*
X0Y1189D02*
X4Y1189D01*
X1385Y1189D02*
X1392Y1189D01*
X1418Y1189D02*
X1424Y1189D01*
X0Y1188D02*
X4Y1188D01*
X1386Y1188D02*
X1390Y1188D01*
X1420Y1188D02*
X1422Y1188D01*
X0Y1187D02*
X4Y1187D01*
X0Y1186D02*
X4Y1186D01*
X0Y1185D02*
X4Y1185D01*
X0Y1184D02*
X4Y1184D01*
X0Y1183D02*
X4Y1183D01*
X0Y1182D02*
X4Y1182D01*
X0Y1181D02*
X4Y1181D01*
X0Y1180D02*
X4Y1180D01*
X0Y1179D02*
X4Y1179D01*
X708Y1179D02*
X729Y1179D01*
X936Y1179D02*
X938Y1179D01*
X977Y1179D02*
X988Y1179D01*
X0Y1178D02*
X4Y1178D01*
X708Y1178D02*
X729Y1178D01*
X935Y1178D02*
X939Y1178D01*
X975Y1178D02*
X989Y1178D01*
X0Y1177D02*
X4Y1177D01*
X708Y1177D02*
X729Y1177D01*
X935Y1177D02*
X939Y1177D01*
X974Y1177D02*
X989Y1177D01*
X0Y1176D02*
X4Y1176D01*
X708Y1176D02*
X729Y1176D01*
X935Y1176D02*
X939Y1176D01*
X974Y1176D02*
X989Y1176D01*
X0Y1175D02*
X4Y1175D01*
X661Y1175D02*
X663Y1175D01*
X708Y1175D02*
X729Y1175D01*
X935Y1175D02*
X939Y1175D01*
X973Y1175D02*
X988Y1175D01*
X1034Y1175D02*
X1036Y1175D01*
X0Y1174D02*
X4Y1174D01*
X659Y1174D02*
X664Y1174D01*
X708Y1174D02*
X711Y1174D01*
X717Y1174D02*
X720Y1174D01*
X726Y1174D02*
X729Y1174D01*
X935Y1174D02*
X939Y1174D01*
X973Y1174D02*
X977Y1174D01*
X1033Y1174D02*
X1037Y1174D01*
X0Y1173D02*
X4Y1173D01*
X275Y1173D02*
X278Y1173D01*
X307Y1173D02*
X311Y1173D01*
X658Y1173D02*
X664Y1173D01*
X708Y1173D02*
X711Y1173D01*
X717Y1173D02*
X720Y1173D01*
X726Y1173D02*
X729Y1173D01*
X935Y1173D02*
X939Y1173D01*
X972Y1173D02*
X976Y1173D01*
X1033Y1173D02*
X1039Y1173D01*
X0Y1172D02*
X4Y1172D01*
X273Y1172D02*
X279Y1172D01*
X305Y1172D02*
X312Y1172D01*
X656Y1172D02*
X664Y1172D01*
X708Y1172D02*
X711Y1172D01*
X717Y1172D02*
X720Y1172D01*
X726Y1172D02*
X729Y1172D01*
X935Y1172D02*
X939Y1172D01*
X972Y1172D02*
X976Y1172D01*
X1033Y1172D02*
X1041Y1172D01*
X0Y1171D02*
X4Y1171D01*
X271Y1171D02*
X279Y1171D01*
X304Y1171D02*
X314Y1171D01*
X654Y1171D02*
X662Y1171D01*
X717Y1171D02*
X720Y1171D01*
X935Y1171D02*
X939Y1171D01*
X971Y1171D02*
X975Y1171D01*
X1034Y1171D02*
X1042Y1171D01*
X0Y1170D02*
X4Y1170D01*
X271Y1170D02*
X279Y1170D01*
X302Y1170D02*
X314Y1170D01*
X653Y1170D02*
X661Y1170D01*
X717Y1170D02*
X720Y1170D01*
X935Y1170D02*
X939Y1170D01*
X971Y1170D02*
X975Y1170D01*
X1036Y1170D02*
X1044Y1170D01*
X0Y1169D02*
X4Y1169D01*
X270Y1169D02*
X279Y1169D01*
X301Y1169D02*
X315Y1169D01*
X651Y1169D02*
X659Y1169D01*
X717Y1169D02*
X720Y1169D01*
X745Y1169D02*
X756Y1169D01*
X778Y1169D02*
X789Y1169D01*
X806Y1169D02*
X808Y1169D01*
X815Y1169D02*
X822Y1169D01*
X841Y1169D02*
X856Y1169D01*
X871Y1169D02*
X873Y1169D01*
X889Y1169D02*
X891Y1169D01*
X935Y1169D02*
X939Y1169D01*
X970Y1169D02*
X974Y1169D01*
X1038Y1169D02*
X1046Y1169D01*
X0Y1168D02*
X4Y1168D01*
X269Y1168D02*
X278Y1168D01*
X300Y1168D02*
X315Y1168D01*
X649Y1168D02*
X657Y1168D01*
X717Y1168D02*
X720Y1168D01*
X744Y1168D02*
X758Y1168D01*
X776Y1168D02*
X790Y1168D01*
X805Y1168D02*
X809Y1168D01*
X813Y1168D02*
X824Y1168D01*
X840Y1168D02*
X857Y1168D01*
X870Y1168D02*
X874Y1168D01*
X888Y1168D02*
X892Y1168D01*
X935Y1168D02*
X939Y1168D01*
X970Y1168D02*
X974Y1168D01*
X1040Y1168D02*
X1048Y1168D01*
X0Y1167D02*
X4Y1167D01*
X269Y1167D02*
X275Y1167D01*
X299Y1167D02*
X308Y1167D01*
X310Y1167D02*
X315Y1167D01*
X648Y1167D02*
X656Y1167D01*
X717Y1167D02*
X720Y1167D01*
X743Y1167D02*
X759Y1167D01*
X775Y1167D02*
X792Y1167D01*
X805Y1167D02*
X809Y1167D01*
X811Y1167D02*
X825Y1167D01*
X839Y1167D02*
X858Y1167D01*
X870Y1167D02*
X874Y1167D01*
X888Y1167D02*
X892Y1167D01*
X935Y1167D02*
X939Y1167D01*
X969Y1167D02*
X973Y1167D01*
X1041Y1167D02*
X1049Y1167D01*
X0Y1166D02*
X4Y1166D01*
X269Y1166D02*
X274Y1166D01*
X297Y1166D02*
X306Y1166D01*
X310Y1166D02*
X315Y1166D01*
X646Y1166D02*
X654Y1166D01*
X717Y1166D02*
X720Y1166D01*
X742Y1166D02*
X760Y1166D01*
X774Y1166D02*
X793Y1166D01*
X805Y1166D02*
X825Y1166D01*
X839Y1166D02*
X859Y1166D01*
X870Y1166D02*
X874Y1166D01*
X888Y1166D02*
X892Y1166D01*
X935Y1166D02*
X939Y1166D01*
X969Y1166D02*
X973Y1166D01*
X1043Y1166D02*
X1051Y1166D01*
X0Y1165D02*
X4Y1165D01*
X269Y1165D02*
X274Y1165D01*
X296Y1165D02*
X305Y1165D01*
X310Y1165D02*
X315Y1165D01*
X644Y1165D02*
X652Y1165D01*
X717Y1165D02*
X720Y1165D01*
X741Y1165D02*
X746Y1165D01*
X755Y1165D02*
X761Y1165D01*
X774Y1165D02*
X779Y1165D01*
X788Y1165D02*
X793Y1165D01*
X805Y1165D02*
X816Y1165D01*
X821Y1165D02*
X826Y1165D01*
X838Y1165D02*
X842Y1165D01*
X855Y1165D02*
X858Y1165D01*
X870Y1165D02*
X874Y1165D01*
X888Y1165D02*
X892Y1165D01*
X935Y1165D02*
X939Y1165D01*
X968Y1165D02*
X972Y1165D01*
X1045Y1165D02*
X1053Y1165D01*
X0Y1164D02*
X4Y1164D01*
X269Y1164D02*
X274Y1164D01*
X295Y1164D02*
X304Y1164D01*
X310Y1164D02*
X315Y1164D01*
X643Y1164D02*
X650Y1164D01*
X717Y1164D02*
X720Y1164D01*
X741Y1164D02*
X745Y1164D01*
X757Y1164D02*
X761Y1164D01*
X773Y1164D02*
X778Y1164D01*
X789Y1164D02*
X794Y1164D01*
X805Y1164D02*
X814Y1164D01*
X822Y1164D02*
X826Y1164D01*
X838Y1164D02*
X842Y1164D01*
X856Y1164D02*
X858Y1164D01*
X870Y1164D02*
X874Y1164D01*
X888Y1164D02*
X892Y1164D01*
X935Y1164D02*
X939Y1164D01*
X968Y1164D02*
X972Y1164D01*
X1046Y1164D02*
X1054Y1164D01*
X0Y1163D02*
X4Y1163D01*
X269Y1163D02*
X274Y1163D01*
X293Y1163D02*
X303Y1163D01*
X310Y1163D02*
X315Y1163D01*
X643Y1163D02*
X649Y1163D01*
X717Y1163D02*
X720Y1163D01*
X740Y1163D02*
X744Y1163D01*
X758Y1163D02*
X761Y1163D01*
X773Y1163D02*
X777Y1163D01*
X790Y1163D02*
X794Y1163D01*
X805Y1163D02*
X812Y1163D01*
X822Y1163D02*
X826Y1163D01*
X838Y1163D02*
X842Y1163D01*
X870Y1163D02*
X874Y1163D01*
X887Y1163D02*
X891Y1163D01*
X935Y1163D02*
X939Y1163D01*
X968Y1163D02*
X971Y1163D01*
X1048Y1163D02*
X1054Y1163D01*
X0Y1162D02*
X4Y1162D01*
X269Y1162D02*
X274Y1162D01*
X292Y1162D02*
X301Y1162D01*
X310Y1162D02*
X315Y1162D01*
X643Y1162D02*
X647Y1162D01*
X717Y1162D02*
X720Y1162D01*
X740Y1162D02*
X744Y1162D01*
X758Y1162D02*
X762Y1162D01*
X773Y1162D02*
X776Y1162D01*
X790Y1162D02*
X794Y1162D01*
X805Y1162D02*
X811Y1162D01*
X823Y1162D02*
X826Y1162D01*
X839Y1162D02*
X845Y1162D01*
X871Y1162D02*
X875Y1162D01*
X887Y1162D02*
X891Y1162D01*
X935Y1162D02*
X939Y1162D01*
X968Y1162D02*
X971Y1162D01*
X1050Y1162D02*
X1054Y1162D01*
X0Y1161D02*
X4Y1161D01*
X269Y1161D02*
X274Y1161D01*
X291Y1161D02*
X300Y1161D01*
X310Y1161D02*
X315Y1161D01*
X643Y1161D02*
X648Y1161D01*
X717Y1161D02*
X720Y1161D01*
X740Y1161D02*
X744Y1161D01*
X758Y1161D02*
X762Y1161D01*
X773Y1161D02*
X776Y1161D01*
X791Y1161D02*
X794Y1161D01*
X805Y1161D02*
X809Y1161D01*
X823Y1161D02*
X826Y1161D01*
X839Y1161D02*
X847Y1161D01*
X871Y1161D02*
X875Y1161D01*
X887Y1161D02*
X891Y1161D01*
X935Y1161D02*
X939Y1161D01*
X968Y1161D02*
X971Y1161D01*
X1049Y1161D02*
X1054Y1161D01*
X0Y1160D02*
X4Y1160D01*
X269Y1160D02*
X274Y1160D01*
X290Y1160D02*
X299Y1160D01*
X310Y1160D02*
X315Y1160D01*
X643Y1160D02*
X650Y1160D01*
X717Y1160D02*
X720Y1160D01*
X740Y1160D02*
X744Y1160D01*
X758Y1160D02*
X762Y1160D01*
X773Y1160D02*
X776Y1160D01*
X791Y1160D02*
X794Y1160D01*
X805Y1160D02*
X809Y1160D01*
X823Y1160D02*
X826Y1160D01*
X840Y1160D02*
X849Y1160D01*
X872Y1160D02*
X876Y1160D01*
X886Y1160D02*
X890Y1160D01*
X935Y1160D02*
X939Y1160D01*
X968Y1160D02*
X972Y1160D01*
X1047Y1160D02*
X1054Y1160D01*
X0Y1159D02*
X4Y1159D01*
X269Y1159D02*
X274Y1159D01*
X288Y1159D02*
X297Y1159D01*
X310Y1159D02*
X315Y1159D01*
X644Y1159D02*
X652Y1159D01*
X717Y1159D02*
X720Y1159D01*
X740Y1159D02*
X744Y1159D01*
X758Y1159D02*
X762Y1159D01*
X773Y1159D02*
X776Y1159D01*
X791Y1159D02*
X794Y1159D01*
X805Y1159D02*
X809Y1159D01*
X823Y1159D02*
X826Y1159D01*
X841Y1159D02*
X852Y1159D01*
X872Y1159D02*
X876Y1159D01*
X886Y1159D02*
X890Y1159D01*
X935Y1159D02*
X939Y1159D01*
X968Y1159D02*
X972Y1159D01*
X1045Y1159D02*
X1053Y1159D01*
X0Y1158D02*
X4Y1158D01*
X269Y1158D02*
X274Y1158D01*
X287Y1158D02*
X296Y1158D01*
X310Y1158D02*
X315Y1158D01*
X645Y1158D02*
X653Y1158D01*
X717Y1158D02*
X720Y1158D01*
X740Y1158D02*
X762Y1158D01*
X773Y1158D02*
X794Y1158D01*
X805Y1158D02*
X809Y1158D01*
X823Y1158D02*
X826Y1158D01*
X844Y1158D02*
X854Y1158D01*
X873Y1158D02*
X876Y1158D01*
X885Y1158D02*
X889Y1158D01*
X935Y1158D02*
X939Y1158D01*
X969Y1158D02*
X973Y1158D01*
X1043Y1158D02*
X1051Y1158D01*
X0Y1157D02*
X4Y1157D01*
X269Y1157D02*
X274Y1157D01*
X286Y1157D02*
X295Y1157D01*
X310Y1157D02*
X315Y1157D01*
X647Y1157D02*
X655Y1157D01*
X717Y1157D02*
X720Y1157D01*
X740Y1157D02*
X762Y1157D01*
X773Y1157D02*
X794Y1157D01*
X805Y1157D02*
X809Y1157D01*
X823Y1157D02*
X826Y1157D01*
X846Y1157D02*
X856Y1157D01*
X873Y1157D02*
X877Y1157D01*
X885Y1157D02*
X889Y1157D01*
X935Y1157D02*
X939Y1157D01*
X969Y1157D02*
X973Y1157D01*
X1042Y1157D02*
X1050Y1157D01*
X0Y1156D02*
X4Y1156D01*
X269Y1156D02*
X274Y1156D01*
X284Y1156D02*
X294Y1156D01*
X310Y1156D02*
X315Y1156D01*
X649Y1156D02*
X657Y1156D01*
X717Y1156D02*
X720Y1156D01*
X740Y1156D02*
X762Y1156D01*
X773Y1156D02*
X794Y1156D01*
X805Y1156D02*
X809Y1156D01*
X823Y1156D02*
X826Y1156D01*
X848Y1156D02*
X857Y1156D01*
X873Y1156D02*
X877Y1156D01*
X884Y1156D02*
X888Y1156D01*
X935Y1156D02*
X939Y1156D01*
X969Y1156D02*
X974Y1156D01*
X1040Y1156D02*
X1048Y1156D01*
X0Y1155D02*
X4Y1155D01*
X269Y1155D02*
X274Y1155D01*
X283Y1155D02*
X292Y1155D01*
X310Y1155D02*
X315Y1155D01*
X650Y1155D02*
X658Y1155D01*
X717Y1155D02*
X720Y1155D01*
X740Y1155D02*
X761Y1155D01*
X773Y1155D02*
X794Y1155D01*
X805Y1155D02*
X809Y1155D01*
X823Y1155D02*
X826Y1155D01*
X850Y1155D02*
X858Y1155D01*
X874Y1155D02*
X878Y1155D01*
X884Y1155D02*
X888Y1155D01*
X935Y1155D02*
X939Y1155D01*
X970Y1155D02*
X974Y1155D01*
X1038Y1155D02*
X1046Y1155D01*
X0Y1154D02*
X4Y1154D01*
X269Y1154D02*
X274Y1154D01*
X282Y1154D02*
X291Y1154D01*
X310Y1154D02*
X315Y1154D01*
X652Y1154D02*
X660Y1154D01*
X717Y1154D02*
X720Y1154D01*
X740Y1154D02*
X760Y1154D01*
X773Y1154D02*
X792Y1154D01*
X805Y1154D02*
X809Y1154D01*
X823Y1154D02*
X826Y1154D01*
X853Y1154D02*
X858Y1154D01*
X874Y1154D02*
X878Y1154D01*
X884Y1154D02*
X888Y1154D01*
X935Y1154D02*
X939Y1154D01*
X970Y1154D02*
X975Y1154D01*
X1037Y1154D02*
X1045Y1154D01*
X0Y1153D02*
X4Y1153D01*
X269Y1153D02*
X274Y1153D01*
X281Y1153D02*
X290Y1153D01*
X310Y1153D02*
X315Y1153D01*
X654Y1153D02*
X662Y1153D01*
X717Y1153D02*
X720Y1153D01*
X740Y1153D02*
X744Y1153D01*
X773Y1153D02*
X776Y1153D01*
X805Y1153D02*
X809Y1153D01*
X823Y1153D02*
X826Y1153D01*
X855Y1153D02*
X859Y1153D01*
X875Y1153D02*
X879Y1153D01*
X883Y1153D02*
X887Y1153D01*
X935Y1153D02*
X939Y1153D01*
X971Y1153D02*
X975Y1153D01*
X1035Y1153D02*
X1043Y1153D01*
X0Y1152D02*
X4Y1152D01*
X269Y1152D02*
X274Y1152D01*
X279Y1152D02*
X288Y1152D01*
X310Y1152D02*
X315Y1152D01*
X656Y1152D02*
X663Y1152D01*
X717Y1152D02*
X720Y1152D01*
X740Y1152D02*
X744Y1152D01*
X773Y1152D02*
X776Y1152D01*
X805Y1152D02*
X809Y1152D01*
X823Y1152D02*
X826Y1152D01*
X855Y1152D02*
X859Y1152D01*
X875Y1152D02*
X879Y1152D01*
X883Y1152D02*
X887Y1152D01*
X935Y1152D02*
X939Y1152D01*
X971Y1152D02*
X976Y1152D01*
X1033Y1152D02*
X1041Y1152D01*
X0Y1151D02*
X4Y1151D01*
X269Y1151D02*
X274Y1151D01*
X278Y1151D02*
X287Y1151D01*
X310Y1151D02*
X315Y1151D01*
X657Y1151D02*
X664Y1151D01*
X717Y1151D02*
X720Y1151D01*
X740Y1151D02*
X744Y1151D01*
X773Y1151D02*
X777Y1151D01*
X805Y1151D02*
X809Y1151D01*
X823Y1151D02*
X826Y1151D01*
X855Y1151D02*
X859Y1151D01*
X876Y1151D02*
X880Y1151D01*
X882Y1151D02*
X886Y1151D01*
X935Y1151D02*
X939Y1151D01*
X972Y1151D02*
X976Y1151D01*
X1033Y1151D02*
X1040Y1151D01*
X0Y1150D02*
X4Y1150D01*
X269Y1150D02*
X274Y1150D01*
X277Y1150D02*
X286Y1150D01*
X309Y1150D02*
X315Y1150D01*
X659Y1150D02*
X664Y1150D01*
X717Y1150D02*
X720Y1150D01*
X741Y1150D02*
X745Y1150D01*
X773Y1150D02*
X778Y1150D01*
X805Y1150D02*
X809Y1150D01*
X823Y1150D02*
X826Y1150D01*
X838Y1150D02*
X841Y1150D01*
X855Y1150D02*
X859Y1150D01*
X876Y1150D02*
X886Y1150D01*
X935Y1150D02*
X939Y1150D01*
X972Y1150D02*
X977Y1150D01*
X1033Y1150D02*
X1038Y1150D01*
X0Y1149D02*
X4Y1149D01*
X269Y1149D02*
X285Y1149D01*
X307Y1149D02*
X315Y1149D01*
X661Y1149D02*
X664Y1149D01*
X717Y1149D02*
X720Y1149D01*
X741Y1149D02*
X747Y1149D01*
X774Y1149D02*
X779Y1149D01*
X805Y1149D02*
X809Y1149D01*
X823Y1149D02*
X826Y1149D01*
X838Y1149D02*
X843Y1149D01*
X854Y1149D02*
X859Y1149D01*
X876Y1149D02*
X885Y1149D01*
X935Y1149D02*
X939Y1149D01*
X973Y1149D02*
X978Y1149D01*
X1033Y1149D02*
X1036Y1149D01*
X0Y1148D02*
X4Y1148D01*
X269Y1148D02*
X283Y1148D01*
X305Y1148D02*
X314Y1148D01*
X717Y1148D02*
X720Y1148D01*
X742Y1148D02*
X761Y1148D01*
X774Y1148D02*
X794Y1148D01*
X805Y1148D02*
X809Y1148D01*
X823Y1148D02*
X827Y1148D01*
X838Y1148D02*
X858Y1148D01*
X877Y1148D02*
X885Y1148D01*
X935Y1148D02*
X956Y1148D01*
X973Y1148D02*
X989Y1148D01*
X0Y1147D02*
X4Y1147D01*
X270Y1147D02*
X282Y1147D01*
X305Y1147D02*
X314Y1147D01*
X717Y1147D02*
X720Y1147D01*
X743Y1147D02*
X762Y1147D01*
X775Y1147D02*
X794Y1147D01*
X805Y1147D02*
X809Y1147D01*
X823Y1147D02*
X827Y1147D01*
X838Y1147D02*
X858Y1147D01*
X878Y1147D02*
X884Y1147D01*
X935Y1147D02*
X957Y1147D01*
X974Y1147D02*
X989Y1147D01*
X0Y1146D02*
X4Y1146D01*
X271Y1146D02*
X281Y1146D01*
X305Y1146D02*
X313Y1146D01*
X717Y1146D02*
X720Y1146D01*
X744Y1146D02*
X761Y1146D01*
X777Y1146D02*
X794Y1146D01*
X805Y1146D02*
X809Y1146D01*
X823Y1146D02*
X826Y1146D01*
X840Y1146D02*
X857Y1146D01*
X880Y1146D02*
X884Y1146D01*
X935Y1146D02*
X957Y1146D01*
X975Y1146D02*
X989Y1146D01*
X0Y1145D02*
X4Y1145D01*
X272Y1145D02*
X279Y1145D01*
X305Y1145D02*
X312Y1145D01*
X717Y1145D02*
X719Y1145D01*
X746Y1145D02*
X761Y1145D01*
X778Y1145D02*
X793Y1145D01*
X806Y1145D02*
X808Y1145D01*
X824Y1145D02*
X826Y1145D01*
X841Y1145D02*
X855Y1145D01*
X880Y1145D02*
X884Y1145D01*
X935Y1145D02*
X956Y1145D01*
X977Y1145D02*
X988Y1145D01*
X0Y1144D02*
X4Y1144D01*
X273Y1144D02*
X278Y1144D01*
X306Y1144D02*
X310Y1144D01*
X879Y1144D02*
X883Y1144D01*
X0Y1143D02*
X4Y1143D01*
X879Y1143D02*
X883Y1143D01*
X0Y1142D02*
X4Y1142D01*
X878Y1142D02*
X882Y1142D01*
X0Y1141D02*
X4Y1141D01*
X878Y1141D02*
X882Y1141D01*
X0Y1140D02*
X4Y1140D01*
X877Y1140D02*
X881Y1140D01*
X0Y1139D02*
X4Y1139D01*
X871Y1139D02*
X881Y1139D01*
X0Y1138D02*
X4Y1138D01*
X870Y1138D02*
X881Y1138D01*
X0Y1137D02*
X4Y1137D01*
X870Y1137D02*
X880Y1137D01*
X0Y1136D02*
X4Y1136D01*
X871Y1136D02*
X880Y1136D01*
X0Y1135D02*
X4Y1135D01*
X872Y1135D02*
X878Y1135D01*
X0Y1134D02*
X4Y1134D01*
X0Y1133D02*
X4Y1133D01*
X0Y1132D02*
X4Y1132D01*
X0Y1131D02*
X4Y1131D01*
X0Y1130D02*
X4Y1130D01*
X1392Y1130D02*
X1397Y1130D01*
X1413Y1130D02*
X1418Y1130D01*
X0Y1129D02*
X4Y1129D01*
X1389Y1129D02*
X1401Y1129D01*
X1409Y1129D02*
X1421Y1129D01*
X0Y1128D02*
X4Y1128D01*
X1387Y1128D02*
X1402Y1128D01*
X1408Y1128D02*
X1423Y1128D01*
X0Y1127D02*
X4Y1127D01*
X1386Y1127D02*
X1403Y1127D01*
X1407Y1127D02*
X1424Y1127D01*
X0Y1126D02*
X4Y1126D01*
X270Y1126D02*
X273Y1126D01*
X298Y1126D02*
X301Y1126D01*
X1385Y1126D02*
X1425Y1126D01*
X0Y1125D02*
X4Y1125D01*
X269Y1125D02*
X274Y1125D01*
X298Y1125D02*
X302Y1125D01*
X1384Y1125D02*
X1426Y1125D01*
X0Y1124D02*
X4Y1124D01*
X269Y1124D02*
X274Y1124D01*
X297Y1124D02*
X302Y1124D01*
X1384Y1124D02*
X1392Y1124D01*
X1397Y1124D02*
X1413Y1124D01*
X1418Y1124D02*
X1426Y1124D01*
X0Y1123D02*
X4Y1123D01*
X269Y1123D02*
X274Y1123D01*
X297Y1123D02*
X302Y1123D01*
X1383Y1123D02*
X1390Y1123D01*
X1400Y1123D02*
X1410Y1123D01*
X1420Y1123D02*
X1427Y1123D01*
X0Y1122D02*
X4Y1122D01*
X269Y1122D02*
X274Y1122D01*
X297Y1122D02*
X302Y1122D01*
X1383Y1122D02*
X1389Y1122D01*
X1401Y1122D02*
X1409Y1122D01*
X1421Y1122D02*
X1427Y1122D01*
X0Y1121D02*
X4Y1121D01*
X269Y1121D02*
X274Y1121D01*
X297Y1121D02*
X302Y1121D01*
X1382Y1121D02*
X1388Y1121D01*
X1401Y1121D02*
X1409Y1121D01*
X1422Y1121D02*
X1428Y1121D01*
X0Y1120D02*
X4Y1120D01*
X269Y1120D02*
X274Y1120D01*
X297Y1120D02*
X302Y1120D01*
X311Y1120D02*
X317Y1120D01*
X1382Y1120D02*
X1387Y1120D01*
X1402Y1120D02*
X1408Y1120D01*
X1423Y1120D02*
X1428Y1120D01*
X0Y1119D02*
X4Y1119D01*
X269Y1119D02*
X274Y1119D01*
X297Y1119D02*
X302Y1119D01*
X311Y1119D02*
X317Y1119D01*
X1382Y1119D02*
X1387Y1119D01*
X1402Y1119D02*
X1408Y1119D01*
X1423Y1119D02*
X1428Y1119D01*
X0Y1118D02*
X4Y1118D01*
X269Y1118D02*
X274Y1118D01*
X297Y1118D02*
X302Y1118D01*
X310Y1118D02*
X318Y1118D01*
X1382Y1118D02*
X1387Y1118D01*
X1402Y1118D02*
X1408Y1118D01*
X1423Y1118D02*
X1428Y1118D01*
X0Y1117D02*
X4Y1117D01*
X269Y1117D02*
X302Y1117D01*
X310Y1117D02*
X318Y1117D01*
X1382Y1117D02*
X1387Y1117D01*
X1402Y1117D02*
X1408Y1117D01*
X1423Y1117D02*
X1428Y1117D01*
X0Y1116D02*
X4Y1116D01*
X269Y1116D02*
X302Y1116D01*
X310Y1116D02*
X318Y1116D01*
X1382Y1116D02*
X1387Y1116D01*
X1402Y1116D02*
X1408Y1116D01*
X1423Y1116D02*
X1428Y1116D01*
X0Y1115D02*
X4Y1115D01*
X269Y1115D02*
X302Y1115D01*
X310Y1115D02*
X318Y1115D01*
X1382Y1115D02*
X1387Y1115D01*
X1402Y1115D02*
X1408Y1115D01*
X1423Y1115D02*
X1428Y1115D01*
X0Y1114D02*
X4Y1114D01*
X269Y1114D02*
X302Y1114D01*
X310Y1114D02*
X318Y1114D01*
X1382Y1114D02*
X1387Y1114D01*
X1402Y1114D02*
X1408Y1114D01*
X1423Y1114D02*
X1428Y1114D01*
X0Y1113D02*
X4Y1113D01*
X269Y1113D02*
X302Y1113D01*
X311Y1113D02*
X317Y1113D01*
X1382Y1113D02*
X1387Y1113D01*
X1402Y1113D02*
X1408Y1113D01*
X1423Y1113D02*
X1428Y1113D01*
X0Y1112D02*
X4Y1112D01*
X269Y1112D02*
X301Y1112D01*
X312Y1112D02*
X316Y1112D01*
X1382Y1112D02*
X1387Y1112D01*
X1402Y1112D02*
X1408Y1112D01*
X1423Y1112D02*
X1428Y1112D01*
X0Y1111D02*
X4Y1111D01*
X269Y1111D02*
X274Y1111D01*
X1382Y1111D02*
X1387Y1111D01*
X1402Y1111D02*
X1408Y1111D01*
X1423Y1111D02*
X1428Y1111D01*
X0Y1110D02*
X4Y1110D01*
X269Y1110D02*
X274Y1110D01*
X1382Y1110D02*
X1387Y1110D01*
X1402Y1110D02*
X1408Y1110D01*
X1423Y1110D02*
X1428Y1110D01*
X0Y1109D02*
X4Y1109D01*
X269Y1109D02*
X274Y1109D01*
X1382Y1109D02*
X1387Y1109D01*
X1402Y1109D02*
X1408Y1109D01*
X1423Y1109D02*
X1428Y1109D01*
X0Y1108D02*
X4Y1108D01*
X269Y1108D02*
X274Y1108D01*
X1382Y1108D02*
X1387Y1108D01*
X1402Y1108D02*
X1408Y1108D01*
X1423Y1108D02*
X1428Y1108D01*
X0Y1107D02*
X4Y1107D01*
X269Y1107D02*
X274Y1107D01*
X1382Y1107D02*
X1387Y1107D01*
X1402Y1107D02*
X1408Y1107D01*
X1423Y1107D02*
X1428Y1107D01*
X0Y1106D02*
X4Y1106D01*
X269Y1106D02*
X274Y1106D01*
X1382Y1106D02*
X1428Y1106D01*
X0Y1105D02*
X4Y1105D01*
X269Y1105D02*
X274Y1105D01*
X1382Y1105D02*
X1428Y1105D01*
X0Y1104D02*
X4Y1104D01*
X270Y1104D02*
X274Y1104D01*
X1382Y1104D02*
X1428Y1104D01*
X0Y1103D02*
X4Y1103D01*
X271Y1103D02*
X273Y1103D01*
X1382Y1103D02*
X1428Y1103D01*
X0Y1102D02*
X4Y1102D01*
X1382Y1102D02*
X1428Y1102D01*
X0Y1101D02*
X4Y1101D01*
X1382Y1101D02*
X1428Y1101D01*
X0Y1100D02*
X4Y1100D01*
X0Y1099D02*
X4Y1099D01*
X0Y1098D02*
X4Y1098D01*
X0Y1097D02*
X4Y1097D01*
X0Y1096D02*
X4Y1096D01*
X0Y1095D02*
X4Y1095D01*
X0Y1094D02*
X4Y1094D01*
X0Y1093D02*
X4Y1093D01*
X0Y1092D02*
X4Y1092D01*
X0Y1091D02*
X4Y1091D01*
X0Y1090D02*
X4Y1090D01*
X0Y1089D02*
X4Y1089D01*
X0Y1088D02*
X4Y1088D01*
X0Y1087D02*
X4Y1087D01*
X0Y1086D02*
X4Y1086D01*
X1388Y1086D02*
X1391Y1086D01*
X1420Y1086D02*
X1423Y1086D01*
X0Y1085D02*
X4Y1085D01*
X276Y1085D02*
X295Y1085D01*
X1386Y1085D02*
X1392Y1085D01*
X1418Y1085D02*
X1425Y1085D01*
X0Y1084D02*
X4Y1084D01*
X274Y1084D02*
X297Y1084D01*
X1384Y1084D02*
X1392Y1084D01*
X1417Y1084D02*
X1426Y1084D01*
X0Y1083D02*
X4Y1083D01*
X273Y1083D02*
X298Y1083D01*
X1384Y1083D02*
X1392Y1083D01*
X1416Y1083D02*
X1427Y1083D01*
X0Y1082D02*
X4Y1082D01*
X272Y1082D02*
X299Y1082D01*
X1383Y1082D02*
X1392Y1082D01*
X1414Y1082D02*
X1428Y1082D01*
X0Y1081D02*
X4Y1081D01*
X272Y1081D02*
X300Y1081D01*
X1382Y1081D02*
X1391Y1081D01*
X1413Y1081D02*
X1428Y1081D01*
X0Y1080D02*
X4Y1080D01*
X271Y1080D02*
X301Y1080D01*
X1382Y1080D02*
X1388Y1080D01*
X1412Y1080D02*
X1421Y1080D01*
X1423Y1080D02*
X1428Y1080D01*
X0Y1079D02*
X4Y1079D01*
X270Y1079D02*
X277Y1079D01*
X294Y1079D02*
X301Y1079D01*
X1382Y1079D02*
X1387Y1079D01*
X1410Y1079D02*
X1420Y1079D01*
X1423Y1079D02*
X1428Y1079D01*
X0Y1078D02*
X4Y1078D01*
X270Y1078D02*
X276Y1078D01*
X295Y1078D02*
X302Y1078D01*
X1382Y1078D02*
X1387Y1078D01*
X1409Y1078D02*
X1418Y1078D01*
X1423Y1078D02*
X1428Y1078D01*
X0Y1077D02*
X4Y1077D01*
X269Y1077D02*
X275Y1077D01*
X296Y1077D02*
X302Y1077D01*
X1382Y1077D02*
X1387Y1077D01*
X1408Y1077D02*
X1417Y1077D01*
X1423Y1077D02*
X1428Y1077D01*
X0Y1076D02*
X4Y1076D01*
X269Y1076D02*
X275Y1076D01*
X297Y1076D02*
X302Y1076D01*
X1382Y1076D02*
X1387Y1076D01*
X1407Y1076D02*
X1416Y1076D01*
X1423Y1076D02*
X1428Y1076D01*
X0Y1075D02*
X4Y1075D01*
X269Y1075D02*
X274Y1075D01*
X297Y1075D02*
X302Y1075D01*
X1382Y1075D02*
X1387Y1075D01*
X1405Y1075D02*
X1414Y1075D01*
X1423Y1075D02*
X1428Y1075D01*
X0Y1074D02*
X4Y1074D01*
X269Y1074D02*
X274Y1074D01*
X297Y1074D02*
X302Y1074D01*
X1382Y1074D02*
X1387Y1074D01*
X1404Y1074D02*
X1413Y1074D01*
X1423Y1074D02*
X1428Y1074D01*
X0Y1073D02*
X4Y1073D01*
X269Y1073D02*
X274Y1073D01*
X297Y1073D02*
X302Y1073D01*
X1382Y1073D02*
X1387Y1073D01*
X1403Y1073D02*
X1412Y1073D01*
X1423Y1073D02*
X1428Y1073D01*
X0Y1072D02*
X4Y1072D01*
X269Y1072D02*
X274Y1072D01*
X297Y1072D02*
X302Y1072D01*
X1382Y1072D02*
X1387Y1072D01*
X1401Y1072D02*
X1411Y1072D01*
X1423Y1072D02*
X1428Y1072D01*
X0Y1071D02*
X4Y1071D01*
X269Y1071D02*
X274Y1071D01*
X297Y1071D02*
X302Y1071D01*
X1382Y1071D02*
X1387Y1071D01*
X1400Y1071D02*
X1409Y1071D01*
X1423Y1071D02*
X1428Y1071D01*
X0Y1070D02*
X4Y1070D01*
X269Y1070D02*
X274Y1070D01*
X297Y1070D02*
X302Y1070D01*
X1382Y1070D02*
X1387Y1070D01*
X1399Y1070D02*
X1408Y1070D01*
X1423Y1070D02*
X1428Y1070D01*
X0Y1069D02*
X4Y1069D01*
X269Y1069D02*
X274Y1069D01*
X297Y1069D02*
X302Y1069D01*
X1382Y1069D02*
X1387Y1069D01*
X1398Y1069D02*
X1407Y1069D01*
X1423Y1069D02*
X1428Y1069D01*
X0Y1068D02*
X4Y1068D01*
X269Y1068D02*
X275Y1068D01*
X296Y1068D02*
X302Y1068D01*
X1382Y1068D02*
X1387Y1068D01*
X1396Y1068D02*
X1405Y1068D01*
X1423Y1068D02*
X1428Y1068D01*
X0Y1067D02*
X4Y1067D01*
X270Y1067D02*
X276Y1067D01*
X296Y1067D02*
X302Y1067D01*
X1382Y1067D02*
X1387Y1067D01*
X1395Y1067D02*
X1404Y1067D01*
X1423Y1067D02*
X1428Y1067D01*
X0Y1066D02*
X4Y1066D01*
X270Y1066D02*
X277Y1066D01*
X295Y1066D02*
X301Y1066D01*
X1382Y1066D02*
X1387Y1066D01*
X1394Y1066D02*
X1403Y1066D01*
X1423Y1066D02*
X1428Y1066D01*
X0Y1065D02*
X4Y1065D01*
X271Y1065D02*
X278Y1065D01*
X294Y1065D02*
X301Y1065D01*
X1382Y1065D02*
X1387Y1065D01*
X1392Y1065D02*
X1402Y1065D01*
X1423Y1065D02*
X1428Y1065D01*
X0Y1064D02*
X4Y1064D01*
X271Y1064D02*
X278Y1064D01*
X293Y1064D02*
X300Y1064D01*
X1382Y1064D02*
X1387Y1064D01*
X1391Y1064D02*
X1400Y1064D01*
X1423Y1064D02*
X1428Y1064D01*
X0Y1063D02*
X4Y1063D01*
X272Y1063D02*
X279Y1063D01*
X292Y1063D02*
X299Y1063D01*
X1382Y1063D02*
X1387Y1063D01*
X1390Y1063D02*
X1399Y1063D01*
X1422Y1063D02*
X1428Y1063D01*
X0Y1062D02*
X4Y1062D01*
X272Y1062D02*
X281Y1062D01*
X291Y1062D02*
X299Y1062D01*
X1382Y1062D02*
X1398Y1062D01*
X1420Y1062D02*
X1428Y1062D01*
X0Y1061D02*
X4Y1061D01*
X270Y1061D02*
X314Y1061D01*
X1382Y1061D02*
X1396Y1061D01*
X1418Y1061D02*
X1427Y1061D01*
X0Y1060D02*
X4Y1060D01*
X269Y1060D02*
X315Y1060D01*
X1383Y1060D02*
X1395Y1060D01*
X1418Y1060D02*
X1427Y1060D01*
X0Y1059D02*
X4Y1059D01*
X269Y1059D02*
X315Y1059D01*
X1383Y1059D02*
X1394Y1059D01*
X1418Y1059D02*
X1426Y1059D01*
X0Y1058D02*
X4Y1058D01*
X269Y1058D02*
X315Y1058D01*
X1384Y1058D02*
X1393Y1058D01*
X1418Y1058D02*
X1425Y1058D01*
X0Y1057D02*
X4Y1057D01*
X270Y1057D02*
X315Y1057D01*
X1386Y1057D02*
X1391Y1057D01*
X1419Y1057D02*
X1423Y1057D01*
X0Y1056D02*
X4Y1056D01*
X271Y1056D02*
X313Y1056D01*
X0Y1055D02*
X4Y1055D01*
X0Y1054D02*
X4Y1054D01*
X0Y1053D02*
X4Y1053D01*
X0Y1052D02*
X4Y1052D01*
X0Y1051D02*
X4Y1051D01*
X0Y1050D02*
X4Y1050D01*
X0Y1049D02*
X4Y1049D01*
X0Y1048D02*
X4Y1048D01*
X0Y1047D02*
X4Y1047D01*
X0Y1046D02*
X4Y1046D01*
X0Y1045D02*
X4Y1045D01*
X0Y1044D02*
X4Y1044D01*
X0Y1043D02*
X4Y1043D01*
X0Y1042D02*
X4Y1042D01*
X279Y1042D02*
X292Y1042D01*
X1383Y1042D02*
X1422Y1042D01*
X0Y1041D02*
X4Y1041D01*
X276Y1041D02*
X296Y1041D01*
X1382Y1041D02*
X1424Y1041D01*
X0Y1040D02*
X4Y1040D01*
X274Y1040D02*
X297Y1040D01*
X1382Y1040D02*
X1425Y1040D01*
X0Y1039D02*
X4Y1039D01*
X273Y1039D02*
X298Y1039D01*
X1382Y1039D02*
X1426Y1039D01*
X0Y1038D02*
X4Y1038D01*
X272Y1038D02*
X299Y1038D01*
X1382Y1038D02*
X1427Y1038D01*
X0Y1037D02*
X4Y1037D01*
X271Y1037D02*
X300Y1037D01*
X1383Y1037D02*
X1427Y1037D01*
X0Y1036D02*
X4Y1036D01*
X271Y1036D02*
X301Y1036D01*
X1422Y1036D02*
X1428Y1036D01*
X0Y1035D02*
X4Y1035D01*
X270Y1035D02*
X277Y1035D01*
X282Y1035D02*
X287Y1035D01*
X295Y1035D02*
X301Y1035D01*
X1422Y1035D02*
X1428Y1035D01*
X0Y1034D02*
X4Y1034D01*
X270Y1034D02*
X276Y1034D01*
X282Y1034D02*
X287Y1034D01*
X296Y1034D02*
X302Y1034D01*
X1423Y1034D02*
X1428Y1034D01*
X0Y1033D02*
X4Y1033D01*
X269Y1033D02*
X275Y1033D01*
X282Y1033D02*
X287Y1033D01*
X296Y1033D02*
X302Y1033D01*
X1423Y1033D02*
X1428Y1033D01*
X0Y1032D02*
X4Y1032D01*
X269Y1032D02*
X274Y1032D01*
X282Y1032D02*
X287Y1032D01*
X297Y1032D02*
X302Y1032D01*
X1423Y1032D02*
X1428Y1032D01*
X0Y1031D02*
X4Y1031D01*
X269Y1031D02*
X274Y1031D01*
X282Y1031D02*
X287Y1031D01*
X297Y1031D02*
X302Y1031D01*
X1423Y1031D02*
X1428Y1031D01*
X0Y1030D02*
X4Y1030D01*
X269Y1030D02*
X274Y1030D01*
X282Y1030D02*
X287Y1030D01*
X297Y1030D02*
X302Y1030D01*
X1423Y1030D02*
X1428Y1030D01*
X0Y1029D02*
X4Y1029D01*
X269Y1029D02*
X274Y1029D01*
X282Y1029D02*
X287Y1029D01*
X297Y1029D02*
X302Y1029D01*
X1423Y1029D02*
X1428Y1029D01*
X0Y1028D02*
X4Y1028D01*
X269Y1028D02*
X274Y1028D01*
X282Y1028D02*
X287Y1028D01*
X297Y1028D02*
X302Y1028D01*
X1423Y1028D02*
X1428Y1028D01*
X0Y1027D02*
X4Y1027D01*
X269Y1027D02*
X274Y1027D01*
X282Y1027D02*
X287Y1027D01*
X297Y1027D02*
X302Y1027D01*
X1423Y1027D02*
X1428Y1027D01*
X0Y1026D02*
X4Y1026D01*
X269Y1026D02*
X274Y1026D01*
X282Y1026D02*
X287Y1026D01*
X297Y1026D02*
X302Y1026D01*
X1423Y1026D02*
X1428Y1026D01*
X0Y1025D02*
X4Y1025D01*
X269Y1025D02*
X274Y1025D01*
X282Y1025D02*
X287Y1025D01*
X297Y1025D02*
X302Y1025D01*
X1423Y1025D02*
X1428Y1025D01*
X0Y1024D02*
X4Y1024D01*
X269Y1024D02*
X274Y1024D01*
X282Y1024D02*
X287Y1024D01*
X297Y1024D02*
X302Y1024D01*
X1423Y1024D02*
X1428Y1024D01*
X0Y1023D02*
X4Y1023D01*
X269Y1023D02*
X274Y1023D01*
X282Y1023D02*
X287Y1023D01*
X297Y1023D02*
X302Y1023D01*
X1423Y1023D02*
X1428Y1023D01*
X0Y1022D02*
X4Y1022D01*
X269Y1022D02*
X274Y1022D01*
X282Y1022D02*
X287Y1022D01*
X297Y1022D02*
X302Y1022D01*
X1423Y1022D02*
X1428Y1022D01*
X0Y1021D02*
X4Y1021D01*
X269Y1021D02*
X274Y1021D01*
X282Y1021D02*
X287Y1021D01*
X296Y1021D02*
X302Y1021D01*
X1423Y1021D02*
X1428Y1021D01*
X0Y1020D02*
X4Y1020D01*
X269Y1020D02*
X274Y1020D01*
X282Y1020D02*
X287Y1020D01*
X296Y1020D02*
X302Y1020D01*
X1422Y1020D02*
X1428Y1020D01*
X0Y1019D02*
X4Y1019D01*
X269Y1019D02*
X274Y1019D01*
X282Y1019D02*
X287Y1019D01*
X295Y1019D02*
X301Y1019D01*
X1421Y1019D02*
X1428Y1019D01*
X0Y1018D02*
X4Y1018D01*
X269Y1018D02*
X274Y1018D01*
X282Y1018D02*
X301Y1018D01*
X1383Y1018D02*
X1427Y1018D01*
X0Y1017D02*
X4Y1017D01*
X269Y1017D02*
X274Y1017D01*
X282Y1017D02*
X300Y1017D01*
X1382Y1017D02*
X1427Y1017D01*
X0Y1016D02*
X4Y1016D01*
X269Y1016D02*
X274Y1016D01*
X282Y1016D02*
X299Y1016D01*
X1382Y1016D02*
X1426Y1016D01*
X0Y1015D02*
X4Y1015D01*
X269Y1015D02*
X274Y1015D01*
X282Y1015D02*
X298Y1015D01*
X1382Y1015D02*
X1425Y1015D01*
X0Y1014D02*
X4Y1014D01*
X269Y1014D02*
X274Y1014D01*
X282Y1014D02*
X297Y1014D01*
X1382Y1014D02*
X1424Y1014D01*
X0Y1013D02*
X4Y1013D01*
X270Y1013D02*
X273Y1013D01*
X283Y1013D02*
X296Y1013D01*
X1383Y1013D02*
X1422Y1013D01*
X0Y1012D02*
X4Y1012D01*
X285Y1012D02*
X292Y1012D01*
X0Y1011D02*
X4Y1011D01*
X0Y1010D02*
X4Y1010D01*
X0Y1009D02*
X4Y1009D01*
X0Y1008D02*
X4Y1008D01*
X0Y1007D02*
X4Y1007D01*
X0Y1006D02*
X4Y1006D01*
X0Y1005D02*
X4Y1005D01*
X0Y1004D02*
X4Y1004D01*
X0Y1003D02*
X4Y1003D01*
X0Y1002D02*
X4Y1002D01*
X0Y1001D02*
X4Y1001D01*
X0Y1000D02*
X4Y1000D01*
X0Y999D02*
X4Y999D01*
X0Y998D02*
X4Y998D01*
X0Y997D02*
X4Y997D01*
X0Y996D02*
X4Y996D01*
X0Y995D02*
X4Y995D01*
X0Y994D02*
X4Y994D01*
X0Y993D02*
X4Y993D01*
X0Y992D02*
X4Y992D01*
X0Y991D02*
X4Y991D01*
X0Y990D02*
X4Y990D01*
X0Y989D02*
X4Y989D01*
X0Y988D02*
X4Y988D01*
X0Y987D02*
X4Y987D01*
X0Y986D02*
X4Y986D01*
X0Y985D02*
X4Y985D01*
X0Y984D02*
X4Y984D01*
X0Y983D02*
X4Y983D01*
X0Y982D02*
X4Y982D01*
X0Y981D02*
X4Y981D01*
X0Y980D02*
X4Y980D01*
X0Y979D02*
X4Y979D01*
X0Y978D02*
X4Y978D01*
X0Y977D02*
X4Y977D01*
X0Y976D02*
X4Y976D01*
X0Y975D02*
X4Y975D01*
X0Y974D02*
X4Y974D01*
X0Y973D02*
X4Y973D01*
X0Y972D02*
X4Y972D01*
X0Y971D02*
X4Y971D01*
X0Y970D02*
X4Y970D01*
X0Y969D02*
X4Y969D01*
X0Y968D02*
X4Y968D01*
X0Y967D02*
X4Y967D01*
X0Y966D02*
X4Y966D01*
X0Y965D02*
X4Y965D01*
X0Y964D02*
X4Y964D01*
X0Y963D02*
X4Y963D01*
X0Y962D02*
X4Y962D01*
X0Y961D02*
X4Y961D01*
X0Y960D02*
X4Y960D01*
X0Y959D02*
X4Y959D01*
X0Y958D02*
X4Y958D01*
X0Y957D02*
X4Y957D01*
X0Y956D02*
X4Y956D01*
X0Y955D02*
X4Y955D01*
X0Y954D02*
X4Y954D01*
X0Y953D02*
X4Y953D01*
X0Y952D02*
X4Y952D01*
X0Y951D02*
X4Y951D01*
X0Y950D02*
X4Y950D01*
X0Y949D02*
X4Y949D01*
X0Y948D02*
X4Y948D01*
X0Y947D02*
X4Y947D01*
X0Y946D02*
X4Y946D01*
X0Y945D02*
X4Y945D01*
X0Y944D02*
X4Y944D01*
X0Y943D02*
X4Y943D01*
X0Y942D02*
X4Y942D01*
X0Y941D02*
X4Y941D01*
X0Y940D02*
X4Y940D01*
X0Y939D02*
X4Y939D01*
X0Y938D02*
X4Y938D01*
X0Y937D02*
X4Y937D01*
X0Y936D02*
X4Y936D01*
X0Y935D02*
X4Y935D01*
X0Y934D02*
X4Y934D01*
X0Y933D02*
X4Y933D01*
X0Y932D02*
X4Y932D01*
X0Y931D02*
X4Y931D01*
X0Y930D02*
X4Y930D01*
X0Y929D02*
X4Y929D01*
X0Y928D02*
X4Y928D01*
X0Y927D02*
X4Y927D01*
X0Y926D02*
X4Y926D01*
X0Y925D02*
X4Y925D01*
X0Y924D02*
X4Y924D01*
X0Y923D02*
X4Y923D01*
X0Y922D02*
X4Y922D01*
X0Y921D02*
X4Y921D01*
X0Y920D02*
X4Y920D01*
X0Y919D02*
X4Y919D01*
X0Y918D02*
X4Y918D01*
X0Y917D02*
X4Y917D01*
X0Y916D02*
X4Y916D01*
X0Y915D02*
X4Y915D01*
X0Y914D02*
X4Y914D01*
X0Y913D02*
X4Y913D01*
X0Y912D02*
X4Y912D01*
X0Y911D02*
X4Y911D01*
X0Y910D02*
X4Y910D01*
X0Y909D02*
X4Y909D01*
X0Y908D02*
X4Y908D01*
X0Y907D02*
X4Y907D01*
X0Y906D02*
X4Y906D01*
X0Y905D02*
X4Y905D01*
X0Y904D02*
X4Y904D01*
X0Y903D02*
X4Y903D01*
X0Y902D02*
X4Y902D01*
X0Y901D02*
X4Y901D01*
X0Y900D02*
X4Y900D01*
X0Y899D02*
X4Y899D01*
X0Y898D02*
X4Y898D01*
X0Y897D02*
X4Y897D01*
X0Y896D02*
X4Y896D01*
X0Y895D02*
X4Y895D01*
X0Y894D02*
X4Y894D01*
X0Y893D02*
X4Y893D01*
X0Y892D02*
X4Y892D01*
X0Y891D02*
X4Y891D01*
X0Y890D02*
X4Y890D01*
X0Y889D02*
X4Y889D01*
X0Y888D02*
X4Y888D01*
X0Y887D02*
X4Y887D01*
X0Y886D02*
X4Y886D01*
X0Y885D02*
X4Y885D01*
X0Y884D02*
X4Y884D01*
X0Y883D02*
X4Y883D01*
X0Y882D02*
X4Y882D01*
X0Y881D02*
X4Y881D01*
X0Y880D02*
X4Y880D01*
X0Y879D02*
X4Y879D01*
X0Y878D02*
X4Y878D01*
X0Y877D02*
X4Y877D01*
X0Y876D02*
X4Y876D01*
X0Y875D02*
X4Y875D01*
X0Y874D02*
X4Y874D01*
X0Y873D02*
X4Y873D01*
X0Y872D02*
X4Y872D01*
X0Y871D02*
X4Y871D01*
X0Y870D02*
X4Y870D01*
X0Y869D02*
X4Y869D01*
X0Y868D02*
X4Y868D01*
X0Y867D02*
X4Y867D01*
X0Y866D02*
X4Y866D01*
X0Y865D02*
X4Y865D01*
X0Y864D02*
X4Y864D01*
X0Y863D02*
X4Y863D01*
X0Y862D02*
X4Y862D01*
X0Y861D02*
X4Y861D01*
X0Y860D02*
X4Y860D01*
X0Y859D02*
X4Y859D01*
X0Y858D02*
X4Y858D01*
X0Y857D02*
X4Y857D01*
X0Y856D02*
X4Y856D01*
X0Y855D02*
X4Y855D01*
X0Y854D02*
X4Y854D01*
X0Y853D02*
X4Y853D01*
X0Y852D02*
X4Y852D01*
X0Y851D02*
X4Y851D01*
X0Y850D02*
X4Y850D01*
X0Y849D02*
X4Y849D01*
X0Y848D02*
X4Y848D01*
X0Y847D02*
X4Y847D01*
X0Y846D02*
X4Y846D01*
X0Y845D02*
X4Y845D01*
X0Y844D02*
X4Y844D01*
X0Y843D02*
X4Y843D01*
X0Y842D02*
X4Y842D01*
X0Y841D02*
X4Y841D01*
X0Y840D02*
X4Y840D01*
X0Y839D02*
X4Y839D01*
X0Y838D02*
X4Y838D01*
X0Y837D02*
X4Y837D01*
X0Y836D02*
X4Y836D01*
X0Y835D02*
X4Y835D01*
X0Y834D02*
X4Y834D01*
X0Y833D02*
X4Y833D01*
X0Y832D02*
X4Y832D01*
X0Y831D02*
X4Y831D01*
X0Y830D02*
X4Y830D01*
X0Y829D02*
X4Y829D01*
X0Y828D02*
X4Y828D01*
X0Y827D02*
X4Y827D01*
X0Y826D02*
X4Y826D01*
X0Y825D02*
X4Y825D01*
X0Y824D02*
X4Y824D01*
X0Y823D02*
X4Y823D01*
X0Y822D02*
X4Y822D01*
X0Y821D02*
X4Y821D01*
X0Y820D02*
X4Y820D01*
X0Y819D02*
X4Y819D01*
X0Y818D02*
X4Y818D01*
X0Y817D02*
X4Y817D01*
X0Y816D02*
X4Y816D01*
X0Y815D02*
X4Y815D01*
X0Y814D02*
X4Y814D01*
X0Y813D02*
X4Y813D01*
X0Y812D02*
X4Y812D01*
X0Y811D02*
X4Y811D01*
X0Y810D02*
X4Y810D01*
X0Y809D02*
X4Y809D01*
X0Y808D02*
X4Y808D01*
X0Y807D02*
X4Y807D01*
X0Y806D02*
X4Y806D01*
X0Y805D02*
X4Y805D01*
X0Y804D02*
X4Y804D01*
X0Y803D02*
X4Y803D01*
X0Y802D02*
X4Y802D01*
X0Y801D02*
X4Y801D01*
X0Y800D02*
X4Y800D01*
X0Y799D02*
X4Y799D01*
X0Y798D02*
X4Y798D01*
X0Y797D02*
X4Y797D01*
X0Y796D02*
X4Y796D01*
X0Y795D02*
X4Y795D01*
X0Y794D02*
X4Y794D01*
X0Y793D02*
X4Y793D01*
X0Y792D02*
X4Y792D01*
X0Y791D02*
X4Y791D01*
X0Y790D02*
X4Y790D01*
X0Y789D02*
X4Y789D01*
X0Y788D02*
X4Y788D01*
X0Y787D02*
X4Y787D01*
X0Y786D02*
X4Y786D01*
X0Y785D02*
X4Y785D01*
X0Y784D02*
X4Y784D01*
X0Y783D02*
X4Y783D01*
X0Y782D02*
X4Y782D01*
X0Y781D02*
X4Y781D01*
X0Y780D02*
X4Y780D01*
X0Y779D02*
X4Y779D01*
X0Y778D02*
X4Y778D01*
X0Y777D02*
X4Y777D01*
X0Y776D02*
X4Y776D01*
X0Y775D02*
X4Y775D01*
X0Y774D02*
X4Y774D01*
X0Y773D02*
X4Y773D01*
X0Y772D02*
X4Y772D01*
X0Y771D02*
X4Y771D01*
X0Y770D02*
X4Y770D01*
X0Y769D02*
X4Y769D01*
X0Y768D02*
X4Y768D01*
X0Y767D02*
X4Y767D01*
X0Y766D02*
X4Y766D01*
X0Y765D02*
X4Y765D01*
X0Y764D02*
X4Y764D01*
X0Y763D02*
X4Y763D01*
X0Y762D02*
X4Y762D01*
X0Y761D02*
X4Y761D01*
X0Y760D02*
X4Y760D01*
X0Y759D02*
X4Y759D01*
X0Y758D02*
X4Y758D01*
X0Y757D02*
X4Y757D01*
X0Y756D02*
X4Y756D01*
X0Y755D02*
X4Y755D01*
X0Y754D02*
X4Y754D01*
X0Y753D02*
X4Y753D01*
X0Y752D02*
X4Y752D01*
X0Y751D02*
X4Y751D01*
X0Y750D02*
X4Y750D01*
X0Y749D02*
X4Y749D01*
X0Y748D02*
X4Y748D01*
X0Y747D02*
X4Y747D01*
X0Y746D02*
X4Y746D01*
X0Y745D02*
X4Y745D01*
X876Y745D02*
X877Y745D01*
X913Y745D02*
X914Y745D01*
X0Y744D02*
X4Y744D01*
X873Y744D02*
X879Y744D01*
X910Y744D02*
X917Y744D01*
X0Y743D02*
X4Y743D01*
X872Y743D02*
X879Y743D01*
X909Y743D02*
X918Y743D01*
X0Y742D02*
X4Y742D01*
X870Y742D02*
X880Y742D01*
X908Y742D02*
X919Y742D01*
X0Y741D02*
X4Y741D01*
X870Y741D02*
X880Y741D01*
X906Y741D02*
X920Y741D01*
X0Y740D02*
X4Y740D01*
X869Y740D02*
X879Y740D01*
X905Y740D02*
X921Y740D01*
X0Y739D02*
X4Y739D01*
X869Y739D02*
X879Y739D01*
X904Y739D02*
X921Y739D01*
X0Y738D02*
X4Y738D01*
X868Y738D02*
X876Y738D01*
X902Y738D02*
X921Y738D01*
X0Y737D02*
X4Y737D01*
X868Y737D02*
X874Y737D01*
X901Y737D02*
X912Y737D01*
X915Y737D02*
X921Y737D01*
X0Y736D02*
X4Y736D01*
X868Y736D02*
X874Y736D01*
X900Y736D02*
X910Y736D01*
X915Y736D02*
X921Y736D01*
X0Y735D02*
X4Y735D01*
X868Y735D02*
X874Y735D01*
X899Y735D02*
X909Y735D01*
X915Y735D02*
X921Y735D01*
X0Y734D02*
X4Y734D01*
X868Y734D02*
X874Y734D01*
X897Y734D02*
X908Y734D01*
X915Y734D02*
X921Y734D01*
X0Y733D02*
X4Y733D01*
X868Y733D02*
X874Y733D01*
X896Y733D02*
X907Y733D01*
X915Y733D02*
X921Y733D01*
X0Y732D02*
X4Y732D01*
X868Y732D02*
X874Y732D01*
X895Y732D02*
X905Y732D01*
X915Y732D02*
X921Y732D01*
X0Y731D02*
X4Y731D01*
X868Y731D02*
X874Y731D01*
X893Y731D02*
X904Y731D01*
X915Y731D02*
X921Y731D01*
X0Y730D02*
X4Y730D01*
X868Y730D02*
X874Y730D01*
X892Y730D02*
X903Y730D01*
X915Y730D02*
X921Y730D01*
X0Y729D02*
X4Y729D01*
X868Y729D02*
X874Y729D01*
X891Y729D02*
X901Y729D01*
X915Y729D02*
X921Y729D01*
X0Y728D02*
X4Y728D01*
X868Y728D02*
X874Y728D01*
X890Y728D02*
X900Y728D01*
X915Y728D02*
X921Y728D01*
X0Y727D02*
X4Y727D01*
X868Y727D02*
X874Y727D01*
X888Y727D02*
X899Y727D01*
X915Y727D02*
X921Y727D01*
X0Y726D02*
X4Y726D01*
X868Y726D02*
X874Y726D01*
X887Y726D02*
X898Y726D01*
X915Y726D02*
X921Y726D01*
X0Y725D02*
X4Y725D01*
X868Y725D02*
X874Y725D01*
X886Y725D02*
X896Y725D01*
X915Y725D02*
X921Y725D01*
X0Y724D02*
X4Y724D01*
X868Y724D02*
X874Y724D01*
X884Y724D02*
X895Y724D01*
X915Y724D02*
X921Y724D01*
X0Y723D02*
X4Y723D01*
X868Y723D02*
X874Y723D01*
X883Y723D02*
X894Y723D01*
X915Y723D02*
X921Y723D01*
X0Y722D02*
X4Y722D01*
X868Y722D02*
X874Y722D01*
X882Y722D02*
X892Y722D01*
X915Y722D02*
X921Y722D01*
X0Y721D02*
X4Y721D01*
X868Y721D02*
X874Y721D01*
X881Y721D02*
X891Y721D01*
X915Y721D02*
X921Y721D01*
X0Y720D02*
X4Y720D01*
X868Y720D02*
X874Y720D01*
X879Y720D02*
X890Y720D01*
X915Y720D02*
X921Y720D01*
X0Y719D02*
X4Y719D01*
X868Y719D02*
X874Y719D01*
X878Y719D02*
X889Y719D01*
X915Y719D02*
X921Y719D01*
X0Y718D02*
X4Y718D01*
X868Y718D02*
X874Y718D01*
X877Y718D02*
X887Y718D01*
X914Y718D02*
X921Y718D01*
X0Y717D02*
X4Y717D01*
X868Y717D02*
X886Y717D01*
X911Y717D02*
X921Y717D01*
X0Y716D02*
X4Y716D01*
X868Y716D02*
X885Y716D01*
X910Y716D02*
X920Y716D01*
X0Y715D02*
X4Y715D01*
X869Y715D02*
X883Y715D01*
X909Y715D02*
X920Y715D01*
X0Y714D02*
X4Y714D01*
X869Y714D02*
X882Y714D01*
X909Y714D02*
X919Y714D01*
X0Y713D02*
X4Y713D01*
X870Y713D02*
X881Y713D01*
X909Y713D02*
X918Y713D01*
X0Y712D02*
X4Y712D01*
X871Y712D02*
X879Y712D01*
X910Y712D02*
X917Y712D01*
X0Y711D02*
X4Y711D01*
X873Y711D02*
X877Y711D01*
X911Y711D02*
X915Y711D01*
X0Y710D02*
X4Y710D01*
X0Y709D02*
X4Y709D01*
X0Y708D02*
X4Y708D01*
X0Y707D02*
X4Y707D01*
X0Y706D02*
X4Y706D01*
X0Y705D02*
X4Y705D01*
X0Y704D02*
X4Y704D01*
X0Y703D02*
X4Y703D01*
X0Y702D02*
X4Y702D01*
X0Y701D02*
X4Y701D01*
X0Y700D02*
X4Y700D01*
X0Y699D02*
X4Y699D01*
X0Y698D02*
X4Y698D01*
X0Y697D02*
X4Y697D01*
X0Y696D02*
X4Y696D01*
X0Y695D02*
X4Y695D01*
X0Y694D02*
X4Y694D01*
X869Y694D02*
X885Y694D01*
X0Y693D02*
X4Y693D01*
X868Y693D02*
X888Y693D01*
X0Y692D02*
X4Y692D01*
X868Y692D02*
X890Y692D01*
X0Y691D02*
X4Y691D01*
X868Y691D02*
X893Y691D01*
X0Y690D02*
X4Y690D01*
X868Y690D02*
X895Y690D01*
X0Y689D02*
X4Y689D01*
X869Y689D02*
X898Y689D01*
X0Y688D02*
X4Y688D01*
X871Y688D02*
X901Y688D01*
X0Y687D02*
X4Y687D01*
X885Y687D02*
X903Y687D01*
X0Y686D02*
X4Y686D01*
X887Y686D02*
X906Y686D01*
X0Y685D02*
X4Y685D01*
X890Y685D02*
X908Y685D01*
X0Y684D02*
X4Y684D01*
X892Y684D02*
X911Y684D01*
X0Y683D02*
X4Y683D01*
X895Y683D02*
X913Y683D01*
X0Y682D02*
X4Y682D01*
X898Y682D02*
X916Y682D01*
X0Y681D02*
X4Y681D01*
X900Y681D02*
X919Y681D01*
X0Y680D02*
X4Y680D01*
X903Y680D02*
X920Y680D01*
X0Y679D02*
X4Y679D01*
X905Y679D02*
X921Y679D01*
X0Y678D02*
X4Y678D01*
X908Y678D02*
X921Y678D01*
X0Y677D02*
X4Y677D01*
X907Y677D02*
X921Y677D01*
X0Y676D02*
X4Y676D01*
X905Y676D02*
X921Y676D01*
X0Y675D02*
X4Y675D01*
X902Y675D02*
X920Y675D01*
X0Y674D02*
X4Y674D01*
X900Y674D02*
X918Y674D01*
X0Y673D02*
X4Y673D01*
X897Y673D02*
X916Y673D01*
X0Y672D02*
X4Y672D01*
X894Y672D02*
X913Y672D01*
X0Y671D02*
X4Y671D01*
X892Y671D02*
X910Y671D01*
X0Y670D02*
X4Y670D01*
X889Y670D02*
X908Y670D01*
X0Y669D02*
X4Y669D01*
X887Y669D02*
X905Y669D01*
X0Y668D02*
X4Y668D01*
X884Y668D02*
X903Y668D01*
X0Y667D02*
X4Y667D01*
X870Y667D02*
X900Y667D01*
X0Y666D02*
X4Y666D01*
X869Y666D02*
X898Y666D01*
X0Y665D02*
X4Y665D01*
X868Y665D02*
X895Y665D01*
X0Y664D02*
X4Y664D01*
X868Y664D02*
X892Y664D01*
X0Y663D02*
X4Y663D01*
X868Y663D02*
X890Y663D01*
X0Y662D02*
X4Y662D01*
X868Y662D02*
X887Y662D01*
X0Y661D02*
X4Y661D01*
X869Y661D02*
X885Y661D01*
X0Y660D02*
X4Y660D01*
X0Y659D02*
X4Y659D01*
X0Y658D02*
X4Y658D01*
X0Y657D02*
X4Y657D01*
X0Y656D02*
X4Y656D01*
X0Y655D02*
X4Y655D01*
X0Y654D02*
X4Y654D01*
X0Y653D02*
X4Y653D01*
X0Y652D02*
X4Y652D01*
X0Y651D02*
X4Y651D01*
X0Y650D02*
X4Y650D01*
X0Y649D02*
X4Y649D01*
X0Y648D02*
X4Y648D01*
X0Y647D02*
X4Y647D01*
X0Y646D02*
X4Y646D01*
X0Y645D02*
X4Y645D01*
X0Y644D02*
X4Y644D01*
X0Y643D02*
X4Y643D01*
X0Y642D02*
X4Y642D01*
X0Y641D02*
X4Y641D01*
X0Y640D02*
X4Y640D01*
X0Y639D02*
X4Y639D01*
X0Y638D02*
X4Y638D01*
X0Y637D02*
X4Y637D01*
X0Y636D02*
X4Y636D01*
X0Y635D02*
X4Y635D01*
X0Y634D02*
X4Y634D01*
X0Y633D02*
X4Y633D01*
X0Y632D02*
X4Y632D01*
X0Y631D02*
X4Y631D01*
X0Y630D02*
X4Y630D01*
X0Y629D02*
X4Y629D01*
X0Y628D02*
X4Y628D01*
X0Y627D02*
X4Y627D01*
X0Y626D02*
X4Y626D01*
X0Y625D02*
X4Y625D01*
X0Y624D02*
X4Y624D01*
X0Y623D02*
X4Y623D01*
X0Y622D02*
X4Y622D01*
X0Y621D02*
X4Y621D01*
X0Y620D02*
X4Y620D01*
X0Y619D02*
X4Y619D01*
X0Y618D02*
X4Y618D01*
X0Y617D02*
X4Y617D01*
X0Y616D02*
X4Y616D01*
X0Y615D02*
X4Y615D01*
X0Y614D02*
X4Y614D01*
X0Y613D02*
X4Y613D01*
X0Y612D02*
X4Y612D01*
X0Y611D02*
X4Y611D01*
X0Y610D02*
X4Y610D01*
X0Y609D02*
X4Y609D01*
X0Y608D02*
X4Y608D01*
X0Y607D02*
X4Y607D01*
X0Y606D02*
X4Y606D01*
X0Y605D02*
X4Y605D01*
X0Y604D02*
X4Y604D01*
X0Y603D02*
X4Y603D01*
X0Y602D02*
X4Y602D01*
X0Y601D02*
X4Y601D01*
X0Y600D02*
X4Y600D01*
X0Y599D02*
X4Y599D01*
X0Y598D02*
X4Y598D01*
X0Y597D02*
X4Y597D01*
X0Y596D02*
X4Y596D01*
X0Y595D02*
X4Y595D01*
X0Y594D02*
X4Y594D01*
X0Y593D02*
X4Y593D01*
X0Y592D02*
X4Y592D01*
X0Y591D02*
X4Y591D01*
X864Y591D02*
X879Y591D01*
X903Y591D02*
X904Y591D01*
X925Y591D02*
X926Y591D01*
X942Y591D02*
X942Y591D01*
X954Y591D02*
X972Y591D01*
X984Y591D02*
X999Y591D01*
X0Y590D02*
X4Y590D01*
X864Y590D02*
X880Y590D01*
X901Y590D02*
X906Y590D01*
X924Y590D02*
X927Y590D01*
X941Y590D02*
X943Y590D01*
X954Y590D02*
X973Y590D01*
X984Y590D02*
X1001Y590D01*
X0Y589D02*
X4Y589D01*
X864Y589D02*
X882Y589D01*
X900Y589D02*
X907Y589D01*
X924Y589D02*
X927Y589D01*
X940Y589D02*
X944Y589D01*
X954Y589D02*
X974Y589D01*
X984Y589D02*
X1002Y589D01*
X0Y588D02*
X4Y588D01*
X864Y588D02*
X882Y588D01*
X899Y588D02*
X908Y588D01*
X924Y588D02*
X927Y588D01*
X940Y588D02*
X944Y588D01*
X954Y588D02*
X973Y588D01*
X984Y588D02*
X1003Y588D01*
X0Y587D02*
X4Y587D01*
X864Y587D02*
X883Y587D01*
X899Y587D02*
X909Y587D01*
X924Y587D02*
X927Y587D01*
X940Y587D02*
X944Y587D01*
X954Y587D02*
X971Y587D01*
X984Y587D02*
X1003Y587D01*
X0Y586D02*
X4Y586D01*
X864Y586D02*
X867Y586D01*
X880Y586D02*
X883Y586D01*
X898Y586D02*
X902Y586D01*
X905Y586D02*
X909Y586D01*
X924Y586D02*
X927Y586D01*
X940Y586D02*
X944Y586D01*
X954Y586D02*
X957Y586D01*
X984Y586D02*
X987Y586D01*
X1000Y586D02*
X1004Y586D01*
X0Y585D02*
X4Y585D01*
X864Y585D02*
X867Y585D01*
X880Y585D02*
X883Y585D01*
X898Y585D02*
X901Y585D01*
X906Y585D02*
X910Y585D01*
X924Y585D02*
X927Y585D01*
X940Y585D02*
X944Y585D01*
X954Y585D02*
X957Y585D01*
X984Y585D02*
X987Y585D01*
X1001Y585D02*
X1004Y585D01*
X0Y584D02*
X4Y584D01*
X864Y584D02*
X867Y584D01*
X880Y584D02*
X883Y584D01*
X897Y584D02*
X901Y584D01*
X906Y584D02*
X910Y584D01*
X924Y584D02*
X927Y584D01*
X940Y584D02*
X944Y584D01*
X954Y584D02*
X957Y584D01*
X984Y584D02*
X987Y584D01*
X1001Y584D02*
X1004Y584D01*
X0Y583D02*
X4Y583D01*
X864Y583D02*
X867Y583D01*
X880Y583D02*
X883Y583D01*
X897Y583D02*
X900Y583D01*
X907Y583D02*
X911Y583D01*
X924Y583D02*
X927Y583D01*
X940Y583D02*
X944Y583D01*
X954Y583D02*
X957Y583D01*
X984Y583D02*
X987Y583D01*
X1001Y583D02*
X1004Y583D01*
X0Y582D02*
X4Y582D01*
X864Y582D02*
X867Y582D01*
X880Y582D02*
X883Y582D01*
X896Y582D02*
X900Y582D01*
X907Y582D02*
X911Y582D01*
X924Y582D02*
X927Y582D01*
X940Y582D02*
X944Y582D01*
X954Y582D02*
X957Y582D01*
X984Y582D02*
X987Y582D01*
X1000Y582D02*
X1004Y582D01*
X0Y581D02*
X4Y581D01*
X864Y581D02*
X867Y581D01*
X880Y581D02*
X883Y581D01*
X896Y581D02*
X899Y581D01*
X908Y581D02*
X912Y581D01*
X924Y581D02*
X927Y581D01*
X940Y581D02*
X944Y581D01*
X954Y581D02*
X957Y581D01*
X984Y581D02*
X987Y581D01*
X1000Y581D02*
X1004Y581D01*
X0Y580D02*
X4Y580D01*
X864Y580D02*
X867Y580D01*
X880Y580D02*
X883Y580D01*
X895Y580D02*
X899Y580D01*
X908Y580D02*
X912Y580D01*
X924Y580D02*
X927Y580D01*
X933Y580D02*
X935Y580D01*
X940Y580D02*
X944Y580D01*
X954Y580D02*
X957Y580D01*
X984Y580D02*
X1003Y580D01*
X0Y579D02*
X4Y579D01*
X864Y579D02*
X867Y579D01*
X880Y579D02*
X883Y579D01*
X895Y579D02*
X898Y579D01*
X909Y579D02*
X913Y579D01*
X924Y579D02*
X927Y579D01*
X932Y579D02*
X935Y579D01*
X940Y579D02*
X944Y579D01*
X954Y579D02*
X957Y579D01*
X984Y579D02*
X1002Y579D01*
X0Y578D02*
X4Y578D01*
X864Y578D02*
X867Y578D01*
X880Y578D02*
X883Y578D01*
X894Y578D02*
X898Y578D01*
X909Y578D02*
X913Y578D01*
X924Y578D02*
X927Y578D01*
X932Y578D02*
X935Y578D01*
X940Y578D02*
X944Y578D01*
X954Y578D02*
X957Y578D01*
X984Y578D02*
X1002Y578D01*
X0Y577D02*
X4Y577D01*
X864Y577D02*
X867Y577D01*
X880Y577D02*
X883Y577D01*
X894Y577D02*
X897Y577D01*
X910Y577D02*
X913Y577D01*
X924Y577D02*
X927Y577D01*
X932Y577D02*
X935Y577D01*
X940Y577D02*
X944Y577D01*
X954Y577D02*
X964Y577D01*
X984Y577D02*
X1000Y577D01*
X0Y576D02*
X4Y576D01*
X864Y576D02*
X867Y576D01*
X879Y576D02*
X883Y576D01*
X894Y576D02*
X897Y576D01*
X910Y576D02*
X913Y576D01*
X924Y576D02*
X927Y576D01*
X932Y576D02*
X935Y576D01*
X940Y576D02*
X944Y576D01*
X954Y576D02*
X965Y576D01*
X984Y576D02*
X987Y576D01*
X991Y576D02*
X995Y576D01*
X0Y575D02*
X4Y575D01*
X864Y575D02*
X883Y575D01*
X894Y575D02*
X897Y575D01*
X910Y575D02*
X913Y575D01*
X924Y575D02*
X927Y575D01*
X932Y575D02*
X935Y575D01*
X940Y575D02*
X944Y575D01*
X954Y575D02*
X965Y575D01*
X984Y575D02*
X987Y575D01*
X992Y575D02*
X996Y575D01*
X1384Y575D02*
X1384Y575D01*
X1398Y575D02*
X1399Y575D01*
X0Y574D02*
X4Y574D01*
X864Y574D02*
X882Y574D01*
X894Y574D02*
X897Y574D01*
X910Y574D02*
X913Y574D01*
X924Y574D02*
X927Y574D01*
X932Y574D02*
X935Y574D01*
X940Y574D02*
X944Y574D01*
X954Y574D02*
X965Y574D01*
X984Y574D02*
X987Y574D01*
X993Y574D02*
X996Y574D01*
X1382Y574D02*
X1385Y574D01*
X1397Y574D02*
X1400Y574D01*
X0Y573D02*
X4Y573D01*
X864Y573D02*
X881Y573D01*
X894Y573D02*
X897Y573D01*
X910Y573D02*
X913Y573D01*
X924Y573D02*
X927Y573D01*
X932Y573D02*
X935Y573D01*
X940Y573D02*
X944Y573D01*
X954Y573D02*
X964Y573D01*
X984Y573D02*
X987Y573D01*
X993Y573D02*
X997Y573D01*
X1382Y573D02*
X1386Y573D01*
X1397Y573D02*
X1401Y573D01*
X0Y572D02*
X4Y572D01*
X864Y572D02*
X880Y572D01*
X894Y572D02*
X898Y572D01*
X909Y572D02*
X913Y572D01*
X924Y572D02*
X927Y572D01*
X932Y572D02*
X935Y572D01*
X940Y572D02*
X944Y572D01*
X954Y572D02*
X957Y572D01*
X984Y572D02*
X987Y572D01*
X994Y572D02*
X998Y572D01*
X1381Y572D02*
X1385Y572D01*
X1397Y572D02*
X1401Y572D01*
X0Y571D02*
X4Y571D01*
X864Y571D02*
X867Y571D01*
X895Y571D02*
X898Y571D01*
X909Y571D02*
X913Y571D01*
X924Y571D02*
X927Y571D01*
X932Y571D02*
X935Y571D01*
X940Y571D02*
X944Y571D01*
X954Y571D02*
X957Y571D01*
X984Y571D02*
X987Y571D01*
X994Y571D02*
X998Y571D01*
X1381Y571D02*
X1385Y571D01*
X1397Y571D02*
X1402Y571D01*
X0Y570D02*
X4Y570D01*
X864Y570D02*
X867Y570D01*
X895Y570D02*
X899Y570D01*
X908Y570D02*
X912Y570D01*
X924Y570D02*
X927Y570D01*
X932Y570D02*
X935Y570D01*
X940Y570D02*
X944Y570D01*
X954Y570D02*
X957Y570D01*
X984Y570D02*
X987Y570D01*
X995Y570D02*
X999Y570D01*
X1380Y570D02*
X1384Y570D01*
X1398Y570D02*
X1402Y570D01*
X0Y569D02*
X4Y569D01*
X864Y569D02*
X867Y569D01*
X896Y569D02*
X899Y569D01*
X908Y569D02*
X912Y569D01*
X924Y569D02*
X927Y569D01*
X932Y569D02*
X935Y569D01*
X940Y569D02*
X944Y569D01*
X954Y569D02*
X957Y569D01*
X984Y569D02*
X987Y569D01*
X995Y569D02*
X999Y569D01*
X1379Y569D02*
X1384Y569D01*
X1399Y569D02*
X1403Y569D01*
X0Y568D02*
X4Y568D01*
X864Y568D02*
X867Y568D01*
X896Y568D02*
X900Y568D01*
X907Y568D02*
X911Y568D01*
X924Y568D02*
X927Y568D01*
X932Y568D02*
X935Y568D01*
X940Y568D02*
X944Y568D01*
X954Y568D02*
X957Y568D01*
X984Y568D02*
X987Y568D01*
X996Y568D02*
X1000Y568D01*
X1379Y568D02*
X1383Y568D01*
X1399Y568D02*
X1403Y568D01*
X0Y567D02*
X4Y567D01*
X864Y567D02*
X867Y567D01*
X897Y567D02*
X900Y567D01*
X907Y567D02*
X911Y567D01*
X924Y567D02*
X927Y567D01*
X932Y567D02*
X935Y567D01*
X940Y567D02*
X944Y567D01*
X954Y567D02*
X957Y567D01*
X984Y567D02*
X987Y567D01*
X997Y567D02*
X1001Y567D01*
X1378Y567D02*
X1383Y567D01*
X1400Y567D02*
X1404Y567D01*
X0Y566D02*
X4Y566D01*
X864Y566D02*
X867Y566D01*
X897Y566D02*
X901Y566D01*
X906Y566D02*
X910Y566D01*
X924Y566D02*
X927Y566D01*
X932Y566D02*
X935Y566D01*
X940Y566D02*
X944Y566D01*
X954Y566D02*
X957Y566D01*
X984Y566D02*
X987Y566D01*
X997Y566D02*
X1001Y566D01*
X1378Y566D02*
X1382Y566D01*
X1400Y566D02*
X1405Y566D01*
X0Y565D02*
X4Y565D01*
X864Y565D02*
X867Y565D01*
X898Y565D02*
X901Y565D01*
X906Y565D02*
X910Y565D01*
X924Y565D02*
X927Y565D01*
X932Y565D02*
X935Y565D01*
X940Y565D02*
X944Y565D01*
X954Y565D02*
X957Y565D01*
X984Y565D02*
X987Y565D01*
X998Y565D02*
X1002Y565D01*
X1377Y565D02*
X1381Y565D01*
X1401Y565D02*
X1405Y565D01*
X0Y564D02*
X4Y564D01*
X864Y564D02*
X867Y564D01*
X898Y564D02*
X902Y564D01*
X905Y564D02*
X909Y564D01*
X924Y564D02*
X928Y564D01*
X932Y564D02*
X936Y564D01*
X940Y564D02*
X944Y564D01*
X954Y564D02*
X957Y564D01*
X984Y564D02*
X987Y564D01*
X998Y564D02*
X1002Y564D01*
X1376Y564D02*
X1381Y564D01*
X1402Y564D02*
X1406Y564D01*
X0Y563D02*
X4Y563D01*
X864Y563D02*
X867Y563D01*
X899Y563D02*
X909Y563D01*
X924Y563D02*
X928Y563D01*
X931Y563D02*
X937Y563D01*
X939Y563D02*
X943Y563D01*
X954Y563D02*
X958Y563D01*
X984Y563D02*
X987Y563D01*
X999Y563D02*
X1003Y563D01*
X1376Y563D02*
X1380Y563D01*
X1402Y563D02*
X1406Y563D01*
X0Y562D02*
X4Y562D01*
X864Y562D02*
X867Y562D01*
X899Y562D02*
X908Y562D01*
X925Y562D02*
X943Y562D01*
X954Y562D02*
X973Y562D01*
X984Y562D02*
X987Y562D01*
X1000Y562D02*
X1003Y562D01*
X1375Y562D02*
X1380Y562D01*
X1403Y562D02*
X1407Y562D01*
X0Y561D02*
X4Y561D01*
X864Y561D02*
X867Y561D01*
X900Y561D02*
X907Y561D01*
X925Y561D02*
X942Y561D01*
X954Y561D02*
X974Y561D01*
X984Y561D02*
X987Y561D01*
X1000Y561D02*
X1004Y561D01*
X1375Y561D02*
X1379Y561D01*
X1403Y561D02*
X1408Y561D01*
X0Y560D02*
X4Y560D01*
X864Y560D02*
X867Y560D01*
X901Y560D02*
X907Y560D01*
X926Y560D02*
X941Y560D01*
X954Y560D02*
X973Y560D01*
X984Y560D02*
X987Y560D01*
X1001Y560D02*
X1004Y560D01*
X1374Y560D02*
X1378Y560D01*
X1404Y560D02*
X1408Y560D01*
X0Y559D02*
X4Y559D01*
X865Y559D02*
X866Y559D01*
X902Y559D02*
X905Y559D01*
X927Y559D02*
X932Y559D01*
X935Y559D02*
X940Y559D01*
X954Y559D02*
X973Y559D01*
X985Y559D02*
X986Y559D01*
X1002Y559D02*
X1003Y559D01*
X1374Y559D02*
X1378Y559D01*
X1404Y559D02*
X1409Y559D01*
X0Y558D02*
X4Y558D01*
X1373Y558D02*
X1377Y558D01*
X1405Y558D02*
X1409Y558D01*
X0Y557D02*
X4Y557D01*
X1372Y557D02*
X1377Y557D01*
X1406Y557D02*
X1410Y557D01*
X0Y556D02*
X4Y556D01*
X1372Y556D02*
X1376Y556D01*
X1406Y556D02*
X1411Y556D01*
X0Y555D02*
X4Y555D01*
X1371Y555D02*
X1376Y555D01*
X1407Y555D02*
X1411Y555D01*
X0Y554D02*
X4Y554D01*
X1371Y554D02*
X1375Y554D01*
X1407Y554D02*
X1412Y554D01*
X0Y553D02*
X4Y553D01*
X1370Y553D02*
X1374Y553D01*
X1408Y553D02*
X1412Y553D01*
X0Y552D02*
X4Y552D01*
X1369Y552D02*
X1374Y552D01*
X1409Y552D02*
X1413Y552D01*
X0Y551D02*
X4Y551D01*
X1369Y551D02*
X1373Y551D01*
X1409Y551D02*
X1413Y551D01*
X0Y550D02*
X4Y550D01*
X1368Y550D02*
X1373Y550D01*
X1410Y550D02*
X1414Y550D01*
X0Y549D02*
X4Y549D01*
X1368Y549D02*
X1372Y549D01*
X1410Y549D02*
X1415Y549D01*
X0Y548D02*
X4Y548D01*
X1367Y548D02*
X1371Y548D01*
X1411Y548D02*
X1415Y548D01*
X0Y547D02*
X4Y547D01*
X1367Y547D02*
X1371Y547D01*
X1411Y547D02*
X1416Y547D01*
X0Y546D02*
X4Y546D01*
X1366Y546D02*
X1370Y546D01*
X1412Y546D02*
X1416Y546D01*
X0Y545D02*
X4Y545D01*
X1365Y545D02*
X1370Y545D01*
X1413Y545D02*
X1417Y545D01*
X0Y544D02*
X4Y544D01*
X1365Y544D02*
X1369Y544D01*
X1413Y544D02*
X1418Y544D01*
X0Y543D02*
X4Y543D01*
X1364Y543D02*
X1369Y543D01*
X1414Y543D02*
X1418Y543D01*
X0Y542D02*
X4Y542D01*
X1364Y542D02*
X1368Y542D01*
X1414Y542D02*
X1418Y542D01*
X0Y541D02*
X4Y541D01*
X1365Y541D02*
X1367Y541D01*
X1415Y541D02*
X1418Y541D01*
X0Y540D02*
X4Y540D01*
X0Y539D02*
X4Y539D01*
X0Y538D02*
X4Y538D01*
X0Y537D02*
X4Y537D01*
X0Y536D02*
X4Y536D01*
X0Y535D02*
X4Y535D01*
X0Y534D02*
X4Y534D01*
X0Y533D02*
X4Y533D01*
X0Y532D02*
X4Y532D01*
X0Y531D02*
X4Y531D01*
X0Y530D02*
X4Y530D01*
X0Y529D02*
X4Y529D01*
X0Y528D02*
X4Y528D01*
X0Y527D02*
X4Y527D01*
X0Y526D02*
X4Y526D01*
X0Y525D02*
X4Y525D01*
X0Y524D02*
X4Y524D01*
X0Y523D02*
X4Y523D01*
X0Y522D02*
X4Y522D01*
X0Y521D02*
X4Y521D01*
X0Y520D02*
X4Y520D01*
X0Y519D02*
X4Y519D01*
X0Y518D02*
X4Y518D01*
X0Y517D02*
X4Y517D01*
X0Y516D02*
X4Y516D01*
X1470Y516D02*
X1473Y516D01*
X0Y515D02*
X4Y515D01*
X1469Y515D02*
X1474Y515D01*
X0Y514D02*
X4Y514D01*
X1277Y514D02*
X1278Y514D01*
X1318Y514D02*
X1320Y514D01*
X1376Y514D02*
X1384Y514D01*
X1469Y514D02*
X1474Y514D01*
X0Y513D02*
X4Y513D01*
X1276Y513D02*
X1279Y513D01*
X1318Y513D02*
X1321Y513D01*
X1374Y513D02*
X1384Y513D01*
X1469Y513D02*
X1474Y513D01*
X0Y512D02*
X4Y512D01*
X1276Y512D02*
X1280Y512D01*
X1317Y512D02*
X1321Y512D01*
X1372Y512D02*
X1385Y512D01*
X1469Y512D02*
X1474Y512D01*
X1500Y512D02*
X1502Y512D01*
X0Y511D02*
X4Y511D01*
X1275Y511D02*
X1280Y511D01*
X1317Y511D02*
X1321Y511D01*
X1371Y511D02*
X1384Y511D01*
X1469Y511D02*
X1474Y511D01*
X1499Y511D02*
X1502Y511D01*
X0Y510D02*
X4Y510D01*
X1275Y510D02*
X1280Y510D01*
X1317Y510D02*
X1321Y510D01*
X1371Y510D02*
X1383Y510D01*
X1470Y510D02*
X1473Y510D01*
X1499Y510D02*
X1502Y510D01*
X0Y509D02*
X4Y509D01*
X1275Y509D02*
X1280Y509D01*
X1317Y509D02*
X1321Y509D01*
X1370Y509D02*
X1375Y509D01*
X1499Y509D02*
X1502Y509D01*
X0Y508D02*
X4Y508D01*
X1275Y508D02*
X1281Y508D01*
X1317Y508D02*
X1321Y508D01*
X1370Y508D02*
X1374Y508D01*
X1499Y508D02*
X1502Y508D01*
X0Y507D02*
X4Y507D01*
X1274Y507D02*
X1281Y507D01*
X1317Y507D02*
X1321Y507D01*
X1370Y507D02*
X1374Y507D01*
X1499Y507D02*
X1502Y507D01*
X0Y506D02*
X4Y506D01*
X1274Y506D02*
X1281Y506D01*
X1317Y506D02*
X1321Y506D01*
X1370Y506D02*
X1374Y506D01*
X1499Y506D02*
X1502Y506D01*
X0Y505D02*
X4Y505D01*
X1274Y505D02*
X1282Y505D01*
X1317Y505D02*
X1321Y505D01*
X1370Y505D02*
X1374Y505D01*
X1499Y505D02*
X1503Y505D01*
X0Y504D02*
X4Y504D01*
X1273Y504D02*
X1282Y504D01*
X1305Y504D02*
X1313Y504D01*
X1317Y504D02*
X1321Y504D01*
X1337Y504D02*
X1349Y504D01*
X1366Y504D02*
X1380Y504D01*
X1398Y504D02*
X1400Y504D01*
X1406Y504D02*
X1415Y504D01*
X1430Y504D02*
X1432Y504D01*
X1448Y504D02*
X1450Y504D01*
X1465Y504D02*
X1474Y504D01*
X1495Y504D02*
X1513Y504D01*
X0Y503D02*
X4Y503D01*
X1273Y503D02*
X1282Y503D01*
X1303Y503D02*
X1315Y503D01*
X1317Y503D02*
X1321Y503D01*
X1336Y503D02*
X1351Y503D01*
X1366Y503D02*
X1380Y503D01*
X1397Y503D02*
X1400Y503D01*
X1405Y503D02*
X1416Y503D01*
X1430Y503D02*
X1433Y503D01*
X1447Y503D02*
X1451Y503D01*
X1464Y503D02*
X1474Y503D01*
X1495Y503D02*
X1514Y503D01*
X0Y502D02*
X4Y502D01*
X1273Y502D02*
X1276Y502D01*
X1279Y502D02*
X1282Y502D01*
X1302Y502D02*
X1321Y502D01*
X1337Y502D02*
X1351Y502D01*
X1366Y502D02*
X1380Y502D01*
X1397Y502D02*
X1401Y502D01*
X1404Y502D02*
X1417Y502D01*
X1429Y502D02*
X1433Y502D01*
X1447Y502D02*
X1451Y502D01*
X1464Y502D02*
X1474Y502D01*
X1495Y502D02*
X1513Y502D01*
X0Y501D02*
X4Y501D01*
X1272Y501D02*
X1276Y501D01*
X1279Y501D02*
X1283Y501D01*
X1301Y501D02*
X1321Y501D01*
X1337Y501D02*
X1352Y501D01*
X1366Y501D02*
X1380Y501D01*
X1397Y501D02*
X1401Y501D01*
X1403Y501D02*
X1418Y501D01*
X1430Y501D02*
X1433Y501D01*
X1447Y501D02*
X1451Y501D01*
X1465Y501D02*
X1474Y501D01*
X1495Y501D02*
X1513Y501D01*
X0Y500D02*
X4Y500D01*
X1272Y500D02*
X1276Y500D01*
X1279Y500D02*
X1283Y500D01*
X1300Y500D02*
X1306Y500D01*
X1312Y500D02*
X1321Y500D01*
X1348Y500D02*
X1352Y500D01*
X1370Y500D02*
X1374Y500D01*
X1397Y500D02*
X1408Y500D01*
X1414Y500D02*
X1418Y500D01*
X1430Y500D02*
X1433Y500D01*
X1447Y500D02*
X1451Y500D01*
X1471Y500D02*
X1474Y500D01*
X1499Y500D02*
X1503Y500D01*
X0Y499D02*
X4Y499D01*
X1272Y499D02*
X1276Y499D01*
X1280Y499D02*
X1283Y499D01*
X1300Y499D02*
X1304Y499D01*
X1313Y499D02*
X1321Y499D01*
X1349Y499D02*
X1353Y499D01*
X1370Y499D02*
X1374Y499D01*
X1397Y499D02*
X1406Y499D01*
X1415Y499D02*
X1418Y499D01*
X1430Y499D02*
X1433Y499D01*
X1447Y499D02*
X1451Y499D01*
X1471Y499D02*
X1474Y499D01*
X1499Y499D02*
X1502Y499D01*
X0Y498D02*
X4Y498D01*
X1272Y498D02*
X1275Y498D01*
X1280Y498D02*
X1284Y498D01*
X1300Y498D02*
X1303Y498D01*
X1315Y498D02*
X1321Y498D01*
X1349Y498D02*
X1353Y498D01*
X1370Y498D02*
X1374Y498D01*
X1397Y498D02*
X1405Y498D01*
X1415Y498D02*
X1418Y498D01*
X1430Y498D02*
X1433Y498D01*
X1447Y498D02*
X1451Y498D01*
X1471Y498D02*
X1474Y498D01*
X1499Y498D02*
X1502Y498D01*
X0Y497D02*
X4Y497D01*
X1271Y497D02*
X1275Y497D01*
X1280Y497D02*
X1284Y497D01*
X1299Y497D02*
X1303Y497D01*
X1316Y497D02*
X1321Y497D01*
X1349Y497D02*
X1353Y497D01*
X1370Y497D02*
X1374Y497D01*
X1397Y497D02*
X1404Y497D01*
X1415Y497D02*
X1418Y497D01*
X1430Y497D02*
X1433Y497D01*
X1447Y497D02*
X1451Y497D01*
X1471Y497D02*
X1474Y497D01*
X1499Y497D02*
X1502Y497D01*
X0Y496D02*
X4Y496D01*
X1271Y496D02*
X1275Y496D01*
X1280Y496D02*
X1284Y496D01*
X1299Y496D02*
X1303Y496D01*
X1317Y496D02*
X1321Y496D01*
X1349Y496D02*
X1353Y496D01*
X1370Y496D02*
X1374Y496D01*
X1397Y496D02*
X1403Y496D01*
X1415Y496D02*
X1418Y496D01*
X1430Y496D02*
X1433Y496D01*
X1447Y496D02*
X1451Y496D01*
X1471Y496D02*
X1474Y496D01*
X1499Y496D02*
X1502Y496D01*
X0Y495D02*
X4Y495D01*
X1271Y495D02*
X1274Y495D01*
X1281Y495D02*
X1284Y495D01*
X1299Y495D02*
X1303Y495D01*
X1317Y495D02*
X1321Y495D01*
X1337Y495D02*
X1353Y495D01*
X1370Y495D02*
X1374Y495D01*
X1397Y495D02*
X1402Y495D01*
X1416Y495D02*
X1417Y495D01*
X1430Y495D02*
X1433Y495D01*
X1447Y495D02*
X1451Y495D01*
X1471Y495D02*
X1474Y495D01*
X1499Y495D02*
X1502Y495D01*
X0Y494D02*
X4Y494D01*
X1270Y494D02*
X1274Y494D01*
X1281Y494D02*
X1285Y494D01*
X1299Y494D02*
X1303Y494D01*
X1317Y494D02*
X1321Y494D01*
X1335Y494D02*
X1353Y494D01*
X1370Y494D02*
X1374Y494D01*
X1397Y494D02*
X1401Y494D01*
X1430Y494D02*
X1433Y494D01*
X1447Y494D02*
X1451Y494D01*
X1471Y494D02*
X1474Y494D01*
X1499Y494D02*
X1502Y494D01*
X0Y493D02*
X4Y493D01*
X1270Y493D02*
X1274Y493D01*
X1281Y493D02*
X1285Y493D01*
X1299Y493D02*
X1303Y493D01*
X1317Y493D02*
X1321Y493D01*
X1334Y493D02*
X1353Y493D01*
X1370Y493D02*
X1374Y493D01*
X1397Y493D02*
X1401Y493D01*
X1430Y493D02*
X1433Y493D01*
X1447Y493D02*
X1451Y493D01*
X1471Y493D02*
X1474Y493D01*
X1499Y493D02*
X1502Y493D01*
X0Y492D02*
X4Y492D01*
X1270Y492D02*
X1274Y492D01*
X1282Y492D02*
X1285Y492D01*
X1299Y492D02*
X1303Y492D01*
X1317Y492D02*
X1321Y492D01*
X1333Y492D02*
X1353Y492D01*
X1370Y492D02*
X1374Y492D01*
X1397Y492D02*
X1401Y492D01*
X1430Y492D02*
X1433Y492D01*
X1447Y492D02*
X1451Y492D01*
X1471Y492D02*
X1474Y492D01*
X1499Y492D02*
X1502Y492D01*
X0Y491D02*
X4Y491D01*
X1270Y491D02*
X1286Y491D01*
X1299Y491D02*
X1303Y491D01*
X1317Y491D02*
X1321Y491D01*
X1332Y491D02*
X1353Y491D01*
X1370Y491D02*
X1374Y491D01*
X1397Y491D02*
X1401Y491D01*
X1430Y491D02*
X1433Y491D01*
X1447Y491D02*
X1451Y491D01*
X1471Y491D02*
X1474Y491D01*
X1499Y491D02*
X1502Y491D01*
X0Y490D02*
X4Y490D01*
X1269Y490D02*
X1286Y490D01*
X1299Y490D02*
X1303Y490D01*
X1317Y490D02*
X1321Y490D01*
X1332Y490D02*
X1336Y490D01*
X1349Y490D02*
X1353Y490D01*
X1370Y490D02*
X1374Y490D01*
X1397Y490D02*
X1401Y490D01*
X1430Y490D02*
X1433Y490D01*
X1447Y490D02*
X1451Y490D01*
X1471Y490D02*
X1474Y490D01*
X1499Y490D02*
X1502Y490D01*
X0Y489D02*
X4Y489D01*
X1269Y489D02*
X1286Y489D01*
X1299Y489D02*
X1303Y489D01*
X1317Y489D02*
X1321Y489D01*
X1332Y489D02*
X1336Y489D01*
X1349Y489D02*
X1353Y489D01*
X1370Y489D02*
X1374Y489D01*
X1397Y489D02*
X1401Y489D01*
X1430Y489D02*
X1433Y489D01*
X1447Y489D02*
X1451Y489D01*
X1471Y489D02*
X1474Y489D01*
X1499Y489D02*
X1502Y489D01*
X0Y488D02*
X4Y488D01*
X1269Y488D02*
X1287Y488D01*
X1299Y488D02*
X1303Y488D01*
X1317Y488D02*
X1321Y488D01*
X1332Y488D02*
X1335Y488D01*
X1350Y488D02*
X1353Y488D01*
X1370Y488D02*
X1374Y488D01*
X1397Y488D02*
X1401Y488D01*
X1430Y488D02*
X1433Y488D01*
X1447Y488D02*
X1451Y488D01*
X1471Y488D02*
X1474Y488D01*
X1499Y488D02*
X1502Y488D01*
X0Y487D02*
X4Y487D01*
X1268Y487D02*
X1287Y487D01*
X1299Y487D02*
X1303Y487D01*
X1316Y487D02*
X1321Y487D01*
X1332Y487D02*
X1335Y487D01*
X1350Y487D02*
X1353Y487D01*
X1370Y487D02*
X1374Y487D01*
X1397Y487D02*
X1401Y487D01*
X1430Y487D02*
X1434Y487D01*
X1445Y487D02*
X1451Y487D01*
X1471Y487D02*
X1474Y487D01*
X1499Y487D02*
X1502Y487D01*
X1513Y487D02*
X1515Y487D01*
X0Y486D02*
X4Y486D01*
X700Y486D02*
X702Y486D01*
X1268Y486D02*
X1272Y486D01*
X1283Y486D02*
X1287Y486D01*
X1300Y486D02*
X1304Y486D01*
X1314Y486D02*
X1321Y486D01*
X1332Y486D02*
X1336Y486D01*
X1348Y486D02*
X1353Y486D01*
X1370Y486D02*
X1374Y486D01*
X1397Y486D02*
X1401Y486D01*
X1430Y486D02*
X1434Y486D01*
X1443Y486D02*
X1451Y486D01*
X1471Y486D02*
X1474Y486D01*
X1499Y486D02*
X1503Y486D01*
X1513Y486D02*
X1516Y486D01*
X0Y485D02*
X4Y485D01*
X699Y485D02*
X703Y485D01*
X1268Y485D02*
X1272Y485D01*
X1284Y485D02*
X1287Y485D01*
X1300Y485D02*
X1305Y485D01*
X1313Y485D02*
X1321Y485D01*
X1332Y485D02*
X1336Y485D01*
X1347Y485D02*
X1353Y485D01*
X1370Y485D02*
X1374Y485D01*
X1397Y485D02*
X1401Y485D01*
X1430Y485D02*
X1434Y485D01*
X1442Y485D02*
X1451Y485D01*
X1471Y485D02*
X1474Y485D01*
X1499Y485D02*
X1503Y485D01*
X1512Y485D02*
X1516Y485D01*
X0Y484D02*
X4Y484D01*
X699Y484D02*
X704Y484D01*
X1267Y484D02*
X1271Y484D01*
X1284Y484D02*
X1288Y484D01*
X1300Y484D02*
X1306Y484D01*
X1312Y484D02*
X1321Y484D01*
X1332Y484D02*
X1337Y484D01*
X1345Y484D02*
X1353Y484D01*
X1370Y484D02*
X1374Y484D01*
X1397Y484D02*
X1401Y484D01*
X1430Y484D02*
X1435Y484D01*
X1440Y484D02*
X1451Y484D01*
X1471Y484D02*
X1475Y484D01*
X1499Y484D02*
X1504Y484D01*
X1511Y484D02*
X1516Y484D01*
X0Y483D02*
X4Y483D01*
X699Y483D02*
X705Y483D01*
X1267Y483D02*
X1271Y483D01*
X1284Y483D02*
X1288Y483D01*
X1301Y483D02*
X1321Y483D01*
X1333Y483D02*
X1353Y483D01*
X1370Y483D02*
X1374Y483D01*
X1397Y483D02*
X1401Y483D01*
X1431Y483D02*
X1451Y483D01*
X1465Y483D02*
X1481Y483D01*
X1500Y483D02*
X1515Y483D01*
X0Y482D02*
X4Y482D01*
X700Y482D02*
X705Y482D01*
X1267Y482D02*
X1271Y482D01*
X1285Y482D02*
X1288Y482D01*
X1302Y482D02*
X1321Y482D01*
X1333Y482D02*
X1353Y482D01*
X1370Y482D02*
X1374Y482D01*
X1397Y482D02*
X1401Y482D01*
X1432Y482D02*
X1444Y482D01*
X1447Y482D02*
X1451Y482D01*
X1464Y482D02*
X1481Y482D01*
X1500Y482D02*
X1514Y482D01*
X0Y481D02*
X4Y481D01*
X701Y481D02*
X705Y481D01*
X1267Y481D02*
X1270Y481D01*
X1285Y481D02*
X1288Y481D01*
X1303Y481D02*
X1315Y481D01*
X1317Y481D02*
X1321Y481D01*
X1334Y481D02*
X1348Y481D01*
X1350Y481D02*
X1353Y481D01*
X1370Y481D02*
X1373Y481D01*
X1397Y481D02*
X1400Y481D01*
X1432Y481D02*
X1443Y481D01*
X1447Y481D02*
X1451Y481D01*
X1464Y481D02*
X1481Y481D01*
X1501Y481D02*
X1513Y481D01*
X0Y480D02*
X4Y480D01*
X702Y480D02*
X705Y480D01*
X1268Y480D02*
X1270Y480D01*
X1286Y480D02*
X1288Y480D01*
X1305Y480D02*
X1313Y480D01*
X1318Y480D02*
X1320Y480D01*
X1336Y480D02*
X1346Y480D01*
X1351Y480D02*
X1353Y480D01*
X1371Y480D02*
X1373Y480D01*
X1398Y480D02*
X1400Y480D01*
X1434Y480D02*
X1441Y480D01*
X1448Y480D02*
X1450Y480D01*
X1465Y480D02*
X1480Y480D01*
X1503Y480D02*
X1512Y480D01*
X0Y479D02*
X4Y479D01*
X703Y479D02*
X705Y479D01*
X0Y478D02*
X4Y478D01*
X704Y478D02*
X705Y478D01*
X0Y477D02*
X4Y477D01*
X705Y477D02*
X705Y477D01*
X0Y476D02*
X4Y476D01*
X0Y475D02*
X4Y475D01*
X0Y474D02*
X4Y474D01*
X0Y473D02*
X4Y473D01*
X0Y472D02*
X4Y472D01*
X0Y471D02*
X4Y471D01*
X0Y470D02*
X4Y470D01*
X0Y469D02*
X4Y469D01*
X0Y468D02*
X4Y468D01*
X0Y467D02*
X4Y467D01*
X0Y466D02*
X4Y466D01*
X0Y465D02*
X4Y465D01*
X0Y464D02*
X4Y464D01*
X0Y463D02*
X4Y463D01*
X0Y462D02*
X4Y462D01*
X0Y461D02*
X4Y461D01*
X0Y460D02*
X4Y460D01*
X0Y459D02*
X4Y459D01*
X0Y458D02*
X4Y458D01*
X0Y457D02*
X4Y457D01*
X0Y456D02*
X4Y456D01*
X726Y456D02*
X732Y456D01*
X1339Y456D02*
X1343Y456D01*
X0Y455D02*
X4Y455D01*
X727Y455D02*
X733Y455D01*
X1339Y455D02*
X1344Y455D01*
X0Y454D02*
X4Y454D01*
X728Y454D02*
X734Y454D01*
X1300Y454D02*
X1302Y454D01*
X1338Y454D02*
X1344Y454D01*
X1364Y454D02*
X1381Y454D01*
X1432Y454D02*
X1441Y454D01*
X0Y453D02*
X4Y453D01*
X729Y453D02*
X735Y453D01*
X1299Y453D02*
X1303Y453D01*
X1338Y453D02*
X1344Y453D01*
X1364Y453D02*
X1383Y453D01*
X1432Y453D02*
X1442Y453D01*
X0Y452D02*
X4Y452D01*
X730Y452D02*
X735Y452D01*
X1299Y452D02*
X1303Y452D01*
X1338Y452D02*
X1344Y452D01*
X1364Y452D02*
X1384Y452D01*
X1432Y452D02*
X1442Y452D01*
X0Y451D02*
X4Y451D01*
X731Y451D02*
X734Y451D01*
X1299Y451D02*
X1303Y451D01*
X1339Y451D02*
X1344Y451D01*
X1364Y451D02*
X1385Y451D01*
X1432Y451D02*
X1442Y451D01*
X0Y450D02*
X4Y450D01*
X732Y450D02*
X733Y450D01*
X1299Y450D02*
X1303Y450D01*
X1341Y450D02*
X1342Y450D01*
X1364Y450D02*
X1385Y450D01*
X1434Y450D02*
X1442Y450D01*
X0Y449D02*
X4Y449D01*
X1299Y449D02*
X1303Y449D01*
X1364Y449D02*
X1368Y449D01*
X1382Y449D02*
X1385Y449D01*
X1438Y449D02*
X1442Y449D01*
X0Y448D02*
X4Y448D01*
X1299Y448D02*
X1303Y448D01*
X1364Y448D02*
X1368Y448D01*
X1382Y448D02*
X1386Y448D01*
X1438Y448D02*
X1442Y448D01*
X0Y447D02*
X4Y447D01*
X1299Y447D02*
X1303Y447D01*
X1364Y447D02*
X1368Y447D01*
X1382Y447D02*
X1386Y447D01*
X1438Y447D02*
X1442Y447D01*
X0Y446D02*
X4Y446D01*
X1299Y446D02*
X1303Y446D01*
X1364Y446D02*
X1368Y446D01*
X1382Y446D02*
X1386Y446D01*
X1438Y446D02*
X1442Y446D01*
X0Y445D02*
X4Y445D01*
X1299Y445D02*
X1303Y445D01*
X1364Y445D02*
X1368Y445D01*
X1382Y445D02*
X1386Y445D01*
X1438Y445D02*
X1442Y445D01*
X0Y444D02*
X4Y444D01*
X1299Y444D02*
X1303Y444D01*
X1334Y444D02*
X1344Y444D01*
X1364Y444D02*
X1368Y444D01*
X1382Y444D02*
X1386Y444D01*
X1402Y444D02*
X1413Y444D01*
X1438Y444D02*
X1442Y444D01*
X1462Y444D02*
X1465Y444D01*
X1480Y444D02*
X1483Y444D01*
X0Y443D02*
X4Y443D01*
X1299Y443D02*
X1303Y443D01*
X1334Y443D02*
X1344Y443D01*
X1364Y443D02*
X1368Y443D01*
X1382Y443D02*
X1386Y443D01*
X1400Y443D02*
X1415Y443D01*
X1438Y443D02*
X1442Y443D01*
X1462Y443D02*
X1465Y443D01*
X1480Y443D02*
X1483Y443D01*
X0Y442D02*
X4Y442D01*
X1299Y442D02*
X1303Y442D01*
X1334Y442D02*
X1344Y442D01*
X1364Y442D02*
X1368Y442D01*
X1382Y442D02*
X1386Y442D01*
X1399Y442D02*
X1416Y442D01*
X1438Y442D02*
X1442Y442D01*
X1462Y442D02*
X1465Y442D01*
X1480Y442D02*
X1483Y442D01*
X0Y441D02*
X4Y441D01*
X1299Y441D02*
X1303Y441D01*
X1335Y441D02*
X1344Y441D01*
X1364Y441D02*
X1368Y441D01*
X1382Y441D02*
X1386Y441D01*
X1398Y441D02*
X1417Y441D01*
X1438Y441D02*
X1442Y441D01*
X1462Y441D02*
X1465Y441D01*
X1480Y441D02*
X1483Y441D01*
X0Y440D02*
X4Y440D01*
X1299Y440D02*
X1303Y440D01*
X1341Y440D02*
X1344Y440D01*
X1364Y440D02*
X1368Y440D01*
X1382Y440D02*
X1386Y440D01*
X1398Y440D02*
X1403Y440D01*
X1412Y440D02*
X1417Y440D01*
X1438Y440D02*
X1442Y440D01*
X1462Y440D02*
X1465Y440D01*
X1480Y440D02*
X1483Y440D01*
X0Y439D02*
X4Y439D01*
X1299Y439D02*
X1303Y439D01*
X1341Y439D02*
X1344Y439D01*
X1364Y439D02*
X1368Y439D01*
X1382Y439D02*
X1386Y439D01*
X1397Y439D02*
X1402Y439D01*
X1413Y439D02*
X1418Y439D01*
X1438Y439D02*
X1442Y439D01*
X1462Y439D02*
X1465Y439D01*
X1479Y439D02*
X1483Y439D01*
X0Y438D02*
X4Y438D01*
X1299Y438D02*
X1303Y438D01*
X1341Y438D02*
X1344Y438D01*
X1364Y438D02*
X1368Y438D01*
X1381Y438D02*
X1385Y438D01*
X1397Y438D02*
X1401Y438D01*
X1414Y438D02*
X1418Y438D01*
X1438Y438D02*
X1442Y438D01*
X1462Y438D02*
X1466Y438D01*
X1479Y438D02*
X1483Y438D01*
X0Y437D02*
X4Y437D01*
X1299Y437D02*
X1303Y437D01*
X1341Y437D02*
X1344Y437D01*
X1364Y437D02*
X1385Y437D01*
X1397Y437D02*
X1400Y437D01*
X1415Y437D02*
X1418Y437D01*
X1438Y437D02*
X1442Y437D01*
X1462Y437D02*
X1466Y437D01*
X1479Y437D02*
X1482Y437D01*
X0Y436D02*
X4Y436D01*
X1299Y436D02*
X1303Y436D01*
X1341Y436D02*
X1344Y436D01*
X1364Y436D02*
X1385Y436D01*
X1397Y436D02*
X1400Y436D01*
X1415Y436D02*
X1418Y436D01*
X1438Y436D02*
X1442Y436D01*
X1463Y436D02*
X1467Y436D01*
X1478Y436D02*
X1482Y436D01*
X0Y435D02*
X4Y435D01*
X1299Y435D02*
X1303Y435D01*
X1341Y435D02*
X1344Y435D01*
X1364Y435D02*
X1384Y435D01*
X1397Y435D02*
X1400Y435D01*
X1415Y435D02*
X1418Y435D01*
X1438Y435D02*
X1442Y435D01*
X1463Y435D02*
X1467Y435D01*
X1478Y435D02*
X1482Y435D01*
X0Y434D02*
X4Y434D01*
X1299Y434D02*
X1303Y434D01*
X1341Y434D02*
X1344Y434D01*
X1364Y434D02*
X1383Y434D01*
X1397Y434D02*
X1400Y434D01*
X1415Y434D02*
X1418Y434D01*
X1438Y434D02*
X1442Y434D01*
X1464Y434D02*
X1468Y434D01*
X1477Y434D02*
X1481Y434D01*
X0Y433D02*
X4Y433D01*
X1299Y433D02*
X1303Y433D01*
X1341Y433D02*
X1344Y433D01*
X1364Y433D02*
X1380Y433D01*
X1397Y433D02*
X1400Y433D01*
X1415Y433D02*
X1418Y433D01*
X1438Y433D02*
X1442Y433D01*
X1464Y433D02*
X1468Y433D01*
X1477Y433D02*
X1481Y433D01*
X0Y432D02*
X4Y432D01*
X1299Y432D02*
X1303Y432D01*
X1341Y432D02*
X1344Y432D01*
X1364Y432D02*
X1368Y432D01*
X1397Y432D02*
X1400Y432D01*
X1415Y432D02*
X1418Y432D01*
X1438Y432D02*
X1442Y432D01*
X1465Y432D02*
X1469Y432D01*
X1476Y432D02*
X1480Y432D01*
X0Y431D02*
X4Y431D01*
X1299Y431D02*
X1303Y431D01*
X1341Y431D02*
X1344Y431D01*
X1364Y431D02*
X1368Y431D01*
X1397Y431D02*
X1400Y431D01*
X1415Y431D02*
X1418Y431D01*
X1438Y431D02*
X1442Y431D01*
X1465Y431D02*
X1469Y431D01*
X1476Y431D02*
X1480Y431D01*
X0Y430D02*
X4Y430D01*
X1299Y430D02*
X1303Y430D01*
X1341Y430D02*
X1344Y430D01*
X1364Y430D02*
X1368Y430D01*
X1397Y430D02*
X1400Y430D01*
X1415Y430D02*
X1418Y430D01*
X1438Y430D02*
X1442Y430D01*
X1465Y430D02*
X1469Y430D01*
X1475Y430D02*
X1479Y430D01*
X0Y429D02*
X4Y429D01*
X1299Y429D02*
X1303Y429D01*
X1341Y429D02*
X1344Y429D01*
X1364Y429D02*
X1368Y429D01*
X1397Y429D02*
X1400Y429D01*
X1415Y429D02*
X1418Y429D01*
X1438Y429D02*
X1442Y429D01*
X1466Y429D02*
X1470Y429D01*
X1475Y429D02*
X1479Y429D01*
X0Y428D02*
X4Y428D01*
X1299Y428D02*
X1303Y428D01*
X1341Y428D02*
X1344Y428D01*
X1364Y428D02*
X1368Y428D01*
X1397Y428D02*
X1400Y428D01*
X1415Y428D02*
X1418Y428D01*
X1438Y428D02*
X1442Y428D01*
X1466Y428D02*
X1470Y428D01*
X1475Y428D02*
X1479Y428D01*
X0Y427D02*
X4Y427D01*
X1299Y427D02*
X1303Y427D01*
X1341Y427D02*
X1344Y427D01*
X1364Y427D02*
X1368Y427D01*
X1397Y427D02*
X1400Y427D01*
X1414Y427D02*
X1418Y427D01*
X1438Y427D02*
X1442Y427D01*
X1467Y427D02*
X1471Y427D01*
X1474Y427D02*
X1478Y427D01*
X0Y426D02*
X4Y426D01*
X1299Y426D02*
X1303Y426D01*
X1341Y426D02*
X1344Y426D01*
X1364Y426D02*
X1368Y426D01*
X1397Y426D02*
X1401Y426D01*
X1414Y426D02*
X1418Y426D01*
X1438Y426D02*
X1442Y426D01*
X1467Y426D02*
X1471Y426D01*
X1473Y426D02*
X1478Y426D01*
X0Y425D02*
X4Y425D01*
X1299Y425D02*
X1303Y425D01*
X1341Y425D02*
X1344Y425D01*
X1364Y425D02*
X1368Y425D01*
X1397Y425D02*
X1402Y425D01*
X1413Y425D02*
X1418Y425D01*
X1438Y425D02*
X1442Y425D01*
X1468Y425D02*
X1477Y425D01*
X0Y424D02*
X4Y424D01*
X1299Y424D02*
X1303Y424D01*
X1340Y424D02*
X1345Y424D01*
X1364Y424D02*
X1368Y424D01*
X1398Y424D02*
X1404Y424D01*
X1411Y424D02*
X1417Y424D01*
X1438Y424D02*
X1442Y424D01*
X1468Y424D02*
X1477Y424D01*
X0Y423D02*
X4Y423D01*
X1299Y423D02*
X1320Y423D01*
X1334Y423D02*
X1350Y423D01*
X1364Y423D02*
X1368Y423D01*
X1399Y423D02*
X1416Y423D01*
X1432Y423D02*
X1448Y423D01*
X1469Y423D02*
X1476Y423D01*
X0Y422D02*
X4Y422D01*
X1299Y422D02*
X1321Y422D01*
X1334Y422D02*
X1351Y422D01*
X1364Y422D02*
X1368Y422D01*
X1400Y422D02*
X1415Y422D01*
X1432Y422D02*
X1448Y422D01*
X1469Y422D02*
X1476Y422D01*
X0Y421D02*
X4Y421D01*
X1299Y421D02*
X1320Y421D01*
X1334Y421D02*
X1351Y421D01*
X1364Y421D02*
X1368Y421D01*
X1401Y421D02*
X1414Y421D01*
X1432Y421D02*
X1448Y421D01*
X1471Y421D02*
X1475Y421D01*
X0Y420D02*
X4Y420D01*
X1299Y420D02*
X1320Y420D01*
X1335Y420D02*
X1350Y420D01*
X1365Y420D02*
X1367Y420D01*
X1403Y420D02*
X1412Y420D01*
X1432Y420D02*
X1447Y420D01*
X1471Y420D02*
X1475Y420D01*
X0Y419D02*
X4Y419D01*
X1471Y419D02*
X1475Y419D01*
X0Y418D02*
X4Y418D01*
X1470Y418D02*
X1474Y418D01*
X0Y417D02*
X4Y417D01*
X1470Y417D02*
X1474Y417D01*
X0Y416D02*
X4Y416D01*
X1469Y416D02*
X1473Y416D01*
X0Y415D02*
X4Y415D01*
X1469Y415D02*
X1473Y415D01*
X0Y414D02*
X4Y414D01*
X1463Y414D02*
X1472Y414D01*
X0Y413D02*
X4Y413D01*
X1462Y413D02*
X1472Y413D01*
X0Y412D02*
X4Y412D01*
X1462Y412D02*
X1472Y412D01*
X0Y411D02*
X4Y411D01*
X1462Y411D02*
X1471Y411D01*
X0Y410D02*
X4Y410D01*
X1464Y410D02*
X1469Y410D01*
X0Y409D02*
X4Y409D01*
X0Y408D02*
X4Y408D01*
X0Y407D02*
X4Y407D01*
X0Y406D02*
X4Y406D01*
X0Y405D02*
X4Y405D01*
X0Y404D02*
X4Y404D01*
X0Y403D02*
X4Y403D01*
X0Y402D02*
X4Y402D01*
X0Y401D02*
X4Y401D01*
X0Y400D02*
X4Y400D01*
X0Y399D02*
X4Y399D01*
X0Y398D02*
X4Y398D01*
X0Y397D02*
X4Y397D01*
X0Y396D02*
X4Y396D01*
X0Y395D02*
X4Y395D01*
X0Y394D02*
X4Y394D01*
X1267Y394D02*
X1282Y394D01*
X1366Y394D02*
X1367Y394D01*
X1496Y394D02*
X1497Y394D01*
X0Y393D02*
X4Y393D01*
X1267Y393D02*
X1284Y393D01*
X1365Y393D02*
X1368Y393D01*
X1495Y393D02*
X1498Y393D01*
X0Y392D02*
X4Y392D01*
X1267Y392D02*
X1285Y392D01*
X1365Y392D02*
X1368Y392D01*
X1495Y392D02*
X1498Y392D01*
X0Y391D02*
X4Y391D01*
X1267Y391D02*
X1286Y391D01*
X1365Y391D02*
X1368Y391D01*
X1495Y391D02*
X1498Y391D01*
X0Y390D02*
X4Y390D01*
X1267Y390D02*
X1287Y390D01*
X1365Y390D02*
X1368Y390D01*
X1495Y390D02*
X1498Y390D01*
X0Y389D02*
X4Y389D01*
X1267Y389D02*
X1271Y389D01*
X1283Y389D02*
X1288Y389D01*
X1365Y389D02*
X1368Y389D01*
X1495Y389D02*
X1498Y389D01*
X0Y388D02*
X4Y388D01*
X1267Y388D02*
X1271Y388D01*
X1284Y388D02*
X1288Y388D01*
X1365Y388D02*
X1368Y388D01*
X1495Y388D02*
X1498Y388D01*
X0Y387D02*
X4Y387D01*
X1267Y387D02*
X1271Y387D01*
X1285Y387D02*
X1288Y387D01*
X1365Y387D02*
X1368Y387D01*
X1495Y387D02*
X1498Y387D01*
X0Y386D02*
X4Y386D01*
X1267Y386D02*
X1271Y386D01*
X1285Y386D02*
X1288Y386D01*
X1365Y386D02*
X1368Y386D01*
X1495Y386D02*
X1498Y386D01*
X0Y385D02*
X4Y385D01*
X1267Y385D02*
X1271Y385D01*
X1285Y385D02*
X1289Y385D01*
X1365Y385D02*
X1368Y385D01*
X1398Y385D02*
X1400Y385D01*
X1405Y385D02*
X1411Y385D01*
X1495Y385D02*
X1498Y385D01*
X0Y384D02*
X4Y384D01*
X1267Y384D02*
X1271Y384D01*
X1285Y384D02*
X1289Y384D01*
X1305Y384D02*
X1317Y384D01*
X1340Y384D02*
X1353Y384D01*
X1365Y384D02*
X1368Y384D01*
X1381Y384D02*
X1383Y384D01*
X1397Y384D02*
X1401Y384D01*
X1404Y384D02*
X1413Y384D01*
X1435Y384D02*
X1447Y384D01*
X1470Y384D02*
X1483Y384D01*
X1495Y384D02*
X1498Y384D01*
X1511Y384D02*
X1513Y384D01*
X0Y383D02*
X4Y383D01*
X1267Y383D02*
X1271Y383D01*
X1285Y383D02*
X1289Y383D01*
X1304Y383D02*
X1318Y383D01*
X1338Y383D02*
X1353Y383D01*
X1365Y383D02*
X1368Y383D01*
X1380Y383D02*
X1384Y383D01*
X1397Y383D02*
X1414Y383D01*
X1434Y383D02*
X1448Y383D01*
X1468Y383D02*
X1484Y383D01*
X1495Y383D02*
X1498Y383D01*
X1510Y383D02*
X1514Y383D01*
X0Y382D02*
X4Y382D01*
X1267Y382D02*
X1271Y382D01*
X1285Y382D02*
X1288Y382D01*
X1304Y382D02*
X1319Y382D01*
X1337Y382D02*
X1353Y382D01*
X1365Y382D02*
X1368Y382D01*
X1378Y382D02*
X1384Y382D01*
X1397Y382D02*
X1415Y382D01*
X1434Y382D02*
X1449Y382D01*
X1467Y382D02*
X1484Y382D01*
X1495Y382D02*
X1498Y382D01*
X1508Y382D02*
X1514Y382D01*
X0Y381D02*
X4Y381D01*
X1267Y381D02*
X1271Y381D01*
X1284Y381D02*
X1288Y381D01*
X1305Y381D02*
X1320Y381D01*
X1336Y381D02*
X1353Y381D01*
X1365Y381D02*
X1368Y381D01*
X1377Y381D02*
X1383Y381D01*
X1397Y381D02*
X1406Y381D01*
X1410Y381D02*
X1416Y381D01*
X1435Y381D02*
X1450Y381D01*
X1466Y381D02*
X1483Y381D01*
X1495Y381D02*
X1498Y381D01*
X1507Y381D02*
X1513Y381D01*
X0Y380D02*
X4Y380D01*
X1267Y380D02*
X1271Y380D01*
X1283Y380D02*
X1288Y380D01*
X1316Y380D02*
X1320Y380D01*
X1335Y380D02*
X1341Y380D01*
X1365Y380D02*
X1368Y380D01*
X1376Y380D02*
X1382Y380D01*
X1397Y380D02*
X1405Y380D01*
X1411Y380D02*
X1417Y380D01*
X1446Y380D02*
X1450Y380D01*
X1465Y380D02*
X1471Y380D01*
X1495Y380D02*
X1498Y380D01*
X1506Y380D02*
X1512Y380D01*
X0Y379D02*
X4Y379D01*
X1267Y379D02*
X1287Y379D01*
X1317Y379D02*
X1320Y379D01*
X1334Y379D02*
X1340Y379D01*
X1365Y379D02*
X1368Y379D01*
X1375Y379D02*
X1381Y379D01*
X1397Y379D02*
X1404Y379D01*
X1412Y379D02*
X1418Y379D01*
X1447Y379D02*
X1450Y379D01*
X1464Y379D02*
X1470Y379D01*
X1495Y379D02*
X1498Y379D01*
X1505Y379D02*
X1511Y379D01*
X0Y378D02*
X4Y378D01*
X1267Y378D02*
X1287Y378D01*
X1317Y378D02*
X1320Y378D01*
X1333Y378D02*
X1338Y378D01*
X1365Y378D02*
X1368Y378D01*
X1374Y378D02*
X1380Y378D01*
X1397Y378D02*
X1403Y378D01*
X1413Y378D02*
X1418Y378D01*
X1447Y378D02*
X1451Y378D01*
X1463Y378D02*
X1468Y378D01*
X1495Y378D02*
X1498Y378D01*
X1504Y378D02*
X1510Y378D01*
X0Y377D02*
X4Y377D01*
X1267Y377D02*
X1286Y377D01*
X1317Y377D02*
X1321Y377D01*
X1333Y377D02*
X1337Y377D01*
X1365Y377D02*
X1368Y377D01*
X1373Y377D02*
X1379Y377D01*
X1397Y377D02*
X1402Y377D01*
X1414Y377D02*
X1418Y377D01*
X1447Y377D02*
X1451Y377D01*
X1463Y377D02*
X1467Y377D01*
X1495Y377D02*
X1498Y377D01*
X1503Y377D02*
X1509Y377D01*
X0Y376D02*
X4Y376D01*
X716Y376D02*
X716Y376D01*
X743Y376D02*
X744Y376D01*
X764Y376D02*
X788Y376D01*
X1267Y376D02*
X1286Y376D01*
X1317Y376D02*
X1321Y376D01*
X1332Y376D02*
X1336Y376D01*
X1365Y376D02*
X1368Y376D01*
X1371Y376D02*
X1377Y376D01*
X1397Y376D02*
X1401Y376D01*
X1415Y376D02*
X1419Y376D01*
X1447Y376D02*
X1451Y376D01*
X1462Y376D02*
X1466Y376D01*
X1495Y376D02*
X1498Y376D01*
X1501Y376D02*
X1507Y376D01*
X0Y375D02*
X4Y375D01*
X714Y375D02*
X718Y375D01*
X742Y375D02*
X746Y375D01*
X763Y375D02*
X791Y375D01*
X920Y375D02*
X933Y375D01*
X953Y375D02*
X986Y375D01*
X1267Y375D02*
X1287Y375D01*
X1305Y375D02*
X1321Y375D01*
X1332Y375D02*
X1336Y375D01*
X1365Y375D02*
X1368Y375D01*
X1370Y375D02*
X1376Y375D01*
X1397Y375D02*
X1401Y375D01*
X1415Y375D02*
X1419Y375D01*
X1435Y375D02*
X1451Y375D01*
X1462Y375D02*
X1466Y375D01*
X1495Y375D02*
X1498Y375D01*
X1500Y375D02*
X1506Y375D01*
X0Y374D02*
X4Y374D01*
X393Y374D02*
X403Y374D01*
X713Y374D02*
X719Y374D01*
X741Y374D02*
X746Y374D01*
X763Y374D02*
X793Y374D01*
X916Y374D02*
X935Y374D01*
X953Y374D02*
X986Y374D01*
X1267Y374D02*
X1271Y374D01*
X1282Y374D02*
X1288Y374D01*
X1303Y374D02*
X1321Y374D01*
X1332Y374D02*
X1336Y374D01*
X1365Y374D02*
X1375Y374D01*
X1397Y374D02*
X1401Y374D01*
X1415Y374D02*
X1419Y374D01*
X1433Y374D02*
X1451Y374D01*
X1462Y374D02*
X1466Y374D01*
X1495Y374D02*
X1505Y374D01*
X0Y373D02*
X4Y373D01*
X392Y373D02*
X403Y373D01*
X713Y373D02*
X719Y373D01*
X741Y373D02*
X747Y373D01*
X763Y373D02*
X794Y373D01*
X914Y373D02*
X936Y373D01*
X953Y373D02*
X986Y373D01*
X1267Y373D02*
X1271Y373D01*
X1284Y373D02*
X1288Y373D01*
X1301Y373D02*
X1321Y373D01*
X1332Y373D02*
X1336Y373D01*
X1365Y373D02*
X1374Y373D01*
X1397Y373D02*
X1401Y373D01*
X1415Y373D02*
X1419Y373D01*
X1431Y373D02*
X1451Y373D01*
X1462Y373D02*
X1466Y373D01*
X1495Y373D02*
X1504Y373D01*
X0Y372D02*
X4Y372D01*
X392Y372D02*
X403Y372D01*
X713Y372D02*
X719Y372D01*
X741Y372D02*
X747Y372D01*
X763Y372D02*
X795Y372D01*
X913Y372D02*
X936Y372D01*
X953Y372D02*
X986Y372D01*
X1267Y372D02*
X1271Y372D01*
X1284Y372D02*
X1288Y372D01*
X1301Y372D02*
X1321Y372D01*
X1332Y372D02*
X1336Y372D01*
X1365Y372D02*
X1375Y372D01*
X1397Y372D02*
X1401Y372D01*
X1415Y372D02*
X1419Y372D01*
X1431Y372D02*
X1451Y372D01*
X1462Y372D02*
X1466Y372D01*
X1495Y372D02*
X1505Y372D01*
X0Y371D02*
X4Y371D01*
X392Y371D02*
X404Y371D01*
X713Y371D02*
X719Y371D01*
X741Y371D02*
X747Y371D01*
X763Y371D02*
X795Y371D01*
X912Y371D02*
X936Y371D01*
X953Y371D02*
X986Y371D01*
X1267Y371D02*
X1271Y371D01*
X1285Y371D02*
X1288Y371D01*
X1300Y371D02*
X1321Y371D01*
X1332Y371D02*
X1336Y371D01*
X1365Y371D02*
X1376Y371D01*
X1397Y371D02*
X1401Y371D01*
X1415Y371D02*
X1419Y371D01*
X1430Y371D02*
X1451Y371D01*
X1462Y371D02*
X1466Y371D01*
X1495Y371D02*
X1506Y371D01*
X0Y370D02*
X4Y370D01*
X392Y370D02*
X404Y370D01*
X713Y370D02*
X719Y370D01*
X741Y370D02*
X747Y370D01*
X763Y370D02*
X796Y370D01*
X912Y370D02*
X936Y370D01*
X953Y370D02*
X986Y370D01*
X1267Y370D02*
X1271Y370D01*
X1285Y370D02*
X1289Y370D01*
X1300Y370D02*
X1304Y370D01*
X1317Y370D02*
X1321Y370D01*
X1332Y370D02*
X1336Y370D01*
X1365Y370D02*
X1377Y370D01*
X1397Y370D02*
X1401Y370D01*
X1415Y370D02*
X1419Y370D01*
X1430Y370D02*
X1434Y370D01*
X1447Y370D02*
X1451Y370D01*
X1462Y370D02*
X1466Y370D01*
X1495Y370D02*
X1507Y370D01*
X0Y369D02*
X4Y369D01*
X392Y369D02*
X404Y369D01*
X713Y369D02*
X719Y369D01*
X741Y369D02*
X747Y369D01*
X763Y369D02*
X770Y369D01*
X788Y369D02*
X796Y369D01*
X911Y369D02*
X935Y369D01*
X953Y369D02*
X986Y369D01*
X1267Y369D02*
X1271Y369D01*
X1285Y369D02*
X1289Y369D01*
X1300Y369D02*
X1303Y369D01*
X1317Y369D02*
X1321Y369D01*
X1332Y369D02*
X1336Y369D01*
X1365Y369D02*
X1369Y369D01*
X1373Y369D02*
X1379Y369D01*
X1397Y369D02*
X1401Y369D01*
X1415Y369D02*
X1419Y369D01*
X1430Y369D02*
X1433Y369D01*
X1447Y369D02*
X1451Y369D01*
X1462Y369D02*
X1466Y369D01*
X1495Y369D02*
X1499Y369D01*
X1503Y369D02*
X1509Y369D01*
X0Y368D02*
X4Y368D01*
X391Y368D02*
X404Y368D01*
X713Y368D02*
X719Y368D01*
X741Y368D02*
X747Y368D01*
X763Y368D02*
X769Y368D01*
X790Y368D02*
X797Y368D01*
X910Y368D02*
X919Y368D01*
X953Y368D02*
X959Y368D01*
X966Y368D02*
X973Y368D01*
X980Y368D02*
X986Y368D01*
X1267Y368D02*
X1271Y368D01*
X1285Y368D02*
X1289Y368D01*
X1300Y368D02*
X1303Y368D01*
X1317Y368D02*
X1321Y368D01*
X1332Y368D02*
X1336Y368D01*
X1365Y368D02*
X1368Y368D01*
X1374Y368D02*
X1380Y368D01*
X1397Y368D02*
X1401Y368D01*
X1415Y368D02*
X1419Y368D01*
X1430Y368D02*
X1433Y368D01*
X1447Y368D02*
X1451Y368D01*
X1462Y368D02*
X1466Y368D01*
X1495Y368D02*
X1498Y368D01*
X1504Y368D02*
X1510Y368D01*
X0Y367D02*
X4Y367D01*
X391Y367D02*
X404Y367D01*
X713Y367D02*
X719Y367D01*
X741Y367D02*
X747Y367D01*
X763Y367D02*
X769Y367D01*
X791Y367D02*
X797Y367D01*
X910Y367D02*
X917Y367D01*
X953Y367D02*
X959Y367D01*
X966Y367D02*
X972Y367D01*
X980Y367D02*
X986Y367D01*
X1267Y367D02*
X1271Y367D01*
X1285Y367D02*
X1288Y367D01*
X1300Y367D02*
X1303Y367D01*
X1317Y367D02*
X1321Y367D01*
X1333Y367D02*
X1337Y367D01*
X1365Y367D02*
X1368Y367D01*
X1375Y367D02*
X1381Y367D01*
X1397Y367D02*
X1402Y367D01*
X1414Y367D02*
X1418Y367D01*
X1430Y367D02*
X1433Y367D01*
X1447Y367D02*
X1451Y367D01*
X1463Y367D02*
X1467Y367D01*
X1495Y367D02*
X1498Y367D01*
X1505Y367D02*
X1511Y367D01*
X0Y366D02*
X4Y366D01*
X391Y366D02*
X405Y366D01*
X713Y366D02*
X719Y366D01*
X741Y366D02*
X747Y366D01*
X763Y366D02*
X769Y366D01*
X791Y366D02*
X797Y366D01*
X909Y366D02*
X916Y366D01*
X953Y366D02*
X959Y366D01*
X966Y366D02*
X972Y366D01*
X980Y366D02*
X986Y366D01*
X1267Y366D02*
X1271Y366D01*
X1284Y366D02*
X1288Y366D01*
X1300Y366D02*
X1303Y366D01*
X1316Y366D02*
X1321Y366D01*
X1333Y366D02*
X1338Y366D01*
X1365Y366D02*
X1368Y366D01*
X1376Y366D02*
X1382Y366D01*
X1397Y366D02*
X1403Y366D01*
X1413Y366D02*
X1418Y366D01*
X1430Y366D02*
X1433Y366D01*
X1446Y366D02*
X1451Y366D01*
X1463Y366D02*
X1468Y366D01*
X1495Y366D02*
X1498Y366D01*
X1506Y366D02*
X1512Y366D01*
X0Y365D02*
X4Y365D01*
X391Y365D02*
X405Y365D01*
X713Y365D02*
X719Y365D01*
X741Y365D02*
X747Y365D01*
X763Y365D02*
X769Y365D01*
X791Y365D02*
X797Y365D01*
X909Y365D02*
X916Y365D01*
X953Y365D02*
X959Y365D01*
X966Y365D02*
X972Y365D01*
X980Y365D02*
X986Y365D01*
X1267Y365D02*
X1271Y365D01*
X1283Y365D02*
X1288Y365D01*
X1300Y365D02*
X1304Y365D01*
X1314Y365D02*
X1321Y365D01*
X1334Y365D02*
X1340Y365D01*
X1365Y365D02*
X1368Y365D01*
X1377Y365D02*
X1383Y365D01*
X1397Y365D02*
X1404Y365D01*
X1412Y365D02*
X1418Y365D01*
X1430Y365D02*
X1434Y365D01*
X1445Y365D02*
X1451Y365D01*
X1464Y365D02*
X1470Y365D01*
X1495Y365D02*
X1498Y365D01*
X1507Y365D02*
X1513Y365D01*
X0Y364D02*
X4Y364D01*
X391Y364D02*
X405Y364D01*
X713Y364D02*
X719Y364D01*
X741Y364D02*
X747Y364D01*
X763Y364D02*
X769Y364D01*
X791Y364D02*
X797Y364D01*
X908Y364D02*
X915Y364D01*
X953Y364D02*
X958Y364D01*
X966Y364D02*
X972Y364D01*
X981Y364D02*
X986Y364D01*
X1267Y364D02*
X1271Y364D01*
X1281Y364D02*
X1287Y364D01*
X1300Y364D02*
X1305Y364D01*
X1313Y364D02*
X1321Y364D01*
X1335Y364D02*
X1341Y364D01*
X1365Y364D02*
X1368Y364D01*
X1378Y364D02*
X1384Y364D01*
X1397Y364D02*
X1405Y364D01*
X1411Y364D02*
X1417Y364D01*
X1430Y364D02*
X1435Y364D01*
X1443Y364D02*
X1451Y364D01*
X1465Y364D02*
X1471Y364D01*
X1495Y364D02*
X1498Y364D01*
X1508Y364D02*
X1514Y364D01*
X0Y363D02*
X4Y363D01*
X390Y363D02*
X405Y363D01*
X713Y363D02*
X719Y363D01*
X741Y363D02*
X747Y363D01*
X763Y363D02*
X769Y363D01*
X791Y363D02*
X797Y363D01*
X908Y363D02*
X915Y363D01*
X954Y363D02*
X957Y363D01*
X966Y363D02*
X972Y363D01*
X982Y363D02*
X985Y363D01*
X1267Y363D02*
X1287Y363D01*
X1300Y363D02*
X1321Y363D01*
X1336Y363D02*
X1353Y363D01*
X1365Y363D02*
X1368Y363D01*
X1380Y363D02*
X1385Y363D01*
X1397Y363D02*
X1406Y363D01*
X1410Y363D02*
X1416Y363D01*
X1430Y363D02*
X1451Y363D01*
X1466Y363D02*
X1483Y363D01*
X1495Y363D02*
X1498Y363D01*
X1510Y363D02*
X1516Y363D01*
X0Y362D02*
X4Y362D01*
X390Y362D02*
X405Y362D01*
X713Y362D02*
X719Y362D01*
X741Y362D02*
X747Y362D01*
X763Y362D02*
X769Y362D01*
X791Y362D02*
X797Y362D01*
X907Y362D02*
X914Y362D01*
X966Y362D02*
X972Y362D01*
X1267Y362D02*
X1286Y362D01*
X1301Y362D02*
X1321Y362D01*
X1337Y362D02*
X1353Y362D01*
X1365Y362D02*
X1368Y362D01*
X1381Y362D02*
X1386Y362D01*
X1397Y362D02*
X1415Y362D01*
X1431Y362D02*
X1451Y362D01*
X1467Y362D02*
X1484Y362D01*
X1495Y362D02*
X1498Y362D01*
X1511Y362D02*
X1516Y362D01*
X0Y361D02*
X4Y361D01*
X390Y361D02*
X405Y361D01*
X713Y361D02*
X719Y361D01*
X741Y361D02*
X747Y361D01*
X763Y361D02*
X769Y361D01*
X791Y361D02*
X797Y361D01*
X907Y361D02*
X914Y361D01*
X966Y361D02*
X972Y361D01*
X1267Y361D02*
X1285Y361D01*
X1302Y361D02*
X1316Y361D01*
X1318Y361D02*
X1321Y361D01*
X1338Y361D02*
X1353Y361D01*
X1365Y361D02*
X1368Y361D01*
X1382Y361D02*
X1386Y361D01*
X1397Y361D02*
X1414Y361D01*
X1432Y361D02*
X1446Y361D01*
X1448Y361D02*
X1451Y361D01*
X1468Y361D02*
X1483Y361D01*
X1495Y361D02*
X1498Y361D01*
X1512Y361D02*
X1516Y361D01*
X0Y360D02*
X4Y360D01*
X360Y360D02*
X361Y360D01*
X390Y360D02*
X406Y360D01*
X434Y360D02*
X436Y360D01*
X713Y360D02*
X719Y360D01*
X741Y360D02*
X747Y360D01*
X763Y360D02*
X769Y360D01*
X791Y360D02*
X797Y360D01*
X906Y360D02*
X913Y360D01*
X966Y360D02*
X972Y360D01*
X1267Y360D02*
X1283Y360D01*
X1303Y360D02*
X1314Y360D01*
X1318Y360D02*
X1320Y360D01*
X1340Y360D02*
X1353Y360D01*
X1365Y360D02*
X1368Y360D01*
X1383Y360D02*
X1385Y360D01*
X1397Y360D02*
X1401Y360D01*
X1403Y360D02*
X1412Y360D01*
X1433Y360D02*
X1444Y360D01*
X1448Y360D02*
X1450Y360D01*
X1470Y360D02*
X1483Y360D01*
X1495Y360D02*
X1498Y360D01*
X1513Y360D02*
X1515Y360D01*
X0Y359D02*
X4Y359D01*
X359Y359D02*
X363Y359D01*
X390Y359D02*
X406Y359D01*
X433Y359D02*
X437Y359D01*
X713Y359D02*
X719Y359D01*
X741Y359D02*
X747Y359D01*
X763Y359D02*
X769Y359D01*
X791Y359D02*
X797Y359D01*
X906Y359D02*
X913Y359D01*
X966Y359D02*
X972Y359D01*
X1397Y359D02*
X1401Y359D01*
X1405Y359D02*
X1411Y359D01*
X0Y358D02*
X4Y358D01*
X358Y358D02*
X364Y358D01*
X389Y358D02*
X406Y358D01*
X431Y358D02*
X438Y358D01*
X713Y358D02*
X719Y358D01*
X741Y358D02*
X747Y358D01*
X763Y358D02*
X769Y358D01*
X791Y358D02*
X797Y358D01*
X905Y358D02*
X912Y358D01*
X966Y358D02*
X972Y358D01*
X1397Y358D02*
X1401Y358D01*
X0Y357D02*
X4Y357D01*
X357Y357D02*
X366Y357D01*
X387Y357D02*
X409Y357D01*
X430Y357D02*
X439Y357D01*
X713Y357D02*
X719Y357D01*
X741Y357D02*
X747Y357D01*
X763Y357D02*
X769Y357D01*
X791Y357D02*
X797Y357D01*
X905Y357D02*
X912Y357D01*
X966Y357D02*
X972Y357D01*
X1397Y357D02*
X1401Y357D01*
X0Y356D02*
X4Y356D01*
X356Y356D02*
X367Y356D01*
X383Y356D02*
X412Y356D01*
X428Y356D02*
X440Y356D01*
X713Y356D02*
X719Y356D01*
X741Y356D02*
X747Y356D01*
X763Y356D02*
X769Y356D01*
X791Y356D02*
X797Y356D01*
X904Y356D02*
X911Y356D01*
X966Y356D02*
X972Y356D01*
X1397Y356D02*
X1401Y356D01*
X0Y355D02*
X4Y355D01*
X355Y355D02*
X369Y355D01*
X381Y355D02*
X415Y355D01*
X427Y355D02*
X441Y355D01*
X713Y355D02*
X719Y355D01*
X741Y355D02*
X747Y355D01*
X763Y355D02*
X769Y355D01*
X791Y355D02*
X797Y355D01*
X904Y355D02*
X911Y355D01*
X966Y355D02*
X972Y355D01*
X1397Y355D02*
X1401Y355D01*
X0Y354D02*
X4Y354D01*
X354Y354D02*
X370Y354D01*
X379Y354D02*
X417Y354D01*
X425Y354D02*
X442Y354D01*
X713Y354D02*
X719Y354D01*
X741Y354D02*
X747Y354D01*
X763Y354D02*
X769Y354D01*
X791Y354D02*
X797Y354D01*
X904Y354D02*
X910Y354D01*
X966Y354D02*
X972Y354D01*
X1397Y354D02*
X1401Y354D01*
X0Y353D02*
X4Y353D01*
X353Y353D02*
X372Y353D01*
X377Y353D02*
X419Y353D01*
X424Y353D02*
X443Y353D01*
X713Y353D02*
X719Y353D01*
X741Y353D02*
X747Y353D01*
X763Y353D02*
X769Y353D01*
X791Y353D02*
X797Y353D01*
X903Y353D02*
X910Y353D01*
X966Y353D02*
X972Y353D01*
X1397Y353D02*
X1401Y353D01*
X0Y352D02*
X4Y352D01*
X353Y352D02*
X373Y352D01*
X375Y352D02*
X420Y352D01*
X423Y352D02*
X442Y352D01*
X713Y352D02*
X719Y352D01*
X741Y352D02*
X747Y352D01*
X763Y352D02*
X769Y352D01*
X791Y352D02*
X797Y352D01*
X903Y352D02*
X909Y352D01*
X966Y352D02*
X972Y352D01*
X1397Y352D02*
X1401Y352D01*
X0Y351D02*
X4Y351D01*
X354Y351D02*
X441Y351D01*
X713Y351D02*
X719Y351D01*
X741Y351D02*
X747Y351D01*
X763Y351D02*
X769Y351D01*
X790Y351D02*
X797Y351D01*
X903Y351D02*
X909Y351D01*
X966Y351D02*
X972Y351D01*
X1397Y351D02*
X1400Y351D01*
X0Y350D02*
X4Y350D01*
X355Y350D02*
X441Y350D01*
X713Y350D02*
X719Y350D01*
X741Y350D02*
X747Y350D01*
X763Y350D02*
X769Y350D01*
X789Y350D02*
X796Y350D01*
X903Y350D02*
X909Y350D01*
X966Y350D02*
X972Y350D01*
X1398Y350D02*
X1399Y350D01*
X0Y349D02*
X4Y349D01*
X356Y349D02*
X440Y349D01*
X713Y349D02*
X719Y349D01*
X741Y349D02*
X747Y349D01*
X763Y349D02*
X796Y349D01*
X902Y349D02*
X909Y349D01*
X966Y349D02*
X972Y349D01*
X0Y348D02*
X4Y348D01*
X356Y348D02*
X439Y348D01*
X713Y348D02*
X719Y348D01*
X741Y348D02*
X747Y348D01*
X763Y348D02*
X796Y348D01*
X902Y348D02*
X908Y348D01*
X966Y348D02*
X972Y348D01*
X0Y347D02*
X4Y347D01*
X357Y347D02*
X439Y347D01*
X713Y347D02*
X719Y347D01*
X741Y347D02*
X747Y347D01*
X763Y347D02*
X795Y347D01*
X902Y347D02*
X909Y347D01*
X966Y347D02*
X972Y347D01*
X0Y346D02*
X4Y346D01*
X358Y346D02*
X438Y346D01*
X713Y346D02*
X719Y346D01*
X741Y346D02*
X747Y346D01*
X763Y346D02*
X794Y346D01*
X903Y346D02*
X909Y346D01*
X966Y346D02*
X972Y346D01*
X0Y345D02*
X4Y345D01*
X358Y345D02*
X437Y345D01*
X713Y345D02*
X719Y345D01*
X741Y345D02*
X747Y345D01*
X763Y345D02*
X793Y345D01*
X903Y345D02*
X909Y345D01*
X966Y345D02*
X972Y345D01*
X0Y344D02*
X4Y344D01*
X359Y344D02*
X437Y344D01*
X713Y344D02*
X719Y344D01*
X741Y344D02*
X747Y344D01*
X763Y344D02*
X792Y344D01*
X903Y344D02*
X909Y344D01*
X966Y344D02*
X972Y344D01*
X0Y343D02*
X4Y343D01*
X360Y343D02*
X436Y343D01*
X713Y343D02*
X719Y343D01*
X741Y343D02*
X747Y343D01*
X763Y343D02*
X789Y343D01*
X903Y343D02*
X910Y343D01*
X966Y343D02*
X972Y343D01*
X0Y342D02*
X4Y342D01*
X360Y342D02*
X435Y342D01*
X713Y342D02*
X719Y342D01*
X741Y342D02*
X747Y342D01*
X763Y342D02*
X769Y342D01*
X904Y342D02*
X910Y342D01*
X966Y342D02*
X972Y342D01*
X0Y341D02*
X4Y341D01*
X361Y341D02*
X435Y341D01*
X713Y341D02*
X719Y341D01*
X741Y341D02*
X747Y341D01*
X763Y341D02*
X769Y341D01*
X904Y341D02*
X911Y341D01*
X966Y341D02*
X972Y341D01*
X0Y340D02*
X4Y340D01*
X362Y340D02*
X434Y340D01*
X713Y340D02*
X719Y340D01*
X741Y340D02*
X747Y340D01*
X763Y340D02*
X769Y340D01*
X905Y340D02*
X911Y340D01*
X966Y340D02*
X972Y340D01*
X0Y339D02*
X4Y339D01*
X362Y339D02*
X434Y339D01*
X713Y339D02*
X719Y339D01*
X741Y339D02*
X747Y339D01*
X763Y339D02*
X769Y339D01*
X905Y339D02*
X912Y339D01*
X966Y339D02*
X972Y339D01*
X0Y338D02*
X4Y338D01*
X361Y338D02*
X434Y338D01*
X713Y338D02*
X719Y338D01*
X741Y338D02*
X747Y338D01*
X763Y338D02*
X769Y338D01*
X906Y338D02*
X912Y338D01*
X966Y338D02*
X972Y338D01*
X0Y337D02*
X4Y337D01*
X361Y337D02*
X435Y337D01*
X713Y337D02*
X719Y337D01*
X741Y337D02*
X747Y337D01*
X763Y337D02*
X769Y337D01*
X906Y337D02*
X913Y337D01*
X966Y337D02*
X972Y337D01*
X0Y336D02*
X4Y336D01*
X360Y336D02*
X393Y336D01*
X402Y336D02*
X436Y336D01*
X713Y336D02*
X719Y336D01*
X741Y336D02*
X747Y336D01*
X763Y336D02*
X769Y336D01*
X907Y336D02*
X913Y336D01*
X966Y336D02*
X972Y336D01*
X0Y335D02*
X4Y335D01*
X359Y335D02*
X390Y335D01*
X406Y335D02*
X436Y335D01*
X713Y335D02*
X719Y335D01*
X741Y335D02*
X747Y335D01*
X763Y335D02*
X769Y335D01*
X907Y335D02*
X914Y335D01*
X966Y335D02*
X972Y335D01*
X0Y334D02*
X4Y334D01*
X359Y334D02*
X388Y334D01*
X408Y334D02*
X437Y334D01*
X713Y334D02*
X719Y334D01*
X741Y334D02*
X747Y334D01*
X763Y334D02*
X769Y334D01*
X908Y334D02*
X914Y334D01*
X966Y334D02*
X972Y334D01*
X1366Y334D02*
X1366Y334D01*
X1416Y334D02*
X1416Y334D01*
X0Y333D02*
X4Y333D01*
X358Y333D02*
X386Y333D01*
X410Y333D02*
X437Y333D01*
X713Y333D02*
X719Y333D01*
X741Y333D02*
X747Y333D01*
X763Y333D02*
X769Y333D01*
X908Y333D02*
X915Y333D01*
X966Y333D02*
X972Y333D01*
X1365Y333D02*
X1367Y333D01*
X1415Y333D02*
X1418Y333D01*
X0Y332D02*
X4Y332D01*
X358Y332D02*
X385Y332D01*
X411Y332D02*
X438Y332D01*
X713Y332D02*
X719Y332D01*
X741Y332D02*
X747Y332D01*
X763Y332D02*
X769Y332D01*
X909Y332D02*
X915Y332D01*
X966Y332D02*
X972Y332D01*
X1364Y332D02*
X1368Y332D01*
X1414Y332D02*
X1418Y332D01*
X0Y331D02*
X4Y331D01*
X358Y331D02*
X383Y331D01*
X412Y331D02*
X438Y331D01*
X713Y331D02*
X720Y331D01*
X740Y331D02*
X747Y331D01*
X763Y331D02*
X769Y331D01*
X909Y331D02*
X916Y331D01*
X966Y331D02*
X972Y331D01*
X1364Y331D02*
X1369Y331D01*
X1414Y331D02*
X1418Y331D01*
X0Y330D02*
X4Y330D01*
X357Y330D02*
X382Y330D01*
X413Y330D02*
X438Y330D01*
X713Y330D02*
X720Y330D01*
X739Y330D02*
X746Y330D01*
X763Y330D02*
X769Y330D01*
X910Y330D02*
X916Y330D01*
X966Y330D02*
X972Y330D01*
X1365Y330D02*
X1369Y330D01*
X1413Y330D02*
X1417Y330D01*
X0Y329D02*
X4Y329D01*
X357Y329D02*
X381Y329D01*
X414Y329D02*
X439Y329D01*
X714Y329D02*
X723Y329D01*
X737Y329D02*
X746Y329D01*
X763Y329D02*
X769Y329D01*
X910Y329D02*
X917Y329D01*
X966Y329D02*
X972Y329D01*
X1365Y329D02*
X1370Y329D01*
X1413Y329D02*
X1417Y329D01*
X0Y328D02*
X4Y328D01*
X357Y328D02*
X381Y328D01*
X415Y328D02*
X439Y328D01*
X714Y328D02*
X746Y328D01*
X763Y328D02*
X769Y328D01*
X911Y328D02*
X919Y328D01*
X966Y328D02*
X972Y328D01*
X1366Y328D02*
X1370Y328D01*
X1412Y328D02*
X1416Y328D01*
X0Y327D02*
X4Y327D01*
X356Y327D02*
X380Y327D01*
X416Y327D02*
X439Y327D01*
X715Y327D02*
X745Y327D01*
X763Y327D02*
X769Y327D01*
X911Y327D02*
X935Y327D01*
X966Y327D02*
X972Y327D01*
X1367Y327D02*
X1371Y327D01*
X1411Y327D02*
X1416Y327D01*
X0Y326D02*
X4Y326D01*
X356Y326D02*
X379Y326D01*
X416Y326D02*
X440Y326D01*
X715Y326D02*
X744Y326D01*
X763Y326D02*
X769Y326D01*
X912Y326D02*
X936Y326D01*
X966Y326D02*
X972Y326D01*
X1367Y326D02*
X1372Y326D01*
X1411Y326D02*
X1415Y326D01*
X0Y325D02*
X4Y325D01*
X356Y325D02*
X379Y325D01*
X417Y325D02*
X440Y325D01*
X716Y325D02*
X743Y325D01*
X763Y325D02*
X769Y325D01*
X912Y325D02*
X936Y325D01*
X966Y325D02*
X972Y325D01*
X1368Y325D02*
X1372Y325D01*
X1410Y325D02*
X1414Y325D01*
X0Y324D02*
X4Y324D01*
X354Y324D02*
X378Y324D01*
X417Y324D02*
X441Y324D01*
X717Y324D02*
X742Y324D01*
X764Y324D02*
X769Y324D01*
X913Y324D02*
X936Y324D01*
X966Y324D02*
X972Y324D01*
X1368Y324D02*
X1373Y324D01*
X1410Y324D02*
X1414Y324D01*
X0Y323D02*
X4Y323D01*
X349Y323D02*
X378Y323D01*
X418Y323D02*
X447Y323D01*
X719Y323D02*
X741Y323D01*
X764Y323D02*
X768Y323D01*
X915Y323D02*
X936Y323D01*
X967Y323D02*
X972Y323D01*
X1369Y323D02*
X1373Y323D01*
X1409Y323D02*
X1413Y323D01*
X0Y322D02*
X4Y322D01*
X344Y322D02*
X377Y322D01*
X418Y322D02*
X452Y322D01*
X723Y322D02*
X737Y322D01*
X916Y322D02*
X935Y322D01*
X968Y322D02*
X971Y322D01*
X1370Y322D02*
X1374Y322D01*
X1408Y322D02*
X1413Y322D01*
X0Y321D02*
X4Y321D01*
X340Y321D02*
X377Y321D01*
X418Y321D02*
X456Y321D01*
X920Y321D02*
X933Y321D01*
X1370Y321D02*
X1374Y321D01*
X1408Y321D02*
X1412Y321D01*
X0Y320D02*
X4Y320D01*
X340Y320D02*
X377Y320D01*
X419Y320D02*
X456Y320D01*
X1371Y320D02*
X1375Y320D01*
X1407Y320D02*
X1412Y320D01*
X0Y319D02*
X4Y319D01*
X340Y319D02*
X377Y319D01*
X419Y319D02*
X456Y319D01*
X1371Y319D02*
X1376Y319D01*
X1407Y319D02*
X1411Y319D01*
X0Y318D02*
X4Y318D01*
X340Y318D02*
X377Y318D01*
X419Y318D02*
X456Y318D01*
X1372Y318D02*
X1376Y318D01*
X1406Y318D02*
X1410Y318D01*
X0Y317D02*
X4Y317D01*
X340Y317D02*
X376Y317D01*
X419Y317D02*
X456Y317D01*
X1373Y317D02*
X1377Y317D01*
X1405Y317D02*
X1410Y317D01*
X0Y316D02*
X4Y316D01*
X340Y316D02*
X376Y316D01*
X419Y316D02*
X456Y316D01*
X1373Y316D02*
X1377Y316D01*
X1405Y316D02*
X1409Y316D01*
X0Y315D02*
X4Y315D01*
X340Y315D02*
X376Y315D01*
X419Y315D02*
X456Y315D01*
X1374Y315D02*
X1378Y315D01*
X1404Y315D02*
X1409Y315D01*
X0Y314D02*
X4Y314D01*
X340Y314D02*
X376Y314D01*
X419Y314D02*
X456Y314D01*
X1374Y314D02*
X1379Y314D01*
X1404Y314D02*
X1408Y314D01*
X0Y313D02*
X4Y313D01*
X340Y313D02*
X377Y313D01*
X419Y313D02*
X456Y313D01*
X1375Y313D02*
X1379Y313D01*
X1403Y313D02*
X1407Y313D01*
X0Y312D02*
X4Y312D01*
X340Y312D02*
X377Y312D01*
X419Y312D02*
X456Y312D01*
X1375Y312D02*
X1380Y312D01*
X1403Y312D02*
X1407Y312D01*
X0Y311D02*
X4Y311D01*
X340Y311D02*
X377Y311D01*
X419Y311D02*
X456Y311D01*
X1376Y311D02*
X1380Y311D01*
X1402Y311D02*
X1406Y311D01*
X0Y310D02*
X4Y310D01*
X340Y310D02*
X377Y310D01*
X418Y310D02*
X456Y310D01*
X1377Y310D02*
X1381Y310D01*
X1401Y310D02*
X1406Y310D01*
X0Y309D02*
X4Y309D01*
X344Y309D02*
X377Y309D01*
X418Y309D02*
X451Y309D01*
X1377Y309D02*
X1382Y309D01*
X1401Y309D02*
X1405Y309D01*
X0Y308D02*
X4Y308D01*
X350Y308D02*
X378Y308D01*
X418Y308D02*
X446Y308D01*
X1378Y308D02*
X1382Y308D01*
X1400Y308D02*
X1405Y308D01*
X0Y307D02*
X4Y307D01*
X355Y307D02*
X378Y307D01*
X417Y307D02*
X441Y307D01*
X1378Y307D02*
X1383Y307D01*
X1400Y307D02*
X1404Y307D01*
X0Y306D02*
X4Y306D01*
X355Y306D02*
X379Y306D01*
X417Y306D02*
X440Y306D01*
X1379Y306D02*
X1383Y306D01*
X1399Y306D02*
X1403Y306D01*
X0Y305D02*
X4Y305D01*
X356Y305D02*
X379Y305D01*
X416Y305D02*
X440Y305D01*
X1380Y305D02*
X1384Y305D01*
X1398Y305D02*
X1403Y305D01*
X0Y304D02*
X4Y304D01*
X356Y304D02*
X380Y304D01*
X416Y304D02*
X440Y304D01*
X1380Y304D02*
X1384Y304D01*
X1398Y304D02*
X1402Y304D01*
X0Y303D02*
X4Y303D01*
X356Y303D02*
X380Y303D01*
X415Y303D02*
X439Y303D01*
X1381Y303D02*
X1385Y303D01*
X1397Y303D02*
X1402Y303D01*
X0Y302D02*
X4Y302D01*
X356Y302D02*
X381Y302D01*
X414Y302D02*
X439Y302D01*
X1381Y302D02*
X1385Y302D01*
X1397Y302D02*
X1401Y302D01*
X0Y301D02*
X4Y301D01*
X357Y301D02*
X382Y301D01*
X413Y301D02*
X439Y301D01*
X1382Y301D02*
X1386Y301D01*
X1397Y301D02*
X1400Y301D01*
X0Y300D02*
X4Y300D01*
X357Y300D02*
X383Y300D01*
X412Y300D02*
X438Y300D01*
X1383Y300D02*
X1385Y300D01*
X1397Y300D02*
X1400Y300D01*
X0Y299D02*
X4Y299D01*
X358Y299D02*
X384Y299D01*
X411Y299D02*
X438Y299D01*
X0Y298D02*
X4Y298D01*
X358Y298D02*
X386Y298D01*
X410Y298D02*
X438Y298D01*
X0Y297D02*
X4Y297D01*
X358Y297D02*
X386Y297D01*
X409Y297D02*
X437Y297D01*
X0Y296D02*
X4Y296D01*
X359Y296D02*
X386Y296D01*
X410Y296D02*
X437Y296D01*
X0Y295D02*
X4Y295D01*
X359Y295D02*
X385Y295D01*
X410Y295D02*
X436Y295D01*
X0Y294D02*
X4Y294D01*
X360Y294D02*
X385Y294D01*
X411Y294D02*
X436Y294D01*
X0Y293D02*
X4Y293D01*
X360Y293D02*
X384Y293D01*
X411Y293D02*
X435Y293D01*
X0Y292D02*
X4Y292D01*
X361Y292D02*
X384Y292D01*
X411Y292D02*
X435Y292D01*
X0Y291D02*
X4Y291D01*
X361Y291D02*
X384Y291D01*
X412Y291D02*
X434Y291D01*
X0Y290D02*
X4Y290D01*
X361Y290D02*
X383Y290D01*
X412Y290D02*
X435Y290D01*
X0Y289D02*
X4Y289D01*
X360Y289D02*
X383Y289D01*
X413Y289D02*
X435Y289D01*
X0Y288D02*
X4Y288D01*
X360Y288D02*
X382Y288D01*
X413Y288D02*
X436Y288D01*
X0Y287D02*
X4Y287D01*
X359Y287D02*
X382Y287D01*
X414Y287D02*
X437Y287D01*
X0Y286D02*
X4Y286D01*
X358Y286D02*
X382Y286D01*
X414Y286D02*
X437Y286D01*
X0Y285D02*
X4Y285D01*
X357Y285D02*
X381Y285D01*
X414Y285D02*
X438Y285D01*
X0Y284D02*
X4Y284D01*
X357Y284D02*
X381Y284D01*
X415Y284D02*
X439Y284D01*
X0Y283D02*
X4Y283D01*
X356Y283D02*
X380Y283D01*
X415Y283D02*
X439Y283D01*
X0Y282D02*
X4Y282D01*
X355Y282D02*
X380Y282D01*
X416Y282D02*
X440Y282D01*
X0Y281D02*
X4Y281D01*
X355Y281D02*
X380Y281D01*
X416Y281D02*
X441Y281D01*
X0Y280D02*
X4Y280D01*
X354Y280D02*
X379Y280D01*
X416Y280D02*
X442Y280D01*
X0Y279D02*
X4Y279D01*
X353Y279D02*
X379Y279D01*
X417Y279D02*
X442Y279D01*
X0Y278D02*
X4Y278D01*
X353Y278D02*
X371Y278D01*
X375Y278D02*
X378Y278D01*
X417Y278D02*
X421Y278D01*
X424Y278D02*
X443Y278D01*
X0Y277D02*
X4Y277D01*
X354Y277D02*
X370Y277D01*
X377Y277D02*
X378Y277D01*
X418Y277D02*
X419Y277D01*
X426Y277D02*
X442Y277D01*
X0Y276D02*
X4Y276D01*
X355Y276D02*
X369Y276D01*
X427Y276D02*
X441Y276D01*
X0Y275D02*
X4Y275D01*
X356Y275D02*
X367Y275D01*
X429Y275D02*
X440Y275D01*
X0Y274D02*
X4Y274D01*
X357Y274D02*
X366Y274D01*
X430Y274D02*
X439Y274D01*
X0Y273D02*
X4Y273D01*
X358Y273D02*
X364Y273D01*
X431Y273D02*
X438Y273D01*
X0Y272D02*
X4Y272D01*
X359Y272D02*
X363Y272D01*
X433Y272D02*
X437Y272D01*
X0Y271D02*
X4Y271D01*
X360Y271D02*
X361Y271D01*
X434Y271D02*
X436Y271D01*
X0Y270D02*
X4Y270D01*
X0Y269D02*
X4Y269D01*
X0Y268D02*
X4Y268D01*
X0Y267D02*
X4Y267D01*
X0Y266D02*
X4Y266D01*
X0Y265D02*
X4Y265D01*
X0Y264D02*
X4Y264D01*
X0Y263D02*
X4Y263D01*
X0Y262D02*
X4Y262D01*
X0Y261D02*
X4Y261D01*
X381Y261D02*
X382Y261D01*
X423Y261D02*
X424Y261D01*
X0Y260D02*
X4Y260D01*
X381Y260D02*
X382Y260D01*
X423Y260D02*
X424Y260D01*
X0Y259D02*
X4Y259D01*
X381Y259D02*
X382Y259D01*
X423Y259D02*
X424Y259D01*
X0Y258D02*
X4Y258D01*
X381Y258D02*
X382Y258D01*
X423Y258D02*
X424Y258D01*
X0Y257D02*
X4Y257D01*
X327Y257D02*
X329Y257D01*
X338Y257D02*
X341Y257D01*
X351Y257D02*
X353Y257D01*
X364Y257D02*
X366Y257D01*
X381Y257D02*
X382Y257D01*
X423Y257D02*
X424Y257D01*
X0Y256D02*
X4Y256D01*
X325Y256D02*
X330Y256D01*
X337Y256D02*
X343Y256D01*
X350Y256D02*
X355Y256D01*
X362Y256D02*
X367Y256D01*
X381Y256D02*
X387Y256D01*
X394Y256D02*
X399Y256D01*
X406Y256D02*
X410Y256D01*
X418Y256D02*
X424Y256D01*
X427Y256D02*
X427Y256D01*
X431Y256D02*
X432Y256D01*
X436Y256D02*
X436Y256D01*
X441Y256D02*
X445Y256D01*
X453Y256D02*
X457Y256D01*
X464Y256D02*
X469Y256D01*
X0Y255D02*
X4Y255D01*
X324Y255D02*
X327Y255D01*
X329Y255D02*
X331Y255D01*
X336Y255D02*
X339Y255D01*
X341Y255D02*
X344Y255D01*
X349Y255D02*
X351Y255D01*
X353Y255D02*
X356Y255D01*
X361Y255D02*
X364Y255D01*
X366Y255D02*
X368Y255D01*
X381Y255D02*
X388Y255D01*
X393Y255D02*
X400Y255D01*
X405Y255D02*
X407Y255D01*
X409Y255D02*
X411Y255D01*
X417Y255D02*
X424Y255D01*
X427Y255D02*
X427Y255D01*
X431Y255D02*
X432Y255D01*
X436Y255D02*
X436Y255D01*
X440Y255D02*
X442Y255D01*
X444Y255D02*
X446Y255D01*
X452Y255D02*
X454Y255D01*
X456Y255D02*
X458Y255D01*
X463Y255D02*
X470Y255D01*
X0Y254D02*
X4Y254D01*
X324Y254D02*
X326Y254D01*
X330Y254D02*
X332Y254D01*
X336Y254D02*
X338Y254D01*
X342Y254D02*
X344Y254D01*
X348Y254D02*
X350Y254D01*
X355Y254D02*
X356Y254D01*
X361Y254D02*
X362Y254D01*
X367Y254D02*
X369Y254D01*
X381Y254D02*
X382Y254D01*
X387Y254D02*
X388Y254D01*
X393Y254D02*
X394Y254D01*
X399Y254D02*
X400Y254D01*
X404Y254D02*
X406Y254D01*
X411Y254D02*
X412Y254D01*
X416Y254D02*
X417Y254D01*
X422Y254D02*
X424Y254D01*
X427Y254D02*
X427Y254D01*
X431Y254D02*
X432Y254D01*
X436Y254D02*
X436Y254D01*
X440Y254D02*
X441Y254D01*
X446Y254D02*
X447Y254D01*
X451Y254D02*
X452Y254D01*
X457Y254D02*
X458Y254D01*
X463Y254D02*
X464Y254D01*
X469Y254D02*
X470Y254D01*
X0Y253D02*
X4Y253D01*
X324Y253D02*
X325Y253D01*
X331Y253D02*
X332Y253D01*
X336Y253D02*
X337Y253D01*
X343Y253D02*
X344Y253D01*
X348Y253D02*
X349Y253D01*
X355Y253D02*
X356Y253D01*
X361Y253D02*
X362Y253D01*
X368Y253D02*
X369Y253D01*
X381Y253D02*
X382Y253D01*
X388Y253D02*
X389Y253D01*
X393Y253D02*
X393Y253D01*
X399Y253D02*
X400Y253D01*
X404Y253D02*
X405Y253D01*
X411Y253D02*
X412Y253D01*
X416Y253D02*
X417Y253D01*
X423Y253D02*
X424Y253D01*
X427Y253D02*
X427Y253D01*
X431Y253D02*
X432Y253D01*
X436Y253D02*
X436Y253D01*
X439Y253D02*
X440Y253D01*
X446Y253D02*
X447Y253D01*
X451Y253D02*
X452Y253D01*
X458Y253D02*
X459Y253D01*
X463Y253D02*
X464Y253D01*
X469Y253D02*
X470Y253D01*
X0Y252D02*
X4Y252D01*
X324Y252D02*
X325Y252D01*
X330Y252D02*
X332Y252D01*
X336Y252D02*
X337Y252D01*
X343Y252D02*
X344Y252D01*
X348Y252D02*
X350Y252D01*
X352Y252D02*
X356Y252D01*
X360Y252D02*
X362Y252D01*
X367Y252D02*
X369Y252D01*
X381Y252D02*
X382Y252D01*
X388Y252D02*
X389Y252D01*
X393Y252D02*
X393Y252D01*
X398Y252D02*
X400Y252D01*
X404Y252D02*
X405Y252D01*
X411Y252D02*
X411Y252D01*
X416Y252D02*
X417Y252D01*
X423Y252D02*
X424Y252D01*
X427Y252D02*
X427Y252D01*
X431Y252D02*
X432Y252D01*
X436Y252D02*
X436Y252D01*
X439Y252D02*
X439Y252D01*
X445Y252D02*
X447Y252D01*
X451Y252D02*
X452Y252D01*
X458Y252D02*
X458Y252D01*
X463Y252D02*
X464Y252D01*
X468Y252D02*
X470Y252D01*
X0Y251D02*
X4Y251D01*
X324Y251D02*
X325Y251D01*
X330Y251D02*
X332Y251D01*
X336Y251D02*
X337Y251D01*
X343Y251D02*
X344Y251D01*
X348Y251D02*
X355Y251D01*
X360Y251D02*
X362Y251D01*
X367Y251D02*
X369Y251D01*
X381Y251D02*
X382Y251D01*
X388Y251D02*
X389Y251D01*
X396Y251D02*
X400Y251D01*
X404Y251D02*
X405Y251D01*
X416Y251D02*
X417Y251D01*
X423Y251D02*
X424Y251D01*
X427Y251D02*
X427Y251D01*
X431Y251D02*
X432Y251D01*
X436Y251D02*
X436Y251D01*
X443Y251D02*
X447Y251D01*
X451Y251D02*
X452Y251D01*
X463Y251D02*
X464Y251D01*
X466Y251D02*
X469Y251D01*
X0Y250D02*
X4Y250D01*
X324Y250D02*
X325Y250D01*
X330Y250D02*
X332Y250D01*
X336Y250D02*
X337Y250D01*
X343Y250D02*
X344Y250D01*
X348Y250D02*
X353Y250D01*
X360Y250D02*
X362Y250D01*
X367Y250D02*
X369Y250D01*
X381Y250D02*
X382Y250D01*
X388Y250D02*
X389Y250D01*
X394Y250D02*
X397Y250D01*
X399Y250D02*
X400Y250D01*
X404Y250D02*
X405Y250D01*
X416Y250D02*
X417Y250D01*
X423Y250D02*
X424Y250D01*
X427Y250D02*
X427Y250D01*
X431Y250D02*
X432Y250D01*
X436Y250D02*
X436Y250D01*
X441Y250D02*
X444Y250D01*
X446Y250D02*
X447Y250D01*
X451Y250D02*
X452Y250D01*
X463Y250D02*
X467Y250D01*
X0Y249D02*
X4Y249D01*
X324Y249D02*
X325Y249D01*
X331Y249D02*
X332Y249D01*
X336Y249D02*
X337Y249D01*
X343Y249D02*
X344Y249D01*
X348Y249D02*
X351Y249D01*
X356Y249D02*
X357Y249D01*
X360Y249D02*
X362Y249D01*
X367Y249D02*
X369Y249D01*
X381Y249D02*
X382Y249D01*
X388Y249D02*
X389Y249D01*
X393Y249D02*
X395Y249D01*
X399Y249D02*
X400Y249D01*
X404Y249D02*
X405Y249D01*
X416Y249D02*
X417Y249D01*
X423Y249D02*
X424Y249D01*
X427Y249D02*
X427Y249D01*
X431Y249D02*
X432Y249D01*
X436Y249D02*
X436Y249D01*
X440Y249D02*
X442Y249D01*
X446Y249D02*
X447Y249D01*
X451Y249D02*
X452Y249D01*
X463Y249D02*
X465Y249D01*
X0Y248D02*
X4Y248D01*
X324Y248D02*
X325Y248D01*
X330Y248D02*
X332Y248D01*
X336Y248D02*
X338Y248D01*
X343Y248D02*
X344Y248D01*
X348Y248D02*
X350Y248D01*
X355Y248D02*
X356Y248D01*
X360Y248D02*
X362Y248D01*
X367Y248D02*
X369Y248D01*
X381Y248D02*
X382Y248D01*
X388Y248D02*
X389Y248D01*
X393Y248D02*
X394Y248D01*
X399Y248D02*
X400Y248D01*
X404Y248D02*
X405Y248D01*
X416Y248D02*
X417Y248D01*
X423Y248D02*
X424Y248D01*
X427Y248D02*
X427Y248D01*
X431Y248D02*
X432Y248D01*
X436Y248D02*
X436Y248D01*
X439Y248D02*
X440Y248D01*
X446Y248D02*
X447Y248D01*
X451Y248D02*
X452Y248D01*
X463Y248D02*
X464Y248D01*
X470Y248D02*
X470Y248D01*
X0Y247D02*
X4Y247D01*
X324Y247D02*
X325Y247D01*
X330Y247D02*
X331Y247D01*
X336Y247D02*
X338Y247D01*
X342Y247D02*
X344Y247D01*
X349Y247D02*
X350Y247D01*
X355Y247D02*
X356Y247D01*
X360Y247D02*
X362Y247D01*
X367Y247D02*
X369Y247D01*
X381Y247D02*
X382Y247D01*
X388Y247D02*
X389Y247D01*
X393Y247D02*
X394Y247D01*
X399Y247D02*
X400Y247D01*
X404Y247D02*
X405Y247D01*
X416Y247D02*
X417Y247D01*
X422Y247D02*
X423Y247D01*
X427Y247D02*
X427Y247D01*
X431Y247D02*
X432Y247D01*
X435Y247D02*
X436Y247D01*
X439Y247D02*
X440Y247D01*
X446Y247D02*
X447Y247D01*
X451Y247D02*
X452Y247D01*
X463Y247D02*
X464Y247D01*
X469Y247D02*
X470Y247D01*
X0Y246D02*
X4Y246D01*
X324Y246D02*
X331Y246D01*
X336Y246D02*
X343Y246D01*
X349Y246D02*
X356Y246D01*
X360Y246D02*
X362Y246D01*
X367Y246D02*
X369Y246D01*
X381Y246D02*
X382Y246D01*
X388Y246D02*
X389Y246D01*
X393Y246D02*
X394Y246D01*
X399Y246D02*
X400Y246D01*
X404Y246D02*
X405Y246D01*
X417Y246D02*
X418Y246D01*
X421Y246D02*
X423Y246D01*
X427Y246D02*
X428Y246D01*
X430Y246D02*
X433Y246D01*
X435Y246D02*
X436Y246D01*
X440Y246D02*
X441Y246D01*
X446Y246D02*
X447Y246D01*
X451Y246D02*
X452Y246D01*
X463Y246D02*
X465Y246D01*
X468Y246D02*
X470Y246D01*
X0Y245D02*
X4Y245D01*
X326Y245D02*
X330Y245D01*
X336Y245D02*
X342Y245D01*
X350Y245D02*
X355Y245D01*
X360Y245D02*
X361Y245D01*
X367Y245D02*
X368Y245D01*
X381Y245D02*
X382Y245D01*
X388Y245D02*
X389Y245D01*
X394Y245D02*
X397Y245D01*
X399Y245D02*
X400Y245D01*
X404Y245D02*
X405Y245D01*
X417Y245D02*
X422Y245D01*
X427Y245D02*
X436Y245D01*
X440Y245D02*
X444Y245D01*
X446Y245D02*
X447Y245D01*
X451Y245D02*
X452Y245D01*
X464Y245D02*
X469Y245D01*
X0Y244D02*
X4Y244D01*
X327Y244D02*
X327Y244D01*
X336Y244D02*
X337Y244D01*
X353Y244D02*
X353Y244D01*
X396Y244D02*
X397Y244D01*
X419Y244D02*
X420Y244D01*
X429Y244D02*
X430Y244D01*
X433Y244D02*
X434Y244D01*
X442Y244D02*
X443Y244D01*
X466Y244D02*
X467Y244D01*
X0Y243D02*
X4Y243D01*
X336Y243D02*
X337Y243D01*
X0Y242D02*
X4Y242D01*
X336Y242D02*
X337Y242D01*
X0Y241D02*
X4Y241D01*
X336Y241D02*
X337Y241D01*
X0Y240D02*
X4Y240D01*
X336Y240D02*
X337Y240D01*
X0Y239D02*
X4Y239D01*
X0Y238D02*
X4Y238D01*
X0Y237D02*
X4Y237D01*
X0Y236D02*
X4Y236D01*
X0Y235D02*
X4Y235D01*
X0Y234D02*
X4Y234D01*
X0Y233D02*
X4Y233D01*
X0Y232D02*
X4Y232D01*
X0Y231D02*
X4Y231D01*
X0Y230D02*
X4Y230D01*
X0Y229D02*
X4Y229D01*
X0Y228D02*
X4Y228D01*
X0Y227D02*
X4Y227D01*
X0Y226D02*
X4Y226D01*
X713Y226D02*
X740Y226D01*
X764Y226D02*
X797Y226D01*
X905Y226D02*
X906Y226D01*
X953Y226D02*
X986Y226D01*
X0Y225D02*
X4Y225D01*
X713Y225D02*
X742Y225D01*
X764Y225D02*
X797Y225D01*
X903Y225D02*
X908Y225D01*
X953Y225D02*
X986Y225D01*
X0Y224D02*
X4Y224D01*
X713Y224D02*
X743Y224D01*
X764Y224D02*
X797Y224D01*
X903Y224D02*
X908Y224D01*
X953Y224D02*
X986Y224D01*
X0Y223D02*
X4Y223D01*
X713Y223D02*
X744Y223D01*
X764Y223D02*
X797Y223D01*
X903Y223D02*
X909Y223D01*
X953Y223D02*
X986Y223D01*
X0Y222D02*
X4Y222D01*
X713Y222D02*
X745Y222D01*
X764Y222D02*
X797Y222D01*
X903Y222D02*
X909Y222D01*
X953Y222D02*
X986Y222D01*
X0Y221D02*
X4Y221D01*
X713Y221D02*
X746Y221D01*
X764Y221D02*
X797Y221D01*
X903Y221D02*
X909Y221D01*
X953Y221D02*
X986Y221D01*
X0Y220D02*
X4Y220D01*
X713Y220D02*
X746Y220D01*
X764Y220D02*
X797Y220D01*
X903Y220D02*
X909Y220D01*
X953Y220D02*
X986Y220D01*
X0Y219D02*
X4Y219D01*
X713Y219D02*
X719Y219D01*
X739Y219D02*
X746Y219D01*
X764Y219D02*
X770Y219D01*
X777Y219D02*
X783Y219D01*
X791Y219D02*
X797Y219D01*
X903Y219D02*
X909Y219D01*
X953Y219D02*
X959Y219D01*
X966Y219D02*
X973Y219D01*
X980Y219D02*
X986Y219D01*
X0Y218D02*
X4Y218D01*
X713Y218D02*
X719Y218D01*
X740Y218D02*
X747Y218D01*
X764Y218D02*
X770Y218D01*
X777Y218D02*
X783Y218D01*
X791Y218D02*
X797Y218D01*
X903Y218D02*
X909Y218D01*
X953Y218D02*
X959Y218D01*
X967Y218D02*
X973Y218D01*
X980Y218D02*
X986Y218D01*
X0Y217D02*
X4Y217D01*
X713Y217D02*
X719Y217D01*
X741Y217D02*
X747Y217D01*
X764Y217D02*
X769Y217D01*
X777Y217D02*
X783Y217D01*
X791Y217D02*
X797Y217D01*
X903Y217D02*
X909Y217D01*
X953Y217D02*
X959Y217D01*
X967Y217D02*
X973Y217D01*
X980Y217D02*
X986Y217D01*
X0Y216D02*
X4Y216D01*
X713Y216D02*
X719Y216D01*
X741Y216D02*
X747Y216D01*
X764Y216D02*
X769Y216D01*
X777Y216D02*
X783Y216D01*
X791Y216D02*
X797Y216D01*
X903Y216D02*
X909Y216D01*
X953Y216D02*
X959Y216D01*
X967Y216D02*
X973Y216D01*
X981Y216D02*
X986Y216D01*
X0Y215D02*
X4Y215D01*
X713Y215D02*
X719Y215D01*
X741Y215D02*
X747Y215D01*
X764Y215D02*
X769Y215D01*
X777Y215D02*
X783Y215D01*
X792Y215D02*
X796Y215D01*
X903Y215D02*
X909Y215D01*
X953Y215D02*
X958Y215D01*
X967Y215D02*
X973Y215D01*
X981Y215D02*
X986Y215D01*
X0Y214D02*
X4Y214D01*
X713Y214D02*
X719Y214D01*
X741Y214D02*
X747Y214D01*
X766Y214D02*
X767Y214D01*
X777Y214D02*
X783Y214D01*
X794Y214D02*
X795Y214D01*
X903Y214D02*
X909Y214D01*
X954Y214D02*
X957Y214D01*
X967Y214D02*
X973Y214D01*
X982Y214D02*
X985Y214D01*
X0Y213D02*
X4Y213D01*
X713Y213D02*
X719Y213D01*
X741Y213D02*
X747Y213D01*
X777Y213D02*
X783Y213D01*
X903Y213D02*
X909Y213D01*
X967Y213D02*
X973Y213D01*
X0Y212D02*
X4Y212D01*
X713Y212D02*
X719Y212D01*
X741Y212D02*
X747Y212D01*
X777Y212D02*
X783Y212D01*
X903Y212D02*
X909Y212D01*
X967Y212D02*
X973Y212D01*
X0Y211D02*
X4Y211D01*
X713Y211D02*
X719Y211D01*
X740Y211D02*
X747Y211D01*
X777Y211D02*
X783Y211D01*
X903Y211D02*
X909Y211D01*
X967Y211D02*
X973Y211D01*
X0Y210D02*
X4Y210D01*
X713Y210D02*
X719Y210D01*
X740Y210D02*
X747Y210D01*
X777Y210D02*
X783Y210D01*
X903Y210D02*
X909Y210D01*
X967Y210D02*
X973Y210D01*
X0Y209D02*
X4Y209D01*
X713Y209D02*
X746Y209D01*
X777Y209D02*
X783Y209D01*
X903Y209D02*
X909Y209D01*
X967Y209D02*
X973Y209D01*
X0Y208D02*
X4Y208D01*
X713Y208D02*
X746Y208D01*
X777Y208D02*
X783Y208D01*
X903Y208D02*
X909Y208D01*
X967Y208D02*
X973Y208D01*
X0Y207D02*
X4Y207D01*
X713Y207D02*
X745Y207D01*
X777Y207D02*
X783Y207D01*
X903Y207D02*
X909Y207D01*
X967Y207D02*
X973Y207D01*
X0Y206D02*
X4Y206D01*
X713Y206D02*
X744Y206D01*
X777Y206D02*
X783Y206D01*
X903Y206D02*
X909Y206D01*
X967Y206D02*
X973Y206D01*
X0Y205D02*
X204Y205D01*
X713Y205D02*
X744Y205D01*
X777Y205D02*
X783Y205D01*
X903Y205D02*
X909Y205D01*
X967Y205D02*
X973Y205D01*
X0Y204D02*
X204Y204D01*
X713Y204D02*
X742Y204D01*
X777Y204D02*
X783Y204D01*
X903Y204D02*
X909Y204D01*
X967Y204D02*
X973Y204D01*
X0Y203D02*
X204Y203D01*
X713Y203D02*
X741Y203D01*
X777Y203D02*
X783Y203D01*
X903Y203D02*
X909Y203D01*
X967Y203D02*
X973Y203D01*
X0Y202D02*
X204Y202D01*
X713Y202D02*
X736Y202D01*
X777Y202D02*
X783Y202D01*
X903Y202D02*
X909Y202D01*
X967Y202D02*
X973Y202D01*
X0Y201D02*
X204Y201D01*
X713Y201D02*
X719Y201D01*
X726Y201D02*
X733Y201D01*
X777Y201D02*
X783Y201D01*
X903Y201D02*
X909Y201D01*
X967Y201D02*
X973Y201D01*
X0Y200D02*
X204Y200D01*
X713Y200D02*
X719Y200D01*
X726Y200D02*
X733Y200D01*
X777Y200D02*
X783Y200D01*
X903Y200D02*
X909Y200D01*
X967Y200D02*
X973Y200D01*
X0Y199D02*
X204Y199D01*
X713Y199D02*
X719Y199D01*
X727Y199D02*
X734Y199D01*
X777Y199D02*
X783Y199D01*
X903Y199D02*
X909Y199D01*
X967Y199D02*
X973Y199D01*
X0Y198D02*
X204Y198D01*
X713Y198D02*
X719Y198D01*
X727Y198D02*
X735Y198D01*
X777Y198D02*
X783Y198D01*
X903Y198D02*
X909Y198D01*
X967Y198D02*
X973Y198D01*
X0Y197D02*
X204Y197D01*
X713Y197D02*
X719Y197D01*
X728Y197D02*
X735Y197D01*
X777Y197D02*
X783Y197D01*
X903Y197D02*
X909Y197D01*
X967Y197D02*
X973Y197D01*
X0Y196D02*
X204Y196D01*
X713Y196D02*
X719Y196D01*
X729Y196D02*
X736Y196D01*
X777Y196D02*
X783Y196D01*
X903Y196D02*
X909Y196D01*
X967Y196D02*
X973Y196D01*
X195Y195D02*
X204Y195D01*
X713Y195D02*
X719Y195D01*
X729Y195D02*
X736Y195D01*
X777Y195D02*
X783Y195D01*
X903Y195D02*
X909Y195D01*
X967Y195D02*
X973Y195D01*
X1495Y195D02*
X1504Y195D01*
X195Y194D02*
X204Y194D01*
X713Y194D02*
X719Y194D01*
X730Y194D02*
X737Y194D01*
X777Y194D02*
X783Y194D01*
X903Y194D02*
X909Y194D01*
X967Y194D02*
X973Y194D01*
X1495Y194D02*
X1504Y194D01*
X195Y193D02*
X204Y193D01*
X713Y193D02*
X719Y193D01*
X730Y193D02*
X738Y193D01*
X777Y193D02*
X783Y193D01*
X903Y193D02*
X909Y193D01*
X967Y193D02*
X973Y193D01*
X1495Y193D02*
X1504Y193D01*
X195Y192D02*
X204Y192D01*
X713Y192D02*
X719Y192D01*
X731Y192D02*
X738Y192D01*
X777Y192D02*
X783Y192D01*
X903Y192D02*
X909Y192D01*
X967Y192D02*
X973Y192D01*
X1495Y192D02*
X1504Y192D01*
X195Y191D02*
X204Y191D01*
X713Y191D02*
X719Y191D01*
X732Y191D02*
X739Y191D01*
X777Y191D02*
X783Y191D01*
X903Y191D02*
X909Y191D01*
X967Y191D02*
X973Y191D01*
X1495Y191D02*
X1504Y191D01*
X195Y190D02*
X204Y190D01*
X713Y190D02*
X719Y190D01*
X732Y190D02*
X739Y190D01*
X777Y190D02*
X783Y190D01*
X903Y190D02*
X909Y190D01*
X967Y190D02*
X973Y190D01*
X1495Y190D02*
X1504Y190D01*
X195Y189D02*
X204Y189D01*
X713Y189D02*
X719Y189D01*
X733Y189D02*
X740Y189D01*
X777Y189D02*
X783Y189D01*
X903Y189D02*
X909Y189D01*
X967Y189D02*
X973Y189D01*
X1495Y189D02*
X1504Y189D01*
X195Y188D02*
X204Y188D01*
X713Y188D02*
X719Y188D01*
X733Y188D02*
X740Y188D01*
X777Y188D02*
X783Y188D01*
X903Y188D02*
X909Y188D01*
X967Y188D02*
X973Y188D01*
X1495Y188D02*
X1504Y188D01*
X195Y187D02*
X204Y187D01*
X713Y187D02*
X719Y187D01*
X734Y187D02*
X741Y187D01*
X777Y187D02*
X783Y187D01*
X903Y187D02*
X909Y187D01*
X967Y187D02*
X973Y187D01*
X1495Y187D02*
X1504Y187D01*
X195Y186D02*
X204Y186D01*
X713Y186D02*
X719Y186D01*
X734Y186D02*
X742Y186D01*
X777Y186D02*
X783Y186D01*
X903Y186D02*
X909Y186D01*
X967Y186D02*
X973Y186D01*
X1495Y186D02*
X1504Y186D01*
X195Y185D02*
X204Y185D01*
X713Y185D02*
X719Y185D01*
X735Y185D02*
X742Y185D01*
X777Y185D02*
X783Y185D01*
X903Y185D02*
X909Y185D01*
X967Y185D02*
X973Y185D01*
X1495Y185D02*
X1504Y185D01*
X195Y184D02*
X204Y184D01*
X713Y184D02*
X719Y184D01*
X736Y184D02*
X743Y184D01*
X777Y184D02*
X783Y184D01*
X903Y184D02*
X909Y184D01*
X967Y184D02*
X973Y184D01*
X1495Y184D02*
X1504Y184D01*
X195Y183D02*
X204Y183D01*
X713Y183D02*
X719Y183D01*
X736Y183D02*
X743Y183D01*
X777Y183D02*
X783Y183D01*
X903Y183D02*
X909Y183D01*
X967Y183D02*
X973Y183D01*
X1495Y183D02*
X1504Y183D01*
X195Y182D02*
X204Y182D01*
X713Y182D02*
X719Y182D01*
X737Y182D02*
X744Y182D01*
X777Y182D02*
X783Y182D01*
X903Y182D02*
X909Y182D01*
X967Y182D02*
X973Y182D01*
X1495Y182D02*
X1504Y182D01*
X195Y181D02*
X204Y181D01*
X713Y181D02*
X719Y181D01*
X737Y181D02*
X745Y181D01*
X777Y181D02*
X783Y181D01*
X903Y181D02*
X909Y181D01*
X967Y181D02*
X973Y181D01*
X1495Y181D02*
X1504Y181D01*
X195Y180D02*
X204Y180D01*
X713Y180D02*
X719Y180D01*
X738Y180D02*
X745Y180D01*
X777Y180D02*
X783Y180D01*
X903Y180D02*
X909Y180D01*
X967Y180D02*
X973Y180D01*
X1495Y180D02*
X1504Y180D01*
X195Y179D02*
X204Y179D01*
X713Y179D02*
X719Y179D01*
X739Y179D02*
X746Y179D01*
X777Y179D02*
X783Y179D01*
X903Y179D02*
X933Y179D01*
X967Y179D02*
X973Y179D01*
X1495Y179D02*
X1504Y179D01*
X195Y178D02*
X204Y178D01*
X713Y178D02*
X719Y178D01*
X739Y178D02*
X746Y178D01*
X777Y178D02*
X783Y178D01*
X903Y178D02*
X935Y178D01*
X967Y178D02*
X973Y178D01*
X1495Y178D02*
X1504Y178D01*
X195Y177D02*
X204Y177D01*
X713Y177D02*
X719Y177D01*
X740Y177D02*
X747Y177D01*
X777Y177D02*
X783Y177D01*
X903Y177D02*
X936Y177D01*
X967Y177D02*
X973Y177D01*
X1495Y177D02*
X1504Y177D01*
X195Y176D02*
X204Y176D01*
X713Y176D02*
X719Y176D01*
X740Y176D02*
X747Y176D01*
X777Y176D02*
X783Y176D01*
X903Y176D02*
X936Y176D01*
X967Y176D02*
X973Y176D01*
X1495Y176D02*
X1504Y176D01*
X195Y175D02*
X204Y175D01*
X714Y175D02*
X719Y175D01*
X741Y175D02*
X747Y175D01*
X777Y175D02*
X783Y175D01*
X903Y175D02*
X936Y175D01*
X967Y175D02*
X972Y175D01*
X1495Y175D02*
X1504Y175D01*
X195Y174D02*
X204Y174D01*
X714Y174D02*
X719Y174D01*
X742Y174D02*
X746Y174D01*
X778Y174D02*
X783Y174D01*
X903Y174D02*
X936Y174D01*
X967Y174D02*
X972Y174D01*
X1495Y174D02*
X1504Y174D01*
X195Y173D02*
X204Y173D01*
X715Y173D02*
X717Y173D01*
X743Y173D02*
X745Y173D01*
X779Y173D02*
X781Y173D01*
X903Y173D02*
X935Y173D01*
X968Y173D02*
X971Y173D01*
X1495Y173D02*
X1504Y173D01*
X195Y172D02*
X204Y172D01*
X1495Y172D02*
X1504Y172D01*
X195Y171D02*
X204Y171D01*
X1495Y171D02*
X1504Y171D01*
X195Y170D02*
X204Y170D01*
X1495Y170D02*
X1504Y170D01*
X195Y169D02*
X204Y169D01*
X1495Y169D02*
X1504Y169D01*
X195Y168D02*
X204Y168D01*
X1495Y168D02*
X1504Y168D01*
X195Y167D02*
X204Y167D01*
X1495Y167D02*
X1504Y167D01*
X195Y166D02*
X204Y166D01*
X1495Y166D02*
X1504Y166D01*
X195Y165D02*
X204Y165D01*
X1495Y165D02*
X1504Y165D01*
X195Y164D02*
X204Y164D01*
X1495Y164D02*
X1504Y164D01*
X195Y163D02*
X204Y163D01*
X1495Y163D02*
X1504Y163D01*
X195Y162D02*
X204Y162D01*
X1495Y162D02*
X1504Y162D01*
X195Y161D02*
X204Y161D01*
X1495Y161D02*
X1504Y161D01*
X195Y160D02*
X204Y160D01*
X1495Y160D02*
X1504Y160D01*
X195Y159D02*
X204Y159D01*
X1495Y159D02*
X1504Y159D01*
X195Y158D02*
X204Y158D01*
X1495Y158D02*
X1504Y158D01*
X195Y157D02*
X204Y157D01*
X1495Y157D02*
X1504Y157D01*
X195Y156D02*
X204Y156D01*
X1495Y156D02*
X1504Y156D01*
X195Y155D02*
X204Y155D01*
X1495Y155D02*
X1504Y155D01*
X195Y154D02*
X204Y154D01*
X1495Y154D02*
X1504Y154D01*
X195Y153D02*
X204Y153D01*
X1495Y153D02*
X1504Y153D01*
X195Y152D02*
X204Y152D01*
X1495Y152D02*
X1504Y152D01*
X195Y151D02*
X204Y151D01*
X1495Y151D02*
X1504Y151D01*
X195Y150D02*
X204Y150D01*
X1495Y150D02*
X1504Y150D01*
X195Y149D02*
X204Y149D01*
X1495Y149D02*
X1504Y149D01*
X195Y148D02*
X204Y148D01*
X1495Y148D02*
X1504Y148D01*
X195Y147D02*
X204Y147D01*
X1495Y147D02*
X1504Y147D01*
X195Y146D02*
X204Y146D01*
X1495Y146D02*
X1504Y146D01*
X195Y145D02*
X204Y145D01*
X1495Y145D02*
X1504Y145D01*
X195Y144D02*
X204Y144D01*
X1495Y144D02*
X1504Y144D01*
X195Y143D02*
X204Y143D01*
X1495Y143D02*
X1504Y143D01*
X195Y142D02*
X204Y142D01*
X1495Y142D02*
X1504Y142D01*
X195Y141D02*
X204Y141D01*
X1495Y141D02*
X1504Y141D01*
X195Y140D02*
X204Y140D01*
X1495Y140D02*
X1504Y140D01*
X195Y139D02*
X204Y139D01*
X1495Y139D02*
X1504Y139D01*
X195Y138D02*
X204Y138D01*
X1495Y138D02*
X1504Y138D01*
X195Y137D02*
X204Y137D01*
X1495Y137D02*
X1504Y137D01*
X195Y136D02*
X204Y136D01*
X1495Y136D02*
X1504Y136D01*
X195Y135D02*
X204Y135D01*
X1495Y135D02*
X1504Y135D01*
X195Y134D02*
X204Y134D01*
X1495Y134D02*
X1504Y134D01*
X195Y133D02*
X204Y133D01*
X1495Y133D02*
X1504Y133D01*
X195Y132D02*
X204Y132D01*
X1495Y132D02*
X1504Y132D01*
X195Y131D02*
X204Y131D01*
X1495Y131D02*
X1504Y131D01*
X195Y130D02*
X204Y130D01*
X1495Y130D02*
X1504Y130D01*
X195Y129D02*
X204Y129D01*
X1495Y129D02*
X1504Y129D01*
X195Y128D02*
X204Y128D01*
X1495Y128D02*
X1504Y128D01*
X195Y127D02*
X204Y127D01*
X1495Y127D02*
X1504Y127D01*
X195Y126D02*
X204Y126D01*
X715Y126D02*
X732Y126D01*
X764Y126D02*
X772Y126D01*
X793Y126D02*
X795Y126D01*
X1495Y126D02*
X1504Y126D01*
X195Y125D02*
X204Y125D01*
X714Y125D02*
X734Y125D01*
X764Y125D02*
X773Y125D01*
X792Y125D02*
X796Y125D01*
X917Y125D02*
X935Y125D01*
X953Y125D02*
X961Y125D01*
X978Y125D02*
X987Y125D01*
X1495Y125D02*
X1504Y125D01*
X195Y124D02*
X204Y124D01*
X714Y124D02*
X735Y124D01*
X764Y124D02*
X773Y124D01*
X791Y124D02*
X797Y124D01*
X915Y124D02*
X936Y124D01*
X953Y124D02*
X962Y124D01*
X978Y124D02*
X987Y124D01*
X1495Y124D02*
X1504Y124D01*
X195Y123D02*
X204Y123D01*
X713Y123D02*
X736Y123D01*
X764Y123D02*
X773Y123D01*
X791Y123D02*
X797Y123D01*
X914Y123D02*
X936Y123D01*
X953Y123D02*
X963Y123D01*
X977Y123D02*
X987Y123D01*
X1495Y123D02*
X1504Y123D01*
X195Y122D02*
X204Y122D01*
X714Y122D02*
X737Y122D01*
X764Y122D02*
X774Y122D01*
X791Y122D02*
X797Y122D01*
X913Y122D02*
X936Y122D01*
X953Y122D02*
X964Y122D01*
X976Y122D02*
X987Y122D01*
X1495Y122D02*
X1504Y122D01*
X195Y121D02*
X204Y121D01*
X714Y121D02*
X738Y121D01*
X764Y121D02*
X774Y121D01*
X791Y121D02*
X797Y121D01*
X912Y121D02*
X936Y121D01*
X953Y121D02*
X964Y121D01*
X976Y121D02*
X987Y121D01*
X1495Y121D02*
X1504Y121D01*
X195Y120D02*
X204Y120D01*
X715Y120D02*
X739Y120D01*
X764Y120D02*
X775Y120D01*
X791Y120D02*
X797Y120D01*
X912Y120D02*
X936Y120D01*
X953Y120D02*
X965Y120D01*
X975Y120D02*
X987Y120D01*
X1495Y120D02*
X1504Y120D01*
X195Y119D02*
X204Y119D01*
X720Y119D02*
X726Y119D01*
X731Y119D02*
X739Y119D01*
X764Y119D02*
X775Y119D01*
X791Y119D02*
X797Y119D01*
X911Y119D02*
X934Y119D01*
X953Y119D02*
X966Y119D01*
X974Y119D02*
X987Y119D01*
X1495Y119D02*
X1504Y119D01*
X195Y118D02*
X204Y118D01*
X720Y118D02*
X726Y118D01*
X733Y118D02*
X740Y118D01*
X764Y118D02*
X776Y118D01*
X791Y118D02*
X797Y118D01*
X911Y118D02*
X918Y118D01*
X953Y118D02*
X966Y118D01*
X973Y118D02*
X987Y118D01*
X1495Y118D02*
X1504Y118D01*
X195Y117D02*
X204Y117D01*
X720Y117D02*
X726Y117D01*
X733Y117D02*
X740Y117D01*
X764Y117D02*
X776Y117D01*
X791Y117D02*
X797Y117D01*
X910Y117D02*
X917Y117D01*
X953Y117D02*
X967Y117D01*
X973Y117D02*
X987Y117D01*
X1495Y117D02*
X1504Y117D01*
X195Y116D02*
X204Y116D01*
X720Y116D02*
X726Y116D01*
X734Y116D02*
X741Y116D01*
X764Y116D02*
X776Y116D01*
X791Y116D02*
X797Y116D01*
X910Y116D02*
X917Y116D01*
X953Y116D02*
X968Y116D01*
X972Y116D02*
X987Y116D01*
X1495Y116D02*
X1504Y116D01*
X195Y115D02*
X204Y115D01*
X720Y115D02*
X726Y115D01*
X734Y115D02*
X741Y115D01*
X764Y115D02*
X777Y115D01*
X791Y115D02*
X797Y115D01*
X909Y115D02*
X916Y115D01*
X953Y115D02*
X959Y115D01*
X961Y115D02*
X968Y115D01*
X971Y115D02*
X979Y115D01*
X981Y115D02*
X987Y115D01*
X1495Y115D02*
X1504Y115D01*
X195Y114D02*
X204Y114D01*
X720Y114D02*
X726Y114D01*
X735Y114D02*
X742Y114D01*
X764Y114D02*
X777Y114D01*
X791Y114D02*
X797Y114D01*
X909Y114D02*
X916Y114D01*
X953Y114D02*
X959Y114D01*
X962Y114D02*
X978Y114D01*
X981Y114D02*
X987Y114D01*
X1495Y114D02*
X1504Y114D01*
X195Y113D02*
X204Y113D01*
X720Y113D02*
X726Y113D01*
X735Y113D02*
X742Y113D01*
X764Y113D02*
X778Y113D01*
X791Y113D02*
X797Y113D01*
X908Y113D02*
X915Y113D01*
X953Y113D02*
X959Y113D01*
X962Y113D02*
X978Y113D01*
X981Y113D02*
X987Y113D01*
X1495Y113D02*
X1504Y113D01*
X195Y112D02*
X204Y112D01*
X720Y112D02*
X726Y112D01*
X736Y112D02*
X743Y112D01*
X764Y112D02*
X778Y112D01*
X791Y112D02*
X797Y112D01*
X908Y112D02*
X915Y112D01*
X953Y112D02*
X959Y112D01*
X963Y112D02*
X977Y112D01*
X981Y112D02*
X987Y112D01*
X1495Y112D02*
X1504Y112D01*
X195Y111D02*
X204Y111D01*
X720Y111D02*
X726Y111D01*
X736Y111D02*
X743Y111D01*
X764Y111D02*
X770Y111D01*
X772Y111D02*
X779Y111D01*
X791Y111D02*
X797Y111D01*
X907Y111D02*
X914Y111D01*
X953Y111D02*
X959Y111D01*
X964Y111D02*
X976Y111D01*
X981Y111D02*
X987Y111D01*
X1495Y111D02*
X1504Y111D01*
X195Y110D02*
X204Y110D01*
X720Y110D02*
X726Y110D01*
X737Y110D02*
X744Y110D01*
X764Y110D02*
X770Y110D01*
X772Y110D02*
X779Y110D01*
X791Y110D02*
X797Y110D01*
X907Y110D02*
X914Y110D01*
X953Y110D02*
X959Y110D01*
X964Y110D02*
X975Y110D01*
X981Y110D02*
X987Y110D01*
X1495Y110D02*
X1504Y110D01*
X195Y109D02*
X204Y109D01*
X720Y109D02*
X726Y109D01*
X737Y109D02*
X744Y109D01*
X764Y109D02*
X770Y109D01*
X773Y109D02*
X780Y109D01*
X791Y109D02*
X797Y109D01*
X906Y109D02*
X913Y109D01*
X953Y109D02*
X959Y109D01*
X965Y109D02*
X975Y109D01*
X981Y109D02*
X987Y109D01*
X1495Y109D02*
X1504Y109D01*
X195Y108D02*
X204Y108D01*
X720Y108D02*
X726Y108D01*
X738Y108D02*
X745Y108D01*
X764Y108D02*
X770Y108D01*
X773Y108D02*
X780Y108D01*
X791Y108D02*
X797Y108D01*
X906Y108D02*
X913Y108D01*
X953Y108D02*
X959Y108D01*
X966Y108D02*
X974Y108D01*
X981Y108D02*
X987Y108D01*
X1495Y108D02*
X1504Y108D01*
X195Y107D02*
X204Y107D01*
X720Y107D02*
X726Y107D01*
X738Y107D02*
X745Y107D01*
X764Y107D02*
X770Y107D01*
X774Y107D02*
X780Y107D01*
X791Y107D02*
X797Y107D01*
X905Y107D02*
X912Y107D01*
X953Y107D02*
X959Y107D01*
X966Y107D02*
X973Y107D01*
X981Y107D02*
X987Y107D01*
X1495Y107D02*
X1504Y107D01*
X195Y106D02*
X204Y106D01*
X720Y106D02*
X726Y106D01*
X739Y106D02*
X745Y106D01*
X764Y106D02*
X770Y106D01*
X774Y106D02*
X781Y106D01*
X791Y106D02*
X797Y106D01*
X905Y106D02*
X912Y106D01*
X953Y106D02*
X959Y106D01*
X967Y106D02*
X973Y106D01*
X981Y106D02*
X987Y106D01*
X1495Y106D02*
X1504Y106D01*
X195Y105D02*
X204Y105D01*
X720Y105D02*
X726Y105D01*
X739Y105D02*
X746Y105D01*
X764Y105D02*
X770Y105D01*
X775Y105D02*
X781Y105D01*
X791Y105D02*
X797Y105D01*
X904Y105D02*
X911Y105D01*
X953Y105D02*
X959Y105D01*
X967Y105D02*
X973Y105D01*
X981Y105D02*
X987Y105D01*
X1495Y105D02*
X1504Y105D01*
X195Y104D02*
X204Y104D01*
X720Y104D02*
X726Y104D01*
X740Y104D02*
X746Y104D01*
X764Y104D02*
X770Y104D01*
X775Y104D02*
X782Y104D01*
X791Y104D02*
X797Y104D01*
X904Y104D02*
X910Y104D01*
X953Y104D02*
X959Y104D01*
X967Y104D02*
X973Y104D01*
X981Y104D02*
X987Y104D01*
X1495Y104D02*
X1504Y104D01*
X195Y103D02*
X204Y103D01*
X720Y103D02*
X726Y103D01*
X740Y103D02*
X747Y103D01*
X764Y103D02*
X770Y103D01*
X775Y103D02*
X782Y103D01*
X791Y103D02*
X797Y103D01*
X904Y103D02*
X910Y103D01*
X953Y103D02*
X959Y103D01*
X967Y103D02*
X972Y103D01*
X981Y103D02*
X987Y103D01*
X1495Y103D02*
X1504Y103D01*
X195Y102D02*
X204Y102D01*
X720Y102D02*
X726Y102D01*
X741Y102D02*
X747Y102D01*
X764Y102D02*
X770Y102D01*
X776Y102D02*
X783Y102D01*
X791Y102D02*
X797Y102D01*
X903Y102D02*
X910Y102D01*
X953Y102D02*
X959Y102D01*
X968Y102D02*
X972Y102D01*
X981Y102D02*
X987Y102D01*
X1495Y102D02*
X1504Y102D01*
X195Y101D02*
X204Y101D01*
X720Y101D02*
X726Y101D01*
X741Y101D02*
X747Y101D01*
X764Y101D02*
X770Y101D01*
X776Y101D02*
X783Y101D01*
X791Y101D02*
X797Y101D01*
X903Y101D02*
X909Y101D01*
X953Y101D02*
X959Y101D01*
X981Y101D02*
X987Y101D01*
X1495Y101D02*
X1504Y101D01*
X195Y100D02*
X204Y100D01*
X720Y100D02*
X726Y100D01*
X741Y100D02*
X747Y100D01*
X764Y100D02*
X770Y100D01*
X777Y100D02*
X783Y100D01*
X791Y100D02*
X797Y100D01*
X903Y100D02*
X909Y100D01*
X953Y100D02*
X959Y100D01*
X981Y100D02*
X987Y100D01*
X1495Y100D02*
X1504Y100D01*
X195Y99D02*
X204Y99D01*
X720Y99D02*
X726Y99D01*
X741Y99D02*
X747Y99D01*
X764Y99D02*
X770Y99D01*
X777Y99D02*
X784Y99D01*
X791Y99D02*
X797Y99D01*
X903Y99D02*
X909Y99D01*
X953Y99D02*
X959Y99D01*
X981Y99D02*
X987Y99D01*
X1495Y99D02*
X1504Y99D01*
X195Y98D02*
X204Y98D01*
X720Y98D02*
X726Y98D01*
X741Y98D02*
X747Y98D01*
X764Y98D02*
X770Y98D01*
X778Y98D02*
X784Y98D01*
X791Y98D02*
X797Y98D01*
X903Y98D02*
X909Y98D01*
X953Y98D02*
X959Y98D01*
X981Y98D02*
X987Y98D01*
X1495Y98D02*
X1504Y98D01*
X195Y97D02*
X204Y97D01*
X720Y97D02*
X726Y97D01*
X741Y97D02*
X747Y97D01*
X764Y97D02*
X770Y97D01*
X778Y97D02*
X785Y97D01*
X791Y97D02*
X797Y97D01*
X903Y97D02*
X909Y97D01*
X953Y97D02*
X959Y97D01*
X981Y97D02*
X987Y97D01*
X1495Y97D02*
X1504Y97D01*
X195Y96D02*
X204Y96D01*
X720Y96D02*
X726Y96D01*
X740Y96D02*
X747Y96D01*
X764Y96D02*
X770Y96D01*
X779Y96D02*
X785Y96D01*
X791Y96D02*
X797Y96D01*
X903Y96D02*
X909Y96D01*
X953Y96D02*
X959Y96D01*
X981Y96D02*
X987Y96D01*
X1495Y96D02*
X1504Y96D01*
X195Y95D02*
X204Y95D01*
X720Y95D02*
X726Y95D01*
X740Y95D02*
X746Y95D01*
X764Y95D02*
X770Y95D01*
X779Y95D02*
X786Y95D01*
X791Y95D02*
X797Y95D01*
X903Y95D02*
X910Y95D01*
X953Y95D02*
X959Y95D01*
X981Y95D02*
X987Y95D01*
X1495Y95D02*
X1504Y95D01*
X195Y94D02*
X204Y94D01*
X720Y94D02*
X726Y94D01*
X739Y94D02*
X746Y94D01*
X764Y94D02*
X770Y94D01*
X779Y94D02*
X786Y94D01*
X791Y94D02*
X797Y94D01*
X904Y94D02*
X910Y94D01*
X953Y94D02*
X959Y94D01*
X981Y94D02*
X987Y94D01*
X1495Y94D02*
X1504Y94D01*
X195Y93D02*
X204Y93D01*
X720Y93D02*
X726Y93D01*
X739Y93D02*
X746Y93D01*
X764Y93D02*
X770Y93D01*
X780Y93D02*
X787Y93D01*
X791Y93D02*
X797Y93D01*
X904Y93D02*
X911Y93D01*
X953Y93D02*
X959Y93D01*
X981Y93D02*
X987Y93D01*
X1495Y93D02*
X1504Y93D01*
X195Y92D02*
X204Y92D01*
X720Y92D02*
X726Y92D01*
X738Y92D02*
X745Y92D01*
X764Y92D02*
X770Y92D01*
X780Y92D02*
X787Y92D01*
X791Y92D02*
X797Y92D01*
X904Y92D02*
X911Y92D01*
X953Y92D02*
X959Y92D01*
X981Y92D02*
X987Y92D01*
X1495Y92D02*
X1504Y92D01*
X195Y91D02*
X204Y91D01*
X720Y91D02*
X726Y91D01*
X738Y91D02*
X745Y91D01*
X764Y91D02*
X770Y91D01*
X781Y91D02*
X787Y91D01*
X791Y91D02*
X797Y91D01*
X905Y91D02*
X912Y91D01*
X953Y91D02*
X959Y91D01*
X981Y91D02*
X987Y91D01*
X1495Y91D02*
X1504Y91D01*
X195Y90D02*
X204Y90D01*
X720Y90D02*
X726Y90D01*
X737Y90D02*
X744Y90D01*
X764Y90D02*
X770Y90D01*
X781Y90D02*
X788Y90D01*
X791Y90D02*
X797Y90D01*
X905Y90D02*
X912Y90D01*
X953Y90D02*
X959Y90D01*
X981Y90D02*
X987Y90D01*
X1495Y90D02*
X1504Y90D01*
X195Y89D02*
X204Y89D01*
X720Y89D02*
X726Y89D01*
X737Y89D02*
X744Y89D01*
X764Y89D02*
X770Y89D01*
X782Y89D02*
X788Y89D01*
X791Y89D02*
X797Y89D01*
X906Y89D02*
X913Y89D01*
X953Y89D02*
X959Y89D01*
X981Y89D02*
X987Y89D01*
X1495Y89D02*
X1504Y89D01*
X195Y88D02*
X204Y88D01*
X720Y88D02*
X726Y88D01*
X736Y88D02*
X743Y88D01*
X764Y88D02*
X770Y88D01*
X782Y88D02*
X789Y88D01*
X791Y88D02*
X797Y88D01*
X906Y88D02*
X913Y88D01*
X953Y88D02*
X959Y88D01*
X981Y88D02*
X987Y88D01*
X1495Y88D02*
X1504Y88D01*
X195Y87D02*
X204Y87D01*
X720Y87D02*
X726Y87D01*
X736Y87D02*
X743Y87D01*
X764Y87D02*
X770Y87D01*
X782Y87D02*
X789Y87D01*
X791Y87D02*
X797Y87D01*
X907Y87D02*
X914Y87D01*
X953Y87D02*
X959Y87D01*
X981Y87D02*
X987Y87D01*
X1495Y87D02*
X1504Y87D01*
X195Y86D02*
X204Y86D01*
X720Y86D02*
X726Y86D01*
X735Y86D02*
X742Y86D01*
X764Y86D02*
X770Y86D01*
X783Y86D02*
X797Y86D01*
X907Y86D02*
X914Y86D01*
X953Y86D02*
X959Y86D01*
X981Y86D02*
X987Y86D01*
X1495Y86D02*
X1504Y86D01*
X195Y85D02*
X204Y85D01*
X720Y85D02*
X726Y85D01*
X735Y85D02*
X742Y85D01*
X764Y85D02*
X770Y85D01*
X783Y85D02*
X797Y85D01*
X908Y85D02*
X915Y85D01*
X953Y85D02*
X959Y85D01*
X981Y85D02*
X987Y85D01*
X1495Y85D02*
X1504Y85D01*
X195Y84D02*
X204Y84D01*
X720Y84D02*
X726Y84D01*
X734Y84D02*
X741Y84D01*
X764Y84D02*
X770Y84D01*
X784Y84D02*
X797Y84D01*
X908Y84D02*
X915Y84D01*
X953Y84D02*
X959Y84D01*
X981Y84D02*
X987Y84D01*
X1495Y84D02*
X1504Y84D01*
X195Y83D02*
X204Y83D01*
X720Y83D02*
X726Y83D01*
X734Y83D02*
X741Y83D01*
X764Y83D02*
X770Y83D01*
X784Y83D02*
X797Y83D01*
X909Y83D02*
X916Y83D01*
X953Y83D02*
X959Y83D01*
X981Y83D02*
X987Y83D01*
X1495Y83D02*
X1504Y83D01*
X195Y82D02*
X204Y82D01*
X720Y82D02*
X726Y82D01*
X733Y82D02*
X740Y82D01*
X764Y82D02*
X770Y82D01*
X785Y82D02*
X797Y82D01*
X909Y82D02*
X916Y82D01*
X953Y82D02*
X959Y82D01*
X981Y82D02*
X987Y82D01*
X1495Y82D02*
X1504Y82D01*
X195Y81D02*
X204Y81D01*
X720Y81D02*
X726Y81D01*
X733Y81D02*
X740Y81D01*
X764Y81D02*
X770Y81D01*
X785Y81D02*
X797Y81D01*
X910Y81D02*
X917Y81D01*
X953Y81D02*
X959Y81D01*
X981Y81D02*
X987Y81D01*
X1495Y81D02*
X1504Y81D01*
X195Y80D02*
X204Y80D01*
X720Y80D02*
X726Y80D01*
X732Y80D02*
X739Y80D01*
X764Y80D02*
X770Y80D01*
X786Y80D02*
X797Y80D01*
X910Y80D02*
X917Y80D01*
X953Y80D02*
X959Y80D01*
X981Y80D02*
X987Y80D01*
X1495Y80D02*
X1504Y80D01*
X195Y79D02*
X204Y79D01*
X716Y79D02*
X739Y79D01*
X764Y79D02*
X770Y79D01*
X786Y79D02*
X797Y79D01*
X911Y79D02*
X919Y79D01*
X953Y79D02*
X959Y79D01*
X981Y79D02*
X987Y79D01*
X1495Y79D02*
X1504Y79D01*
X195Y78D02*
X204Y78D01*
X714Y78D02*
X738Y78D01*
X764Y78D02*
X770Y78D01*
X786Y78D02*
X797Y78D01*
X911Y78D02*
X935Y78D01*
X953Y78D02*
X959Y78D01*
X981Y78D02*
X987Y78D01*
X1495Y78D02*
X1504Y78D01*
X195Y77D02*
X204Y77D01*
X714Y77D02*
X738Y77D01*
X764Y77D02*
X770Y77D01*
X787Y77D02*
X797Y77D01*
X912Y77D02*
X936Y77D01*
X953Y77D02*
X959Y77D01*
X981Y77D02*
X987Y77D01*
X1495Y77D02*
X1504Y77D01*
X195Y76D02*
X204Y76D01*
X714Y76D02*
X737Y76D01*
X764Y76D02*
X770Y76D01*
X787Y76D02*
X797Y76D01*
X913Y76D02*
X936Y76D01*
X953Y76D02*
X959Y76D01*
X981Y76D02*
X987Y76D01*
X1495Y76D02*
X1504Y76D01*
X195Y75D02*
X204Y75D01*
X714Y75D02*
X736Y75D01*
X764Y75D02*
X770Y75D01*
X788Y75D02*
X797Y75D01*
X913Y75D02*
X936Y75D01*
X953Y75D02*
X959Y75D01*
X981Y75D02*
X987Y75D01*
X1495Y75D02*
X1504Y75D01*
X195Y74D02*
X204Y74D01*
X714Y74D02*
X735Y74D01*
X764Y74D02*
X769Y74D01*
X788Y74D02*
X797Y74D01*
X915Y74D02*
X936Y74D01*
X953Y74D02*
X959Y74D01*
X981Y74D02*
X986Y74D01*
X1495Y74D02*
X1504Y74D01*
X195Y73D02*
X204Y73D01*
X715Y73D02*
X733Y73D01*
X765Y73D02*
X768Y73D01*
X789Y73D02*
X797Y73D01*
X916Y73D02*
X936Y73D01*
X954Y73D02*
X958Y73D01*
X982Y73D02*
X986Y73D01*
X1495Y73D02*
X1504Y73D01*
X195Y72D02*
X204Y72D01*
X918Y72D02*
X934Y72D01*
X955Y72D02*
X957Y72D01*
X983Y72D02*
X985Y72D01*
X1495Y72D02*
X1504Y72D01*
X195Y71D02*
X204Y71D01*
X1495Y71D02*
X1504Y71D01*
X195Y70D02*
X204Y70D01*
X1495Y70D02*
X1504Y70D01*
X195Y69D02*
X204Y69D01*
X1495Y69D02*
X1504Y69D01*
X195Y68D02*
X204Y68D01*
X1495Y68D02*
X1504Y68D01*
X195Y67D02*
X204Y67D01*
X1495Y67D02*
X1504Y67D01*
X195Y66D02*
X204Y66D01*
X1495Y66D02*
X1504Y66D01*
X195Y65D02*
X204Y65D01*
X1495Y65D02*
X1504Y65D01*
X195Y64D02*
X204Y64D01*
X1495Y64D02*
X1504Y64D01*
X195Y63D02*
X204Y63D01*
X1495Y63D02*
X1504Y63D01*
X195Y62D02*
X204Y62D01*
X1495Y62D02*
X1504Y62D01*
X195Y61D02*
X204Y61D01*
X1495Y61D02*
X1504Y61D01*
X195Y60D02*
X204Y60D01*
X1495Y60D02*
X1504Y60D01*
X195Y59D02*
X204Y59D01*
X1495Y59D02*
X1504Y59D01*
X195Y58D02*
X204Y58D01*
X1495Y58D02*
X1504Y58D01*
X195Y57D02*
X204Y57D01*
X1495Y57D02*
X1504Y57D01*
X195Y56D02*
X204Y56D01*
X1495Y56D02*
X1504Y56D01*
X195Y55D02*
X204Y55D01*
X1495Y55D02*
X1504Y55D01*
X195Y54D02*
X204Y54D01*
X1495Y54D02*
X1504Y54D01*
X195Y53D02*
X204Y53D01*
X1495Y53D02*
X1504Y53D01*
X195Y52D02*
X204Y52D01*
X1495Y52D02*
X1504Y52D01*
X195Y51D02*
X204Y51D01*
X1495Y51D02*
X1504Y51D01*
X195Y50D02*
X204Y50D01*
X1495Y50D02*
X1504Y50D01*
X195Y49D02*
X204Y49D01*
X1495Y49D02*
X1504Y49D01*
X195Y48D02*
X204Y48D01*
X1495Y48D02*
X1504Y48D01*
X195Y47D02*
X204Y47D01*
X1495Y47D02*
X1504Y47D01*
X195Y46D02*
X204Y46D01*
X1495Y46D02*
X1504Y46D01*
X195Y45D02*
X204Y45D01*
X1495Y45D02*
X1504Y45D01*
X195Y44D02*
X204Y44D01*
X1495Y44D02*
X1504Y44D01*
X195Y43D02*
X204Y43D01*
X1495Y43D02*
X1504Y43D01*
X195Y42D02*
X204Y42D01*
X1495Y42D02*
X1504Y42D01*
X195Y41D02*
X204Y41D01*
X1495Y41D02*
X1504Y41D01*
X195Y40D02*
X204Y40D01*
X1495Y40D02*
X1504Y40D01*
X195Y39D02*
X204Y39D01*
X1495Y39D02*
X1504Y39D01*
X195Y38D02*
X204Y38D01*
X1495Y38D02*
X1504Y38D01*
X195Y37D02*
X204Y37D01*
X1495Y37D02*
X1504Y37D01*
X195Y36D02*
X204Y36D01*
X1495Y36D02*
X1504Y36D01*
X195Y35D02*
X204Y35D01*
X1495Y35D02*
X1504Y35D01*
X195Y34D02*
X204Y34D01*
X1495Y34D02*
X1504Y34D01*
X195Y33D02*
X204Y33D01*
X1495Y33D02*
X1504Y33D01*
X195Y32D02*
X204Y32D01*
X1495Y32D02*
X1504Y32D01*
X195Y31D02*
X204Y31D01*
X1495Y31D02*
X1504Y31D01*
X195Y30D02*
X204Y30D01*
X1495Y30D02*
X1504Y30D01*
X195Y29D02*
X204Y29D01*
X1495Y29D02*
X1504Y29D01*
X195Y28D02*
X204Y28D01*
X1495Y28D02*
X1504Y28D01*
X195Y27D02*
X204Y27D01*
X1495Y27D02*
X1504Y27D01*
X195Y26D02*
X204Y26D01*
X1495Y26D02*
X1504Y26D01*
X195Y25D02*
X204Y25D01*
X1495Y25D02*
X1504Y25D01*
X195Y24D02*
X204Y24D01*
X1495Y24D02*
X1504Y24D01*
X195Y23D02*
X204Y23D01*
X1495Y23D02*
X1504Y23D01*
X195Y22D02*
X204Y22D01*
X1495Y22D02*
X1504Y22D01*
X195Y21D02*
X204Y21D01*
X1495Y21D02*
X1504Y21D01*
X195Y20D02*
X204Y20D01*
X1495Y20D02*
X1504Y20D01*
X195Y19D02*
X204Y19D01*
X1495Y19D02*
X1504Y19D01*
X195Y18D02*
X204Y18D01*
X1495Y18D02*
X1504Y18D01*
X195Y17D02*
X204Y17D01*
X1495Y17D02*
X1504Y17D01*
X195Y16D02*
X204Y16D01*
X1495Y16D02*
X1504Y16D01*
X195Y15D02*
X204Y15D01*
X1495Y15D02*
X1504Y15D01*
X195Y14D02*
X204Y14D01*
X1495Y14D02*
X1504Y14D01*
X195Y13D02*
X204Y13D01*
X1495Y13D02*
X1504Y13D01*
X195Y12D02*
X204Y12D01*
X1495Y12D02*
X1504Y12D01*
X195Y11D02*
X204Y11D01*
X1495Y11D02*
X1504Y11D01*
X195Y10D02*
X204Y10D01*
X1495Y10D02*
X1504Y10D01*
X195Y9D02*
X204Y9D01*
X1495Y9D02*
X1504Y9D01*
X195Y8D02*
X204Y8D01*
X1495Y8D02*
X1504Y8D01*
X195Y7D02*
X204Y7D01*
X1495Y7D02*
X1504Y7D01*
X195Y6D02*
X204Y6D01*
X1495Y6D02*
X1504Y6D01*
X195Y5D02*
X1504Y5D01*
X195Y4D02*
X1504Y4D01*
X195Y3D02*
X1504Y3D01*
X195Y2D02*
X1504Y2D01*
X195Y1D02*
X1504Y1D01*
X195Y0D02*
X1504Y0D01*
X195Y-1D02*
X1504Y-1D01*
D02*
G04 End of Silk1*
M02*