G04 MADE WITH FRITZING*
G04 WWW.FRITZING.ORG*
G04 DOUBLE SIDED*
G04 HOLES PLATED*
G04 CONTOUR ON CENTER OF CONTOUR VECTOR*
%ASAXBY*%
%FSLAX23Y23*%
%MOIN*%
%OFA0B0*%
%SFA1.0B1.0*%
%ADD10C,0.078000*%
%ADD11C,0.070866*%
%ADD12C,0.039370*%
%ADD13R,0.078000X0.078000*%
%ADD14C,0.008000*%
%ADD15C,0.012000*%
%ADD16C,0.024000*%
%LNCOPPER1*%
G90*
G70*
G54D10*
X1050Y100D03*
X650Y100D03*
X650Y350D03*
X1050Y200D03*
X1050Y350D03*
X650Y200D03*
X350Y1675D03*
X450Y1675D03*
X550Y1675D03*
X650Y1675D03*
X750Y1675D03*
X850Y1675D03*
X950Y1675D03*
X1050Y1675D03*
X1150Y1675D03*
X1250Y1675D03*
X1350Y1675D03*
X350Y1675D03*
X450Y1675D03*
X550Y1675D03*
X650Y1675D03*
X750Y1675D03*
X850Y1675D03*
X950Y1675D03*
X1050Y1675D03*
X1150Y1675D03*
X1250Y1675D03*
X1350Y1675D03*
G54D11*
X1400Y900D03*
X1300Y900D03*
X1200Y900D03*
X1100Y900D03*
X1000Y900D03*
X900Y900D03*
X800Y900D03*
X700Y900D03*
X600Y900D03*
X500Y900D03*
X400Y900D03*
X300Y900D03*
X1400Y1500D03*
X1300Y1500D03*
X1200Y1500D03*
X1100Y1500D03*
X1000Y1500D03*
X900Y1500D03*
X800Y1500D03*
X700Y1500D03*
X600Y1500D03*
X500Y1500D03*
X400Y1500D03*
X300Y1500D03*
G54D10*
X800Y750D03*
X800Y650D03*
X1150Y601D03*
X1250Y601D03*
X1150Y300D03*
X1150Y400D03*
X1150Y500D03*
G54D12*
X1250Y1108D03*
X1150Y1009D03*
X1050Y1058D03*
X227Y1328D03*
X700Y1008D03*
X600Y1059D03*
X400Y1108D03*
X300Y1158D03*
X500Y1209D03*
X800Y1258D03*
G54D10*
X750Y500D03*
X850Y500D03*
X950Y500D03*
G54D13*
X750Y500D03*
G54D14*
X1050Y1071D02*
X1050Y1650D01*
D02*
X1150Y1022D02*
X1150Y1650D01*
D02*
X1250Y1122D02*
X1250Y1650D01*
G54D15*
D02*
X300Y1171D02*
X300Y1475D01*
D02*
X400Y1122D02*
X400Y1475D01*
D02*
X500Y1222D02*
X500Y1475D01*
D02*
X600Y1072D02*
X600Y1475D01*
D02*
X700Y1022D02*
X700Y1475D01*
D02*
X800Y1272D02*
X800Y1475D01*
G54D16*
D02*
X227Y1347D02*
X227Y1588D01*
D02*
X550Y1588D02*
X550Y1644D01*
D02*
X227Y1588D02*
X550Y1588D01*
G04 End of Copper1*
M02*