; NON-PLATED HOLES START AT T1
; THROUGH (PLATED) HOLES START AT T100
M48
INCH
T100C0.039370
T101C0.015748
T102C0.038000
%
T100
X002998Y009004
X006995Y015004
X005995Y015004
X003995Y015004
X002995Y015004
X013998Y009004
X007998Y009004
X010998Y009004
X013995Y015004
X004998Y009004
X008995Y015004
X011995Y015004
X003998Y009004
X007995Y015004
X010995Y015004
X004995Y015004
X009998Y009004
X012998Y009004
X008998Y009004
X011998Y009004
X006998Y009004
X005998Y009004
X009995Y015004
X012995Y015004
T101
X004995Y012085
X011495Y010085
X010495Y010578
X002995Y011576
X005995Y010585
X008000Y012584
X012495Y011082
X003995Y011081
X002269Y013282
X006995Y010081
T102
X010499Y003500
X008000Y006504
X010501Y002004
X006504Y003500
X011500Y004004
X006496Y001998
X011500Y006011
X012500Y006011
X008500Y005000
X006495Y016746
X004495Y016746
X009500Y005000
X007500Y005000
X009495Y016746
X007495Y016746
X005495Y016746
X003495Y016746
X008000Y007504
X008495Y016746
X011500Y005004
X012495Y016746
X010495Y016746
X006504Y001000
X010501Y001004
X013495Y016746
X011495Y016746
X011500Y003004
T00
M30
