G04 MADE WITH FRITZING*
G04 WWW.FRITZING.ORG*
G04 DOUBLE SIDED*
G04 HOLES PLATED*
G04 CONTOUR ON CENTER OF CONTOUR VECTOR*
%ASAXBY*%
%FSLAX23Y23*%
%MOIN*%
%OFA0B0*%
%SFA1.0B1.0*%
%ADD10C,0.049370*%
%ADD11C,0.080866*%
%ADD12C,0.088000*%
%ADD13R,0.088000X0.088000*%
%LNMASK1*%
G90*
G70*
G54D10*
X1150Y1122D03*
X1250Y1078D03*
X1350Y1033D03*
X800Y1383D03*
X600Y1347D03*
X700Y1311D03*
X900Y1275D03*
X1000Y1196D03*
X800Y1233D03*
X900Y1122D03*
X1100Y1379D03*
G54D11*
X1500Y880D03*
X1400Y880D03*
X1300Y880D03*
X1200Y880D03*
X1100Y880D03*
X1000Y880D03*
X900Y880D03*
X800Y880D03*
X700Y880D03*
X600Y880D03*
X500Y880D03*
X400Y880D03*
X300Y880D03*
X200Y880D03*
G54D12*
X1050Y100D03*
X650Y100D03*
X650Y350D03*
X1050Y200D03*
X1050Y350D03*
X650Y200D03*
G54D11*
X350Y1675D03*
X450Y1675D03*
X550Y1675D03*
X650Y1675D03*
X750Y1675D03*
X850Y1675D03*
X950Y1675D03*
X1050Y1675D03*
X1150Y1675D03*
X1250Y1675D03*
X1350Y1675D03*
X350Y1675D03*
X450Y1675D03*
X550Y1675D03*
X650Y1675D03*
X750Y1675D03*
X850Y1675D03*
X950Y1675D03*
X1050Y1675D03*
X1150Y1675D03*
X1250Y1675D03*
X1350Y1675D03*
G54D12*
X800Y750D03*
X800Y650D03*
X1150Y580D03*
X1250Y580D03*
X1150Y280D03*
X1150Y380D03*
X1150Y480D03*
X750Y500D03*
X850Y500D03*
X950Y500D03*
G54D11*
X1499Y1479D03*
X1399Y1479D03*
X1299Y1479D03*
X999Y1479D03*
X899Y1479D03*
X799Y1479D03*
X699Y1479D03*
X599Y1479D03*
X499Y1479D03*
X399Y1479D03*
X299Y1479D03*
X199Y1479D03*
G54D13*
X750Y500D03*
G04 End of Mask1*
M02*