G04 MADE WITH FRITZING*
G04 WWW.FRITZING.ORG*
G04 DOUBLE SIDED*
G04 HOLES PLATED*
G04 CONTOUR ON CENTER OF CONTOUR VECTOR*
%ASAXBY*%
%FSLAX23Y23*%
%MOIN*%
%OFA0B0*%
%SFA1.0B1.0*%
%ADD10C,0.078000*%
%ADD11C,0.070866*%
%ADD12C,0.039370*%
%ADD13R,0.078000X0.078000*%
%ADD14C,0.012000*%
%ADD15C,0.024000*%
%ADD16C,0.008000*%
%LNCOPPER0*%
G90*
G70*
G54D10*
X1050Y100D03*
X650Y100D03*
X650Y350D03*
X1050Y200D03*
X1050Y350D03*
X650Y200D03*
X350Y1675D03*
X450Y1675D03*
X550Y1675D03*
X650Y1675D03*
X750Y1675D03*
X850Y1675D03*
X950Y1675D03*
X1050Y1675D03*
X1150Y1675D03*
X1250Y1675D03*
X1350Y1675D03*
X350Y1675D03*
X450Y1675D03*
X550Y1675D03*
X650Y1675D03*
X750Y1675D03*
X850Y1675D03*
X950Y1675D03*
X1050Y1675D03*
X1150Y1675D03*
X1250Y1675D03*
X1350Y1675D03*
G54D11*
X1400Y900D03*
X1300Y900D03*
X1200Y900D03*
X1100Y900D03*
X1000Y900D03*
X900Y900D03*
X800Y900D03*
X700Y900D03*
X600Y900D03*
X500Y900D03*
X400Y900D03*
X300Y900D03*
X1400Y1500D03*
X1300Y1500D03*
X1200Y1500D03*
X1100Y1500D03*
X1000Y1500D03*
X900Y1500D03*
X800Y1500D03*
X700Y1500D03*
X600Y1500D03*
X500Y1500D03*
X400Y1500D03*
X300Y1500D03*
G54D10*
X800Y750D03*
X800Y650D03*
X1150Y601D03*
X1250Y601D03*
X1150Y300D03*
X1150Y400D03*
X1150Y500D03*
G54D12*
X1250Y1108D03*
X1150Y1009D03*
X1050Y1058D03*
X227Y1328D03*
X700Y1008D03*
X600Y1059D03*
X400Y1108D03*
X300Y1158D03*
X500Y1209D03*
X800Y1258D03*
G54D10*
X750Y500D03*
X850Y500D03*
X950Y500D03*
G54D13*
X750Y500D03*
G54D14*
X700Y750D02*
X700Y875D01*
D02*
X775Y750D02*
X700Y750D01*
D02*
X600Y650D02*
X600Y875D01*
D02*
X775Y650D02*
X600Y650D01*
G54D15*
D02*
X1450Y825D02*
X1450Y300D01*
D02*
X1450Y300D02*
X1180Y300D01*
D02*
X1417Y875D02*
X1450Y825D01*
D02*
X1400Y751D02*
X1400Y400D01*
D02*
X1400Y400D02*
X1180Y400D01*
D02*
X1317Y875D02*
X1400Y751D01*
D02*
X1350Y669D02*
X1350Y500D01*
D02*
X1350Y500D02*
X1180Y500D01*
D02*
X1217Y875D02*
X1350Y669D01*
G54D14*
D02*
X1393Y1525D02*
X1356Y1651D01*
G54D16*
D02*
X1249Y1551D02*
X1001Y1624D01*
D02*
X1001Y1624D02*
X967Y1657D01*
D02*
X1282Y1518D02*
X1249Y1551D01*
D02*
X900Y1624D02*
X867Y1657D01*
D02*
X1149Y1551D02*
X900Y1624D01*
D02*
X1182Y1518D02*
X1149Y1551D01*
D02*
X1049Y1551D02*
X801Y1625D01*
D02*
X801Y1625D02*
X767Y1658D01*
D02*
X1082Y1518D02*
X1049Y1551D01*
D02*
X800Y1108D02*
X1236Y1108D01*
D02*
X800Y926D02*
X800Y1108D01*
D02*
X1000Y1009D02*
X1136Y1009D01*
D02*
X1000Y926D02*
X1000Y1009D01*
D02*
X900Y1058D02*
X1036Y1058D01*
D02*
X900Y926D02*
X900Y1058D01*
D02*
X949Y1551D02*
X700Y1625D01*
D02*
X700Y1625D02*
X667Y1657D01*
D02*
X982Y1518D02*
X949Y1551D01*
G54D15*
D02*
X1400Y1401D02*
X227Y1401D01*
D02*
X227Y1401D02*
X227Y1675D01*
D02*
X1400Y931D02*
X1400Y1401D01*
D02*
X227Y1675D02*
X319Y1675D01*
D02*
X1300Y1328D02*
X246Y1328D01*
D02*
X1300Y931D02*
X1300Y1328D01*
G54D14*
D02*
X238Y1008D02*
X686Y1008D01*
D02*
X238Y426D02*
X238Y1008D01*
D02*
X1050Y426D02*
X238Y426D01*
D02*
X1050Y375D02*
X1050Y426D01*
D02*
X211Y1059D02*
X586Y1059D01*
D02*
X211Y350D02*
X211Y1059D01*
D02*
X626Y350D02*
X211Y350D01*
D02*
X106Y1258D02*
X787Y1258D01*
D02*
X106Y245D02*
X106Y1258D01*
D02*
X348Y245D02*
X106Y245D01*
D02*
X348Y35D02*
X348Y245D01*
D02*
X1050Y35D02*
X348Y35D01*
D02*
X1050Y76D02*
X1050Y35D01*
D02*
X132Y1209D02*
X486Y1209D01*
D02*
X132Y271D02*
X132Y1209D01*
D02*
X400Y271D02*
X132Y271D01*
D02*
X400Y100D02*
X400Y271D01*
D02*
X626Y100D02*
X400Y100D01*
D02*
X159Y1158D02*
X286Y1158D01*
D02*
X159Y297D02*
X159Y1158D01*
D02*
X451Y297D02*
X159Y297D01*
D02*
X451Y200D02*
X451Y297D01*
D02*
X625Y200D02*
X451Y200D01*
D02*
X185Y324D02*
X185Y1108D01*
D02*
X185Y1108D02*
X386Y1108D01*
D02*
X500Y324D02*
X185Y324D01*
D02*
X500Y275D02*
X500Y324D01*
D02*
X1050Y275D02*
X500Y275D01*
D02*
X1050Y225D02*
X1050Y275D01*
G54D15*
D02*
X1182Y701D02*
X970Y701D01*
D02*
X970Y701D02*
X865Y526D01*
D02*
X1233Y626D02*
X1182Y701D01*
D02*
X1010Y601D02*
X965Y526D01*
D02*
X1120Y601D02*
X1010Y601D01*
G04 End of Copper0*
M02*