; NON-PLATED HOLES START AT T1
; THROUGH (PLATED) HOLES START AT T100
M48
INCH
T100C0.039370
T101C0.015748
T102C0.038000
T103C0.036000
%
T100
X013495Y016746
X011495Y016746
X007495Y016746
X010495Y016746
X004495Y016746
X003495Y016746
X009495Y016746
X012495Y016746
X008495Y016746
X006495Y016746
X005495Y016746
T101
X011991Y009450
X010987Y009450
X011493Y011928
X009000Y010783
X007991Y011216
X008493Y012817
X012493Y014150
X013987Y009450
X010493Y012373
X013493Y009895
X012987Y010339
X009987Y009895
X007493Y013261
X009493Y013706
T102
X007500Y005000
X006504Y001000
X010499Y003500
X006504Y003500
X008500Y005000
X016333Y007666
X009500Y005000
X011500Y005804
X012500Y005804
X006496Y001998
X008000Y006504
X011500Y002797
X008000Y007504
X011500Y003797
X010501Y001004
X011500Y004797
X010500Y002004
T103
X002493Y008801
X009493Y014801
X001493Y008801
X012493Y014801
X008493Y014801
X011493Y014801
X014493Y008801
X005493Y014801
X013493Y008801
X007493Y008801
X002493Y014801
X010493Y008801
X006493Y008801
X001493Y014801
X004493Y008801
X003493Y008801
X014493Y014801
X013493Y014801
X007493Y014801
X015493Y008801
X010493Y014801
X006493Y014801
X009493Y008801
X004493Y014801
X012493Y008801
X008493Y008801
X003493Y014801
X011493Y008801
X005493Y008801
X015493Y014801
T00
M30
